<svg xmlns="http://www.w3.org/2000/svg" width="384.46" height="345.5" viewBox="0 0 384.46 345.5"><path d="M381.81 84.75C374.54 50.57 354.28 25.8 323 10.38 301.51-.18 278.85-2.31 255.5 2.31 231.82 7 211.78 18.07 196.16 36.69c-3.57 4.25-4.87 4.4-8.22 0-8.7-11.44-20.28-19.39-32.84-25.6-20.15-10-41.63-12.92-64-9.82a101.09 101.09 0 0 0-53.92 24.61C12.51 47.62-.37 75.09 0 108.32c0 2.67.07 5.34 0 8a46.62 46.62 0 0 0 .92 7.83c3.16 23.35 13.45 43.3 29.6 60 29.12 30.2 59.54 59.12 88.53 89.46 22.56 23.61 46.16 46.23 69.11 69.47 3.08 3.13 4.62 3.19 7.7 0 24.77-25.6 50.44-50.3 75.11-76 25.95-27.05 52.92-53.12 79.39-79.68a121.29 121.29 0 0 0 10.69-11.76c20.76-27.08 27.81-57.64 20.76-90.89zM205 299.71h-30.49v-32.93H205zm36.1-135.82L214.74 190q-12.48 12.35-12.48 37h-25q0-30.17 9.71-45.28 6.93-11 26.36-30.18a35.37 35.37 0 0 0 11.1-26.06q0-19.2-9.71-28.81-8.33-8.23-23.58-8.23-12.49 0-20.82 8.23-13.87 13.72-13.87 41.15h-31.89q0-35.65 23.59-59 16.65-16.45 44.39-16.46 30.51 0 47.18 16.46 18 17.85 18 45.27a53.88 53.88 0 0 1-16.62 39.8z" fill="#006c9f" data-name="Ebene 1"/></svg>