<svg id="Layer_1" data-name="Layer 1" xmlns="http://www.w3.org/2000/svg" viewBox="0 0 377 244.63"><defs><style>.cls-1{fill:#dbe6e7;}.cls-2{fill:#fff;}.cls-3{fill:#26c9df;}</style></defs><title>sofia-logo2</title><g id="Group"><path id="Shape" class="cls-1" d="M194.67,378.63c-.12-.18-.19-.43-.37-.55a6.78,6.78,0,0,1-2.29-2.92,7.9,7.9,0,0,1-.51-3.85,23.68,23.68,0,0,1,1.17-5.64c.53-1.68,1.06-3.35,1.66-5,.46-1.23,1-2.42,1.55-3.62s1.19-2.65,1.82-3.94c.54-1.1,1.13-2.16,1.7-3.23.23-.42.45-.85.67-1.29.75-1.41,1.49-2.82,2.27-4.23.58-1.05,1.22-2.07,1.83-3.1.71-1.23,1.41-2.46,2.18-3.67s1.61-2.58,2.42-3.86c.4-.62.8-1.23,1.21-1.84a2.62,2.62,0,0,1,.24-.34.71.71,0,0,1,.95-.31.69.69,0,0,1,.38.5,4.29,4.29,0,0,1,.26,1.28,7.5,7.5,0,0,1-1,4c-.9,1.77-1.94,3.47-2.93,5.19l-3.63,6.31-2.45,4.28a.66.66,0,0,0,.09.93h0a3.8,3.8,0,0,0,.37.33,4,4,0,0,1,1.58,2.72,12.68,12.68,0,0,1,.2,3.42c0,.43.2.59.61.4a1.88,1.88,0,0,0,.56-.41,20,20,0,0,0,3.86-5.26c.16-.32.37-.59.77-.49a.71.71,0,0,1,.49.78,6.85,6.85,0,0,1-1.68,4.24,13.24,13.24,0,0,1-4.44,3.41,1.17,1.17,0,0,0-.66.93,38.38,38.38,0,0,1-2.49,8,23.39,23.39,0,0,1-3,5.07A15.4,15.4,0,0,1,197,378a5.49,5.49,0,0,0-.52.65Zm-.78-4.51H194a7.65,7.65,0,0,0,.17,1.05c.22.75.86.94,1.33.33a20.88,20.88,0,0,0,2.07-3,43,43,0,0,0,1.85-4.23c.37-.91.64-1.85.95-2.78a7.34,7.34,0,0,1,.33-.89c.31-.67.17-1.12-.52-1.32a3.65,3.65,0,0,1-1.7-1.06c-.42-.45-.78-.37-1,.2s-.53,1.36-.79,2c-.36.94-.71,1.87-1.07,2.83a23.89,23.89,0,0,0-.87,2.88C194.4,371.49,194.16,372.81,193.89,374.12Zm7.85-15.93c-.08-.78-.14-1.47-.23-2.17,0-.3-.2-.58-.55-.58s-.54.24-.64.56a1.93,1.93,0,0,0-.06.36c-.08.49-.19,1-.24,1.46a20.51,20.51,0,0,0-.08,2.35,2.8,2.8,0,0,0,.46,1.18.73.73,0,0,0,.62.26c.15,0,.35-.28.38-.45C201.54,360.15,201.64,359.1,201.74,358.19ZM68,355.25c.45-.14.46-.54.5-.9a11.54,11.54,0,0,1,2.18-5.53,10.48,10.48,0,0,1,7.44-4.3,8.64,8.64,0,0,1,3.94.36c.71.22,1.36.48,2,.71a.71.71,0,0,1,.59.81.24.24,0,0,1,0,.12c-.09.66-.22,1.31-.37,2s-.49.61-1,.31-.88-.62-1.36-.88a6.6,6.6,0,0,0-3.22-.89,6.28,6.28,0,0,0-5.21,2.56,10,10,0,0,0-2.13,7.06c.21,2.82,2.13,4.23,4.88,4.05a10.05,10.05,0,0,0,5.12-1.81c.17-.12.51-.22.61-.14a.85.85,0,0,1,.22.64,14.06,14.06,0,0,1-.37,1.71,1.71,1.71,0,0,1-1.21,1.16,14.49,14.49,0,0,1-5.36,1.09,8.08,8.08,0,0,1-4.11-1,7.87,7.87,0,0,1-1.82-1.73,3.81,3.81,0,0,1-.85-2.21.87.87,0,0,0-.55-.86Zm200.23-12.48c-.59,0-1.19.06-1.78.11a1.23,1.23,0,0,0-1,.71c-1.27,2.21-2.59,4.41-3.81,6.65-.87,1.58-1.59,3.25-2.42,4.85a11.77,11.77,0,0,0-1.05,3.18,4.3,4.3,0,0,0,.25,2.76,2,2,0,0,0,2.58,1.11,1.92,1.92,0,0,0,.35-.18,11.63,11.63,0,0,0,4-4c.57-.84,1-1.75,1.53-2.65a.8.8,0,0,1,1-.48.94.94,0,0,1,.22.12c.42.25.59.2.66-.27a11.73,11.73,0,0,1,1.49-4.08,20.25,20.25,0,0,1,2.35-3.53,12,12,0,0,1,3.86-3.22A13.07,13.07,0,0,1,279,343a3.17,3.17,0,0,1,2.66.71,18.53,18.53,0,0,1,2.27,2.16,3,3,0,0,1,.5,2.67,8.38,8.38,0,0,1-1.21,3.19,10,10,0,0,1-2.83,3,5.72,5.72,0,0,1-5.26.8,7,7,0,0,1-1.42-.71c-.56-.34-.82-.27-1.07.35a9,9,0,0,0-.4,3.92,3.59,3.59,0,0,0,1.09,2.27,2.94,2.94,0,0,0,2.54.89A10.08,10.08,0,0,0,281,360a19.27,19.27,0,0,0,4.05-4.54c.05-.08.1-.19.17-.22.24-.09.52-.28.71-.2a.75.75,0,0,1,.34.62,3.85,3.85,0,0,1-.71,2.25,12.86,12.86,0,0,1-4.72,4.28,11.16,11.16,0,0,1-6.5,1.41,6.1,6.1,0,0,1-4.62-2.69,4.53,4.53,0,0,1-1-2.73,1.9,1.9,0,0,0-.16-.77c-.15-.41-.45-.44-.71-.09a1.39,1.39,0,0,0-.21.4,8.23,8.23,0,0,1-2.41,3.34,10.08,10.08,0,0,1-3.78,2.33,4.82,4.82,0,0,1-5.4-1.71,6.45,6.45,0,0,1-.84-4.46,15.79,15.79,0,0,1,1.92-5.52c.52-1,1-2,1.46-3,.24-.51.51-1,.78-1.51.51-.95,1-1.92,1.57-2.87.26-.45.1-.7-.46-.93s-1.42-.6-2.07-.92a1,1,0,0,1-.3-.28.66.66,0,0,1-.12-.72.64.64,0,0,1,.62-.39h1.71c.57,0,1.27-.05,1.91-.09a1.19,1.19,0,0,0,.95-.65c1-1.65,2-3.3,3-4.94a5.38,5.38,0,0,1,.57-.76c.41-.44,1-.39,1.12.17a6.27,6.27,0,0,1,.3,2.19,9.31,9.31,0,0,1-.56,2.27c-.27.79-.12,1.07.71,1.24a3,3,0,0,1,1.85,1.12.83.83,0,0,1,.21.92c-.16.33-.49.37-.82.37h-1.29Zm6.84,11a5.43,5.43,0,0,0,3.34-1.76,14.61,14.61,0,0,0,2.42-3.26,5.94,5.94,0,0,0,.95-2.36c.07-.71-.42-1.48-1.42-1a13.46,13.46,0,0,0-4.66,4.05c-.71.89-1.28,1.9-1.91,2.86a.74.74,0,0,0-.15.64.76.76,0,0,0,.42.52A6.58,6.58,0,0,0,275.07,353.72Zm-32.69,5.16a8.41,8.41,0,0,1,.44-2.68,16.11,16.11,0,0,1,2.23-4.56c.79-1.14,1.7-2.22,2.55-3.32q.28-.37.54-.78a1,1,0,0,0,.05-.3.69.69,0,0,0-.35,0c-.48.16-1,.4-1.41.54-.83.22-1.67.41-2.52.55a1.71,1.71,0,0,0-1.41,1c-.76,1.52-1.47,3.07-2.3,4.55a25.32,25.32,0,0,1-4,5.49,28.46,28.46,0,0,1-3.19,2.82,7.37,7.37,0,0,1-4.13,1.49,3.31,3.31,0,0,1-3.55-2.83,5.57,5.57,0,0,1,.06-2.69c.29-1,.46-2.12.83-3.12s1-2.18,1.49-3.26a19.89,19.89,0,0,1,1-1.95c1.12-1.84,2.24-3.69,3.42-5.49.58-.9,1.21-.8,1.64.21a4.47,4.47,0,0,1,.19,2.82,13,13,0,0,1-1.31,3.35c-.77,1.42-1.6,2.75-2.33,4.15a18.38,18.38,0,0,0-2,5.19,2.3,2.3,0,0,0,.09,1.22c.35.92.84,1.08,1.78.79a9.62,9.62,0,0,0,3.26-2,18.49,18.49,0,0,0,3.61-4.23c.83-1.29,1.61-2.61,2.37-3.94.33-.59.56-1.23.84-1.84a10.19,10.19,0,0,1,.43-.95.94.94,0,0,0-.11-1.12l-.12-.09c-1.23-1-1-2.28-.49-3.53a8.81,8.81,0,0,1,2.45-3.4,4.53,4.53,0,0,1,1.3-.79,1,1,0,0,1,1,.05,1,1,0,0,1,.44.87,7.7,7.7,0,0,1-.19,1.85c-.13.65-.36,1.3-.55,1.95,0,.17-.11.34-.15.51-.13.56.17.84.71.71a8.86,8.86,0,0,0,1.42-.5c1-.52,2-1.1,2.93-1.65a6.16,6.16,0,0,1,.71-.4.86.86,0,0,1,1.08.29,6.43,6.43,0,0,1,1.13,2.19,3,3,0,0,1-.61,2.68c-.71.88-1.42,1.71-2.09,2.63-.89,1.29-1.72,2.63-2.55,4a10.29,10.29,0,0,0-1.42,3.86,4.05,4.05,0,0,0,.17,2,1.63,1.63,0,0,0,.76,1,1.68,1.68,0,0,0,1.26.18,1.54,1.54,0,0,0,.58-.27,9.76,9.76,0,0,0,3.49-3.67c.54-.87,1-1.81,1.42-2.72.13-.25.25-.51.6-.47s.48.3.53.61a4.78,4.78,0,0,1-.42,2.66,8.14,8.14,0,0,1-2.51,3.35,7.14,7.14,0,0,1-4.15,1.75,4.51,4.51,0,0,1-4.33-2.38,5.33,5.33,0,0,1-.57-2.32ZM132.56,345h3.2c.64,0,.92-.14,1.1-.74.3-1,.55-2.09.81-3.13.33-1.31.35-1.33,1.7-1.33h.71c.54,0,.8.32.71.85-.2.93-.45,1.85-.67,2.78-.06.21-.11.42-.16.64-.12.61.11.9.71.92a10.67,10.67,0,0,0,1.13,0h3.37c.63,0,.87.27.79.88a2.66,2.66,0,0,1-.12.56c-.34,1-.56,1.12-1.58,1.11H140a.84.84,0,0,0-.64.14.89.89,0,0,0-.35.56c-.71,3.09-1.46,6.18-2.2,9.27a2.79,2.79,0,0,0,.34,2.38,1.8,1.8,0,0,0,1,.7,6.57,6.57,0,0,0,3.38-.11l.24-.07c.54-.11.82.1.71.63a6,6,0,0,1-.53,1.59,1.13,1.13,0,0,1-.71.46,25.81,25.81,0,0,1-3.4.26,5.64,5.64,0,0,1-2.29-.49,3.3,3.3,0,0,1-2-3.08,15.84,15.84,0,0,1,.71-4.49c.35-1.34.64-2.69,1-4,.21-.88.42-1.77.71-2.64s0-1.15-.87-1.13h-6.38c-.78,0-1,.14-1.21.9l-2.13,9a2.88,2.88,0,0,0,.37,2.53,1.79,1.79,0,0,0,.9.63,6.61,6.61,0,0,0,3.42-.1l.4-.09c.37,0,.66.16.58.51a7.59,7.59,0,0,1-.62,1.81c-.1.22-.5.34-.78.39-.71.12-1.42.19-2.13.26a6.76,6.76,0,0,1-3.12-.34,3.32,3.32,0,0,1-2.3-3.37,13.92,13.92,0,0,1,.38-3.15c.51-2.35,1.13-4.67,1.71-7,.09-.34.19-.7.29-1,.17-.61-.07-.93-.71-.95a3.08,3.08,0,0,1-.53,0,.61.61,0,0,1-.57-.64v-.15c.08-.35.18-.7.27-1a.8.8,0,0,1,.33-.54.78.78,0,0,1,.63-.1c1.09.18,1.34-.25,1.58-1.13.29-1,.52-2.12.79-3.14.19-.77.4-.91,1.19-.91h1.08c.55,0,.81.3.71.83-.12.7-.29,1.35-.45,2-.12.47-.26.94-.38,1.42a.67.67,0,0,0,.66.92h3.48Zm167.75,18.73a4,4,0,0,1-3.2-1A3.64,3.64,0,0,1,296,360.1a9.92,9.92,0,0,1,.48-3.38,35.26,35.26,0,0,1,2.38-5.19c.44-.87,1-1.68,1.49-2.53s1-1.67,1.42-2.52a.48.48,0,0,0,0-.61.49.49,0,0,0-.6-.14,2.7,2.7,0,0,0-.71.33,21.48,21.48,0,0,0-6.52,5.7,33.89,33.89,0,0,0-3.43,5.57c-.57,1.13-1.16,2.25-1.72,3.39-.32.67-.6,1.36-.9,2-.14.32-.28.6-.71.63s-.6-.22-.81-.53a4.71,4.71,0,0,1-.21-4.24c.1-.37.19-.75.31-1.11a7.81,7.81,0,0,1,.35-.84c.34-.76.66-1.54,1-2.29.71-1.38,1.44-2.74,2.19-4.1.57-1,1.18-2.06,1.79-3.07.71-1.2,1.5-2.39,2.26-3.57a1.69,1.69,0,0,1,.28-.32.57.57,0,0,1,.38-.22.55.55,0,0,1,.43.12.48.48,0,0,1,.2.27,4.28,4.28,0,0,1,.47,2.89,3.58,3.58,0,0,0-.09.45.69.69,0,0,0,.17.5.64.64,0,0,0,.52-.09c.49-.41.92-.9,1.42-1.28a27.53,27.53,0,0,1,3.16-2.21,2.58,2.58,0,0,1,3.88,1.16,3.5,3.5,0,0,1,.39,2.59,7.36,7.36,0,0,1-.62,1.48c-.47.9-1,1.77-1.47,2.65s-1.17,2-1.74,3a23.19,23.19,0,0,0-1.13,2.08,7.52,7.52,0,0,0-.92,4.11,1.53,1.53,0,0,0,1.59,1.41,1.47,1.47,0,0,0,.54-.13,6.31,6.31,0,0,0,2.67-2,25.79,25.79,0,0,0,3-4.44c.16-.28.32-.66.71-.54a.75.75,0,0,1,.5.9,7.48,7.48,0,0,1-.48,2.09,10.6,10.6,0,0,1-4.43,4.75,5.44,5.44,0,0,1-3.22.82Zm-72.22-28.07a9.06,9.06,0,0,1-1.1,4.52,29.87,29.87,0,0,1-1.41,2.76,25.7,25.7,0,0,1-3.66,4.94,34.05,34.05,0,0,1-4.56,4.18l-.55.38a2.35,2.35,0,0,0-1,1.37c-.24.81-.53,1.63-.83,2.42a12.44,12.44,0,0,0-.63,3.41,4.41,4.41,0,0,0,.12,1.15,1.75,1.75,0,0,0,2,1.46,1.59,1.59,0,0,0,.47-.14,8.59,8.59,0,0,0,2.24-1.37,15.55,15.55,0,0,0,3.6-4.19c.28-.44.51-.92.8-1.35s.42-.79.92-.63.44.64.4,1a6.86,6.86,0,0,1-1.74,4.12,13.45,13.45,0,0,1-3.85,3.06,6.18,6.18,0,0,1-5.22.49A3.68,3.68,0,0,1,212,361.2a7,7,0,0,1-.45-2.12,15.58,15.58,0,0,1,.84-5.5c.29-1,.51-1.95.87-2.89.56-1.46,1.18-2.89,1.82-4.31.52-1.13,1.07-2.24,1.67-3.33a35.47,35.47,0,0,1,2.13-3.47c1.42-1.92,2.83-3.8,4.3-5.64a19.17,19.17,0,0,1,1.51-1.61,1.5,1.5,0,0,1,.95-.53,1.42,1.42,0,0,1,1.05.29,1.78,1.78,0,0,1,.32.35A3.92,3.92,0,0,1,228.09,335.64Zm-10.4,14.12.13.12a4.64,4.64,0,0,0,.8-.6c1-1.11,2.13-2.21,3-3.39a23.46,23.46,0,0,0,2.27-3.32,46.26,46.26,0,0,0,2-4.34,2.47,2.47,0,0,0,.19-1,.4.4,0,0,0-.7-.3,1.39,1.39,0,0,0-.32.32c-1.08,1.56-2.2,3.08-3.23,4.66-.77,1.18-1.42,2.43-2.13,3.65-.57,1-1.14,1.95-1.7,2.94a2.23,2.23,0,0,0-.39,1.25ZM365.1,357a14.38,14.38,0,0,1,1.34-6,11.92,11.92,0,0,1,3.42-4.42,8.41,8.41,0,0,1,2.13-1.34,8.63,8.63,0,0,1,4.6-.61c.63.11,1.26.24,1.87.39a3.24,3.24,0,0,1,.83.37c.54.34,1,.22,1.15-.41s.3-1.46.48-2.18c.33-1.41.71-2.82,1.05-4.18.18-.71.46-.86,1.18-.84h1.12c.38,0,.71.2.66.66a7.22,7.22,0,0,1-.2,1.22c-.32,1.41-.66,2.82-1,4.19-.36,1.55-.71,3.11-1.05,4.65-.48,2.06-1,4.12-1.49,6.19q-.87,3.62-1.71,7.29c-.2.84-.43,1.05-1.28,1.06a11.22,11.22,0,0,1-1.16,0c-.52-.05-.71-.25-.71-.75s-.21-.77-.8-.5-1.11.63-1.67.91a7,7,0,0,1-4.86.53,4.87,4.87,0,0,1-3.31-2.73A8.7,8.7,0,0,1,365.1,357Zm6.82,3.7a18.85,18.85,0,0,0,2.22-.53,14.15,14.15,0,0,0,2.32-1.2,2.19,2.19,0,0,0,.89-1,19.09,19.09,0,0,0,.65-2.47c.5-2.09,1-4.17,1.48-6.25.19-.78.11-1.16-.66-1.41a11.55,11.55,0,0,0-3.14-.71c-3-.12-5,1.55-6.28,4.16a11.69,11.69,0,0,0-1,6.22,2.94,2.94,0,0,0,1.63,2.7,11.6,11.6,0,0,0,1.94.44Zm-258.64-16.2a9.75,9.75,0,0,1,3.9.55,3.86,3.86,0,0,1,2.74,4.71c-.71,3.16-1.49,6.28-2.23,9.43-.22.9-.42,1.8-.63,2.7s-.42,1.08-1.38,1.07H114.6c-.37,0-.59-.29-.57-.7a3.27,3.27,0,0,0,0-.53.51.51,0,0,0-.18-.38.62.62,0,0,0-.42.07c-.75.4-1.47.88-2.26,1.22a8.07,8.07,0,0,1-5.72.4,3.93,3.93,0,0,1-2.23-1.83,5.35,5.35,0,0,1-.35-4.49,6.41,6.41,0,0,1,3.25-3.77,14.59,14.59,0,0,1,5.53-1.53c1.38-.16,2.76-.28,4.14-.41.66-.07.91-.3,1-1a2.22,2.22,0,0,0-1.85-2.65,7.9,7.9,0,0,0-4.26,0c-1.09.3-2.2.57-3.29.85-.49.13-.79-.08-.71-.59a9.86,9.86,0,0,1,.39-1.69,1.17,1.17,0,0,1,1-.83c1.73-.25,3.47-.46,5.2-.71Zm-4.2,16a5,5,0,0,0,2.48-.38c.76-.35,1.54-.7,2.29-1.09a2.35,2.35,0,0,0,1.31-1.62c.21-1,.49-2,.7-3.06.17-.66-.21-1.05-.89-.95-.53.07-1.07.15-1.6.19a14.57,14.57,0,0,0-5.36,1.24,3.68,3.68,0,0,0-2.18,2.78,2.31,2.31,0,0,0,1.66,2.82,2.24,2.24,0,0,0,.51.07Zm-11.93,2.43a5.21,5.21,0,0,1-.79,0,.61.61,0,0,1-.64-.56v-.14a8.5,8.5,0,0,1,.16-1c.26-1.15.53-2.31.78-3.47.45-2.06.93-4.12,1.34-6.2a5.24,5.24,0,0,0,.07-2.58,2.12,2.12,0,0,0-1.74-1.63,6.17,6.17,0,0,0-4,.54q-1.06.52-2.13,1.08a2,2,0,0,0-1,1.38q-.87,4-1.79,7.91c-.29,1.26-.6,2.5-.91,3.74-.2.82-.38,1-1.21.93h-1c-.57,0-.82-.28-.74-.84a15.28,15.28,0,0,1,.35-1.66c.32-1.36.65-2.71,1-4.07.52-2.21,1-4.42,1.5-6.63s1-4.45,1.51-6.67c.34-1.51.71-3,1.07-4.51a1,1,0,0,1,1-.89h1.21c.65,0,.89.33.78,1-.06.39-.15.78-.24,1.18l-.84,3.46c-.21.89-.44,1.79-.63,2.69,0,.18,0,.48.12.55a.73.73,0,0,0,.56-.08c.71-.4,1.42-.88,2.13-1.23a7.13,7.13,0,0,1,4.78-.63,6.35,6.35,0,0,1,1.87.76,4,4,0,0,1,1.77,3.82,21,21,0,0,1-.8,4.52c-.62,2.68-1.23,5.36-1.88,8-.3,1.41-.47,1.24-1.6,1.2Zm57.34-8.65h-5.62c-.91,0-1.2.29-1.21,1.19a5.86,5.86,0,0,0,.29,2.24,4.26,4.26,0,0,0,3.26,2.79,10.62,10.62,0,0,0,6.34-.71c.47-.18.9-.42,1.35-.64a2.06,2.06,0,0,1,.26-.12c.58-.2.83,0,.71.61-.08.45-.17.89-.25,1.34a1.59,1.59,0,0,1-1.23,1.28,17.19,17.19,0,0,1-6.11,1.09,10.12,10.12,0,0,1-4.43-1,5.8,5.8,0,0,1-3-3.53,12.33,12.33,0,0,1,.71-7.49,13.43,13.43,0,0,1,2.28-3.45,10.72,10.72,0,0,1,3.84-2.7,10.36,10.36,0,0,1,2.7-.66,7.48,7.48,0,0,1,5.4,1.16,4.72,4.72,0,0,1,2.06,3.93,24.73,24.73,0,0,1-.32,3.74c-.12.76-.49,1-1.27,1h-5.67Zm-1-2.32h3.83c1.31,0,1.49-.2,1.49-1.51a3.4,3.4,0,0,0-3.29-3.49,6.85,6.85,0,0,0-6.84,3.86c-.44.79-.2,1.14.71,1.14Zm241.2,2.32h-5.63c-.91,0-1.21.28-1.21,1.19a5.09,5.09,0,0,0,1.08,3.6,4.36,4.36,0,0,0,2.31,1.41,9.38,9.38,0,0,0,5.52-.38c.82-.3,1.6-.66,2.41-1a2.24,2.24,0,0,1,.39-.14c.37-.07.61.13.55.51-.1.6-.21,1.2-.36,1.78a1.6,1.6,0,0,1-1.19,1,17.42,17.42,0,0,1-6.31,1.08,8.88,8.88,0,0,1-5.27-1.67,5.38,5.38,0,0,1-2.08-3.29,12.86,12.86,0,0,1,.12-5,10.37,10.37,0,0,1,1.3-3.2,14,14,0,0,1,2-2.58,10.09,10.09,0,0,1,5.56-2.93,8.78,8.78,0,0,1,5,.43,5,5,0,0,1,2.43,2.12,6.66,6.66,0,0,1,.66,4.29,16.47,16.47,0,0,1-.26,1.85c-.17.81-.45,1-1.28,1h-4.68Zm-.95-2.32h4.33c.42,0,.83-.13.9-.57a4.26,4.26,0,0,0-.17-2.29,3.39,3.39,0,0,0-3-2.11,6.57,6.57,0,0,0-6,2.47,8.82,8.82,0,0,0-1,1.65c-.26.51,0,.81.55.85Zm27.19.09c-.41,1.62-.84,3.24-1.23,4.86s-.71,3-1.05,4.52c-.05.2-.08.41-.14.6a1.08,1.08,0,0,1-1.17.91h-1.28a.63.63,0,0,1-.52-.22.6.6,0,0,1-.11-.56c.09-.49.25-1,.37-1.53.35-1.41.71-2.87,1-4.31s.62-2.66,1-4a8.24,8.24,0,0,0,.2-3.24,1.94,1.94,0,0,0-1.42-1.61,5,5,0,0,0-3.54.18c-1.05.43-2.05,1-3.05,1.52a1.36,1.36,0,0,0-.66,1c-.4,1.65-.83,3.29-1.23,4.94s-.71,3.16-1.06,4.73c-.18.79-.36,1.56-.55,2.34a1,1,0,0,1-.92.78c-.5,0-1,0-1.49,0s-.82-.35-.71-.93c.24-1.09.54-2.17.8-3.26.13-.49.24-1,.36-1.49.36-1.41.71-2.86,1.08-4.29.31-1.24.6-2.49.89-3.74l.83-3.53a.85.85,0,0,1,.8-.71h1.77a.58.58,0,0,1,.39.15.52.52,0,0,1,.16.37.28.28,0,0,1,0,.13v0c.05.22.07.61.16.62a1,1,0,0,0,.77-.13,8.82,8.82,0,0,1,4-1.61,5.54,5.54,0,0,1,4.6,1.05,8.62,8.62,0,0,1,1,1.24c.06.09.1.25.18.26.71,1.19-.18,4.72-.23,4.94Zm-240.86-2.95c-.14.77-.25,1.56-.42,2.32-.61,2.72-1.24,5.43-1.87,8.15-.22.88-.44,1.77-.68,2.65a.88.88,0,0,1-.84.7,9.9,9.9,0,0,1-1.54,0c-.6,0-.78-.35-.63-.94s.25-.91.35-1.36q.81-3.47,1.59-6.91a11.93,11.93,0,0,0,.41-1.56,26,26,0,0,0,.19-2.93,2,2,0,0,0-1.56-1.78,5.66,5.66,0,0,0-4,.46c-.78.36-1.54.77-2.3,1.17a1.92,1.92,0,0,0-1,1.37c-.35,1.59-.71,3.15-1.09,4.73s-.71,3-1.07,4.55c-.22.87-.44,1.74-.67,2.61a.71.71,0,0,1-.66.6,12.78,12.78,0,0,1-1.75,0c-.49,0-.65-.29-.56-.77s.15-.76.24-1.13l1.23-5,.14-.57c.5-2.11,1-4.23,1.49-6.35.21-.91.44-1.82.66-2.73a5.06,5.06,0,0,1,.17-.67,1.06,1.06,0,0,1,1.19-.82h1.2c.4,0,.63.18.67.66,0,.27,0,.65.21.77s.61-.09.89-.26c2.35-1.52,4.86-2.19,7.53-1.06a3.83,3.83,0,0,1,2.33,3.34,4.69,4.69,0,0,1,0,.75Zm179.08,1v-.75a2.13,2.13,0,0,0-1.61-2,5.23,5.23,0,0,0-3.51.26c-1,.41-1.92.92-2.84,1.41a1.65,1.65,0,0,0-.82,1.15c-.41,1.75-.84,3.52-1.25,5.27-.34,1.48-.66,3-1,4.44-.19.77-.4,1.52-.6,2.29a.8.8,0,0,1-.79.7,11,11,0,0,1-1.62,0c-.53-.05-.71-.34-.59-.87.4-1.71.77-3.42,1.18-5.12.53-2.18,1.1-4.34,1.63-6.5.33-1.34.62-2.69.93-4,.05-.19.08-.38.14-.57a1.14,1.14,0,0,1,1.3-.91h1.17c.39,0,.63.18.66.65,0,.28-.14.71.22.76a1.25,1.25,0,0,0,.85-.26,9.3,9.3,0,0,1,3.3-1.41,7,7,0,0,1,3.62.09,4.13,4.13,0,0,1,2.95,3.58,10.41,10.41,0,0,1-.22,2.67c-.57,2.65-1.23,5.27-1.85,7.91-.25,1.07-.49,2.12-.75,3.22a1,1,0,0,1-.91.79,11,11,0,0,1-1.62,0,.57.57,0,0,1-.56-.77c.09-.47.24-.88.35-1.32.47-1.92.92-3.84,1.37-5.76.27-1.15.55-2.28.79-3.43a12.33,12.33,0,0,0,.15-1.49ZM336,344.93h1.92c.52,0,.71.31.61.82a8.55,8.55,0,0,1-.36,1.19.83.83,0,0,1-.9.51h-3.51c-.86,0-1,.19-1.17,1-.27,1.37-.6,2.74-.91,4.11-.37,1.59-.75,3.17-1.12,4.75s-.65,2.92-1,4.36c-.26,1.11-.47,1.27-1.6,1.27a6.49,6.49,0,0,1-1.08,0c-.47-.06-.62-.27-.61-.71a1.26,1.26,0,0,1,.05-.33c.24-.93.51-1.86.7-2.82.3-1.27.57-2.54.86-3.8.38-1.64.78-3.28,1.17-4.94.16-.71.33-1.41.51-2.12.12-.47-.06-.76-.55-.81a5.63,5.63,0,0,1-.71,0c-.37-.05-.61-.26-.55-.64a7.08,7.08,0,0,1,.29-1.29.85.85,0,0,1,.85-.54c1.34-.05,1.42-.17,1.74-1.41a7.82,7.82,0,0,1,3.33-4.82,8,8,0,0,1,5.56-1.07c.3,0,.6.08.9.14a.75.75,0,0,1,.71.82,1.29,1.29,0,0,1,0,.19,13.24,13.24,0,0,1-.41,1.26.63.63,0,0,1-.77.44c-.41-.09-.82-.18-1.23-.25a4.06,4.06,0,0,0-4.77,2.79c-.1.32-.25.64-.37,1-.21.6,0,.91.61.95s1.22,0,1.83,0Zm2.07,18h-.87a.57.57,0,0,1-.59-.54v-.16c.1-.62.23-1.24.37-1.87s.29-1.12.42-1.68c.49-2.12,1-4.2,1.48-6.28.33-1.35.71-2.67,1-4,.22-.87.4-1.75.62-2.61s.42-.92,1.25-.9a11.74,11.74,0,0,1,1.33.05c.44.05.58.25.53.7a12.22,12.22,0,0,1-.27,1.34q-1.31,5.41-2.63,10.82c-.33,1.37-.63,2.74-1,4.09-.3,1-.43,1.08-1.52,1.07H338Z" transform="translate(-68 -134)"/><path id="Shape-2" data-name="Shape" class="cls-1" d="M237.61,341.22a3.25,3.25,0,0,1-.65,1.9,1.2,1.2,0,0,1-1.34.44,2.34,2.34,0,0,1-.88-.5,3.25,3.25,0,0,1-1-2.83,2.26,2.26,0,0,1,1.14-1.73,1.14,1.14,0,0,1,.83-.1A3,3,0,0,1,237.61,341.22Zm79.72,13.07h-1a.56.56,0,0,1-.62-.46V351.6c0-.45.24-.64.71-.65h1.83c.61,0,.79.24.81.79s0,1.24,0,1.86c0,.45-.24.64-.71.66h-1Zm-128.21,0h-1a.54.54,0,0,1-.45-.16.62.62,0,0,1-.18-.44v-2a.61.61,0,0,1,.14-.47.65.65,0,0,1,.42-.24h2.1a.69.69,0,0,1,.48.13.66.66,0,0,1,.23.43.38.38,0,0,1,0,.15v1.94a.56.56,0,0,1-.49.65Zm154.6-15.53h1c.53.05.71.36.56.87s-.25.93-.38,1.41a1,1,0,0,1-1.09.86h-1.71c-.57,0-.71-.26-.65-.71.12-.6.28-1.21.46-1.8a.86.86,0,0,1,.9-.59Z" transform="translate(-68 -134)"/></g><g id="Group-2" data-name="Group"><path id="Shape-3" data-name="Shape" class="cls-2" d="M201.11,240.09v-3.92a2.38,2.38,0,0,0-.58-1.75v-.16a3.88,3.88,0,0,1-.07-1.59,2.12,2.12,0,0,0,0-.71,1.26,1.26,0,0,0-.62-1.22,1.14,1.14,0,0,1-.09-.26,1.62,1.62,0,0,0-.62-1.61l-.06-.23a1.18,1.18,0,0,0-.66-1.16v-.92c0-.48-.15-.85-.67-.94v-.05c.18-.8-.46-1.19-.85-1.7V224a.6.6,0,0,0-.21-.21l.19.09c0-.33-.29-.39-.51-.51a.35.35,0,0,0,0,.14c0-.09-.08-.17-.12-.26l.09.13a1.27,1.27,0,0,0-.71-1.19c0,.08.08.16.12.25l-.09-.13a1.52,1.52,0,0,0-.09-.28l.09.16a2.27,2.27,0,0,0-1.2-2.05l.21.35-.21-.22a.32.32,0,0,1-.16-.33.84.84,0,0,0-.08-.27l.08.14a1.14,1.14,0,0,0-.71-1.2.81.81,0,0,0,.11.27l-.11-.14a3,3,0,0,0-1-1.19,2,2,0,0,1-.28-.23.71.71,0,0,0,.31.1c-.23-.32-.42-.64-.86-.71l.21.31a1.08,1.08,0,0,0-.24-.18l-.16-.16a1,1,0,0,1-.11-.28l.14.18a1.22,1.22,0,0,1,.22-.87l.09-.06.33-.17a2.7,2.7,0,0,0,.39-.08.8.8,0,0,0,.77-.4h0l.34-.17a1.35,1.35,0,0,0,.46-.24,14.5,14.5,0,0,0,1.76-.78c.32-.21.86-.37.88-.89l.14-.14.11-.1a.67.67,0,0,0,.59-.71.58.58,0,0,0-.59-.58c-1,0-2.13-.37-3,.65a.45.45,0,0,0,.22,0c-.08,0-.17.08-.25.14a2.92,2.92,0,0,0-.59,0,4.26,4.26,0,0,1,.62-.13,2.3,2.3,0,0,0-2.56,1.19l.17-.13a1.5,1.5,0,0,0-.2.23l-.34.17c-.29,0-.71.25-.86,0,.13.13.38.06.89-.12-.29-.09-.93.28-.71-.38.11-.44.27-.83-.23-.91s-1.19-.41-1.42.44l.14-.09a.72.72,0,0,0-.17.22l-.34.17a1.77,1.77,0,0,1-1.2,0,2.89,2.89,0,0,0-.51-.35l.54.25a1.41,1.41,0,0,0-1.53-.71l.56.26a3,3,0,0,0-.59-.16l-.31-.18a1.5,1.5,0,0,1,.34.11,1.92,1.92,0,0,0-1.88-.71l.32.14-.35-.07-.25-.14.28.09a2.25,2.25,0,0,0-2.05-.7l.26.08-.29,0-.1-.06.13,0A2.14,2.14,0,0,0,180,210l.1,0H180c-.71-.94-1.78-.63-2.72-.71l.49.1a.68.68,0,0,1-.52-.09.35.35,0,0,1-.34-.15,5.77,5.77,0,0,0-3.48-1.2h-.1a2.43,2.43,0,0,0-2.13-.7H171a2.35,2.35,0,0,0-.43-.19,4.49,4.49,0,0,0-2.22-.47c-2,.06-4,0-6,.17a3.72,3.72,0,0,0-1.78.46h-.13a.8.8,0,0,1-.21.05c-1.35.06-2.85-.35-4.05.62-.15.11-.44,0-.67,0h-3a2.21,2.21,0,0,0-1.23.3,3,3,0,0,1-1.62.4c-1.72,0-3.44,0-5.17.1-1.07.08-2,.68-3.06.58-1.43-.12-2.76.94-4.27.76a.38.38,0,0,0-.23.11,2.32,2.32,0,0,1-1.83.49c-.31,0-.65-.09-.91.12-1.14,1-2.84.15-3.93,1.18l-.28,0h-.32a7.88,7.88,0,0,0-5,1.21.86.86,0,0,1-.56.14c-1.49-.32-2.78.48-4.08.85a11.79,11.79,0,0,1-3.82.51,2.12,2.12,0,0,0-1.82.65l-.13,0a2.87,2.87,0,0,0-2.37.71c-.71.05-1.47-.26-2,.12-1.07.74-2.22.51-3.36.55a2,2,0,0,0-1.22.25,2.69,2.69,0,0,1-1.7.44H93.9a2.59,2.59,0,0,0-2.13-.66,1.87,1.87,0,0,1-1.42-.53c-.82-.71-1.1-1.83-1.86-2.54h0v-4.08a1.29,1.29,0,0,0-.17.16.64.64,0,0,1,.13-.15l.05.05a2.81,2.81,0,0,0,.71-1.54,11.17,11.17,0,0,1,.77-2.84,3.38,3.38,0,0,0,.54-1.77,1.21,1.21,0,0,0,.71-1.36A19.74,19.74,0,0,0,94,198.71c.3-.58.88-1.06.71-1.81a.82.82,0,0,0,.51-.71,25.18,25.18,0,0,0,3.61-3.54,10.52,10.52,0,0,1,2.93-3.33,10.28,10.28,0,0,0,2.45-2.92,11.61,11.61,0,0,1,2.26-2.49c.51-.4,1.28-.7,1.23-1.56v-.21a.17.17,0,0,0,0-.1c1.38.12,1.81-1,2.38-1.88l.17-.17c.66.13,1.15-.32,1.62-.57a3.56,3.56,0,0,0,1.93-2.16,2,2,0,0,0,.71-.71,2.25,2.25,0,0,0,1.84-1.19V175a.33.33,0,0,0,0,.19,1.25,1.25,0,0,0,1-.37,6.55,6.55,0,0,0,1.75-2.56c.3-.14.46-.47.84-.51a2.28,2.28,0,0,0,2-1.62,1.48,1.48,0,0,1,1.43-1.11,2.23,2.23,0,0,0,1.88-1.17v-.17h.05c.35,0,.63-.07.71-.51h0s-.08-.05,0-.15H126c.48,0,.71-.31,1-.66.48,0,.71-.3,1-.71h0a.83.83,0,0,0,.86-.51h-.05l.33-.17c.71.08,1-.31,1-.94V163l.12,0a6.42,6.42,0,0,0,1.24,0,2.83,2.83,0,0,0,1.95-1.06l.08-.06.34-.17.12-.07a.89.89,0,0,0,.88-.47l.32-.17.16-.08a1.61,1.61,0,0,0,1.25-1.15l.14-.13.14-.07a1.07,1.07,0,0,0,.89-.64h.13c.47,0,.87,0,1.1-.52l1-.83v0a.83.83,0,0,0,.86-.51l.36-.17c1.28-.28,2.07-1.3,3-2a17.61,17.61,0,0,0,3.22-1.61A32.44,32.44,0,0,0,150.7,151a.61.61,0,0,0,.37-.1,3.32,3.32,0,0,0,.67-.23,1.26,1.26,0,0,0,.51-.32l.19-.16a3.31,3.31,0,0,0,.42-.12,1.36,1.36,0,0,0,.8-.48l.14-.11a1.89,1.89,0,0,0,.34-.09,1.32,1.32,0,0,0,.94-.55l.09-.07.23-.11a4.08,4.08,0,0,0,1.88-1l.11-.06.34-.17a.24.24,0,0,1,.11-.06,1.75,1.75,0,0,0,.82-.08c.71-.53,1.6-.71,2.34-1.18l.14,0,.28,0c.61,0,1.23,0,1.58-.65l.19,0c.49,0,.78-.34,1.13-.66h.05v0a2.09,2.09,0,0,0,1.71-.56,2.35,2.35,0,0,1,2-.89,2.92,2.92,0,0,0,2.28-.46,2,2,0,0,1,1.06-.21,10.31,10.31,0,0,0,2.95-1.06c.9-.38,1.66-1.16,2.78-1a1.65,1.65,0,0,0,1.25-.14,4.38,4.38,0,0,1,2.13-.54c2.59-.3,5.07.44,7.61.71a1.27,1.27,0,0,1,.65.36,9.57,9.57,0,0,1,1.68,2.49,1.29,1.29,0,0,1,.36.83c-.13,1.34.18,2.65.18,4a19.26,19.26,0,0,0-.18,2.84.35.35,0,0,0-.17.35c-.4,0-.52.25-.52.62v1.08a.11.11,0,0,0,0-.08.14.14,0,0,1,0,.09v0c-.8.55-.66,1.42-.66,2.16l-.08.1.05-.09a1.33,1.33,0,0,0-.71,1.53l.08-.17v.14c0,.05-.07.12-.11.17a.58.58,0,0,0,.05-.14c-.58.34-.63.93-.71,1.53a.72.72,0,0,0,.11-.19.64.64,0,0,1-.05.17v0c-.39.15-.45.58-.55.87-.42,1.42-.05,3,1.93,3l-.1-.06h.1a.36.36,0,0,0,.37.14l.13.1h-.16a.81.81,0,0,0,.71.51h1.51l-.66-.16a2.83,2.83,0,0,1,.71.1l.14.12a.85.85,0,0,0-.17-.06,1.14,1.14,0,0,0,1.19.71l-.16-.1a.65.65,0,0,0,.19,0h.71a1,1,0,0,1-.22.08,1.42,1.42,0,0,0,1.53-.86h-.08l.11-.09.13-.13a2.75,2.75,0,0,0,1.55-2.84,15.22,15.22,0,0,1,0-1.91.32.32,0,0,1,.17-.34l.06,0c.71-.22.35-.86.44-1.31.61-.13.66-.61.67-1.1v-7.5a.92.92,0,0,0-.53-1v.05c-.33-.42-.09-.91-.16-1.36,0-.09-.08-.18-.11-.27a.91.91,0,0,1,.11.22,1.35,1.35,0,0,0-.71-1.34,5.17,5.17,0,0,0-1.56-3c-.39-.41-.47-1.05-1.18-1.12l.28.32c-.11-.09-.2-.2-.31-.3l-.14-.17-.08-.09.1.07v-.1a.48.48,0,0,0-.51-.44l.07.1-.1-.08a2.62,2.62,0,0,1-.85-.87c0-.06-.1-.1-.14-.16l.17.13a2.07,2.07,0,0,0-2.22-1.19l.15.05h-.22l-.27-.18a.38.38,0,0,1,0-.15.17.17,0,0,0,0-.15l.11.13c-.08-.89-.65-1.08-1.42-1l.11,0h-.31l-.12-.06.17,0c-.41-.31-.71-.8-1.36-.71l.08.07-.13,0,0,0,.09.05c-.19-.42-.72-.56-.72-1.06H176.33v0h-2.9a.37.37,0,0,1-.31.34c-.87.32-1.78.57-2.58.95-1,.46-2,.4-3,1a5.76,5.76,0,0,1-2.07.8c-1.11.09-2,.75-3.11.87h.08l-.71.5h-.13l.12,0c-.53,0-1,0-1.36.51l.12,0-.12.06c-.58.21-1.17.4-1.75.62-1.47.54-2.89,1.25-4.31,1.87a12.86,12.86,0,0,0-3,1.38,12,12,0,0,1-3.16,1.7c-1.95.71-3.45,2.23-5.43,2.83-.15,0-.25.22-.39.32a9.54,9.54,0,0,1-2.25,1.76,18.15,18.15,0,0,0-5.11,3.17c-1,.91-2.31,1.61-3.42,2.49s-2.26,1.08-3.24,1.9c-1.64,1.34-3.67,2.13-5.3,3.55a91.06,91.06,0,0,0-7.52,5.6c-2.13,1.63-4.13,3.44-6.26,5s-4.26,3.74-6.69,5.16c-1.28.71-2.13,2-3.27,2.94a25,25,0,0,0-3,2.52,74.57,74.57,0,0,1-5.86,6.33c-1.14,1-1.84,2.55-2.91,3.6s-1.51,2.53-2.35,3.74a22.56,22.56,0,0,0-1.57,2.52A16.43,16.43,0,0,0,81,203.2c-.18.74-.45,1.45-.67,2.16a.39.39,0,0,1-.36.31v4.08c1,.44,1.08.67.71,1.53a2.55,2.55,0,0,0,.92,3,5.64,5.64,0,0,1,1.26,1.13,6.36,6.36,0,0,1,.86,1.47,14.89,14.89,0,0,0,2,3.37,3.28,3.28,0,0,0,1.35,1v0c1.13.49,1.95,1.52,3.24,1.71.18.39.53.34.86.34l1.37.51c.47.34,1,.1,1.53.17h.17c.24.27.56.12.85.17s.55.61,1,.51c.47.33,1,.09,1.53.16a5.48,5.48,0,0,0,2.35.16c3.86,0,7.75.22,11.52-1,.64-.2,1.36.17,2-.2a.6.6,0,0,0,.71-.34h0l1.36-.17h0c.8-.14,1.67.3,2.39-.34H118a.37.37,0,0,1,.34-.17l.06,0v0c.29,0,.61.1.85-.17h.17c.3,0,.62.11.86-.17a5.06,5.06,0,0,1,1.87-.51c.44,0,.88.05,1.2-.34l.85-.34h.06c.57-.08,1.16.17,1.7-.17a.61.61,0,0,0,.71-.34h.15a19.15,19.15,0,0,0,4.1-.78,8.09,8.09,0,0,0,2.3-1,1.93,1.93,0,0,1,.86-.33A18.84,18.84,0,0,0,138,218c.71-.17,1.35-.21,2.06-.42a12.39,12.39,0,0,1,3.17-1,4.64,4.64,0,0,0,1.92-.23,5.13,5.13,0,0,1,2.56-.46,12.52,12.52,0,0,0,3.94-.51,13.6,13.6,0,0,1,4.85-.71,1,1,0,0,0,.34-.13h0c1.17.13,2.25-.51,3.42-.39a.83.83,0,0,0,.71-.29,4.53,4.53,0,0,0-.52,0l.5-.09h.37l-.35.09h3.22a2.23,2.23,0,0,0,1.56-.51h-.25l.22-.08.18-.05-.15.07H167l-.11,0H167a2.42,2.42,0,0,0,1.64.51c2.18.07,4.37-.27,6.54,0l-.18-.07.18,0a.35.35,0,0,0,.35.17l.43.15-.43-.1c.62.65,1.42.49,2.22.52l-.45-.11c.15,0,.3,0,.45,0a.34.34,0,0,0,.15.06h-.15c.3.3.71.12,1,.17a.59.59,0,0,0-.23-.14.46.46,0,0,1,.23.09,2.55,2.55,0,0,0,.57.29l-.57-.21c.32.5.84.5,1.37.51l-.63-.23a3.22,3.22,0,0,0,.63.15l.18,0h-.18l1,.51a.61.61,0,0,0-.05-.12.18.18,0,0,1,.05.07c.56,0,.71.66,1.19.85l.27-.07-.27.12a2.58,2.58,0,0,1,1.2.17,1.2,1.2,0,0,0-.17-.21.8.8,0,0,1,.17.15h.17l.09.09h-.09c.1.22.32.37.32.65l-.32.17a9,9,0,0,0-3.08,1.64l0,.1-.07.1a1.45,1.45,0,0,1-1.57.28.36.36,0,0,0-.25,0l-.12.05c-.27.14-.57.2-.71.5v.07a3.36,3.36,0,0,0-1,.81c-.25.26-.48.56-.92.49h-.05a.6.6,0,0,0-.65.31c-.33.25-.81.27-1,.71l-.35.33h-.07a.48.48,0,0,0-.44.5c-.1.17-.3.31-.3.49-.18,1-.23,1-1.2.71a1.91,1.91,0,0,0-1.74.15c-.6,0-.85.52-1.31.71a28.38,28.38,0,0,0-5.33,3.37,31.21,31.21,0,0,1-3.62,2.13c-.88.45-2.22.54-2.35,1.94a7.76,7.76,0,0,0-2.6,1.49,10.73,10.73,0,0,1-4.48,2.75,2.39,2.39,0,0,0-1,.71,19.21,19.21,0,0,1-3.24,2.73,36.87,36.87,0,0,1-4.22,2.76c-1.22.62-2,1.88-3.05,2.74a10.21,10.21,0,0,1-1.66,1.42,12.24,12.24,0,0,0-3.88,2.84,4.21,4.21,0,0,1-1.6,1.3c-.12.1-.26.18-.2.35l-.48.16-.19.17.17.17-.35.51c-1.24.8-2.13,2-3.31,2.84a27.49,27.49,0,0,0-6.5,5.67,3.27,3.27,0,0,1-1.42,1.18l-.1.07c-.47.2-1,.38-1.11,1l-.07.09a9.69,9.69,0,0,0-1.54,1.53l-.08.07-.1.08a3.58,3.58,0,0,0-1.67,1.68,9.88,9.88,0,0,1-1.7,1.72v0h-.33a21.49,21.49,0,0,0-2.39,2.38,2.44,2.44,0,0,1-1.6-.06c-.42-.22-.86,0-.94.59h0l-.05.07v.11h-.2c-.9.28-.51.84-.19,1.21a.57.57,0,0,1,.11.11.63.63,0,0,1-.11.89l0,.05c-.26,0-.51.11-.71-.15a.91.91,0,0,0-.18-.21.6.6,0,0,0-.82.14c-.51.58-1,1.14-1.59,1.67a1.78,1.78,0,0,0-.45.37l-2.35,2.55A24.31,24.31,0,0,0,99,281.59a4,4,0,0,1-1.34,1.35A3.13,3.13,0,0,0,96.2,285c-.39.42-.56,1-1,1.42a13.71,13.71,0,0,0-3.7,5.17,9.19,9.19,0,0,0-2.42,2.95c-1.69,3.18-3,6.51-4.45,9.8a14.06,14.06,0,0,0-.9,3.83,13,13,0,0,0-.42,3.17,1.38,1.38,0,0,0,0,1.25,10,10,0,0,1,.52,2.29,44.62,44.62,0,0,1,.21,4.9,5.53,5.53,0,0,0,.45,2.81,5.86,5.86,0,0,1,.72,1.49,4.86,4.86,0,0,0,1.69,2.63c.79.77,1.66,1.48,2.37,2.3,1.47,1.66,3,3.13,5.42,3.26a3.5,3.5,0,0,1,2,.76,1.77,1.77,0,0,0,1.47.39h3.36a.58.58,0,0,0-.08-.22.66.66,0,0,1,.17.12h3.55l.18-.07a1.5,1.5,0,0,0-.23.2h.71l.08-.08v.13h3.3v-.06h.48v.05a2.45,2.45,0,0,0,2.4-1H112l.1-.05H114c1.18,0,1.25-.08,1-1.18l.16-.16h2.13a.92.92,0,0,0,1-.52h0l.33-.17h.05c.61-.07,1.32.27,1.72-.51l-.06,0,0,0,.33-.17c1-.78,2.3-.78,3.41-1.19a.46.46,0,0,0,.16-.15c.2-.05.38-.09.56-.15a.41.41,0,0,0,.19-.05,3.52,3.52,0,0,0,2.32-1.85H129a.91.91,0,0,0,1-.51l.34-.17a3.35,3.35,0,0,0,3.08-1.37,1.58,1.58,0,0,0,1.37-1.08l.06-.09.16-.17H135a.54.54,0,0,0,.33-.16.51.51,0,0,0,.11-.35l.17-.17h.07a.5.5,0,0,0,.33-.16.52.52,0,0,0,.12-.36s-.08.06-.11.08l.06-.08.16-.17a3.61,3.61,0,0,0,.3-.25l-.25.26a7.46,7.46,0,0,0,2.22-2l-.17.09.12-.1.28-.1-.23.11a1.8,1.8,0,0,0,1.07-.19,2.93,2.93,0,0,1,1-.51A3.93,3.93,0,0,0,143,317.5l-.23.12.18-.13.2-.11-.15.12a3.22,3.22,0,0,0,2.05-1.71l-.2.17.15-.17a.68.68,0,0,1,.12-.12l-.07.12a3,3,0,0,0,1.19-1,2,2,0,0,0,1.6-.48,3.53,3.53,0,0,1,1.27-.77h.09a1,1,0,0,0,.76-1.28h0l.17-.17a.91.91,0,0,1,.51-.09l-.46.1a9,9,0,0,0,1.27,0c.57-.09,1.12-.3,1.12-1a.8.8,0,0,1-.15.17c0-.06.07-.12.1-.17a.86.86,0,0,1,.1-.16c0,.05,0,.11,0,.16.29-.27.82-.32.86-.85l-.11.06.06-.06.17-.17c.08-.08.2-.13.22-.25v.08l-.17.14c.64.05,1.27,0,1.35-.83a1.79,1.79,0,0,1,1.51-.55.58.58,0,0,0,.71-.29l.34-.33h.07a.48.48,0,0,0,.44-.51,4.37,4.37,0,0,1,1.2-.85c.76.09.88-.33.92-1,0-.43-.2-1.11.56-1.06,1,.08,1-.5,1-1.21a.65.65,0,0,1-.09.23v-.37h.12c.47,0,1,.06,1.23-.47l.34-.17h.09c.36,0,.72,0,.72-.44v-.08a.8.8,0,0,0,.49-.71v-.15h0c.36,0,.77.08.84-.49l.17-.16h0a2.6,2.6,0,0,0,1.78-1.2c.42-1.11,1.61-1.68,1.83-2.88a7.58,7.58,0,0,1,.62-.65,1.25,1.25,0,0,0,.58-.46l.09-.07.34-.17h0a3.15,3.15,0,0,0,2.75-2.63c0-.09.08-.16.11-.25l.05-.06c.71-.43,1.17-1.16,2.06-1.24.2,0,.44-.36.54-.6a4.28,4.28,0,0,0,.52-1.84v-.17a1.57,1.57,0,0,0,.86-.25,11.42,11.42,0,0,0,1.85-2.13,6.54,6.54,0,0,0,1.37-1.36c.36-.28.77-.51.85-1a2.24,2.24,0,0,0,1.36-1.36c.4,0,.48-.33.64-.59.4-.63.59-1.42,1.25-1.87a2.14,2.14,0,0,0,1-1.59l0,0a.81.81,0,0,0,.46-.64c.85-.38,1.52-.87,1.35-2a3.05,3.05,0,0,1,0-.74c.76,0,.9-.67,1.17-1.17l.16-.17h.09a.47.47,0,0,0,.43-.51,1.11,1.11,0,0,0,.83-1.34c.22-.12.49-.18.5-.49v0c.71-.66,1.54-1.22,1.51-2.35a.7.7,0,0,0,.64-.61,9.63,9.63,0,0,0,.05-1.42l0,0a1.19,1.19,0,0,0,.51-.71c.15-.38,0-.8.21-1.16l.08-.06a.22.22,0,0,0,.05-.08h.06a1.06,1.06,0,0,0,.73-.33,1,1,0,0,0,.29-.75,3.09,3.09,0,0,1,.93-2,2.48,2.48,0,0,0,.52-1.66h.09a.77.77,0,0,0,.46-.3.73.73,0,0,0,.1-.54,1.94,1.94,0,0,0,.71-1.5h0l.07-.09c.94-.49.62-1.35.67-2.13v-.08a0,0,0,0,0,0,0,2.27,2.27,0,0,0,1.34-2.22,3,3,0,0,1,.07-1.42c0-.19,0-.39.16-.51a.92.92,0,0,0,.17-.22c.2-.11.23-.34.24-.6a1.51,1.51,0,0,0,0-.52v-3.21a8.07,8.07,0,0,1,.11-1.08v-.16a4.26,4.26,0,0,1,0-1.88,1.38,1.38,0,0,0,0-1A9.14,9.14,0,0,0,201.11,240.09Zm-4.9-28.66h.27a3.24,3.24,0,0,0-.88,0A1.57,1.57,0,0,1,196.21,211.43Zm.81-67.59-.06-.1c0-.09-.08-.18-.11-.27a3,3,0,0,0,.17.4Zm-31.73-.13h0Zm-3-5.13Zm-3.12,7.56.13,0-.21.11Zm-1.65.85h.1l.13,0H158a1,1,0,0,1-.52.08h-.06l.08,0ZM140,157.33v0ZM130.11,163c0,.13-.07.28-.11.42A.68.68,0,0,1,130.11,163Zm-1.83-4.31,0,0Zm-13.85,17.7h0ZM107.69,182a.22.22,0,0,0,0-.08l0,0ZM90.17,204.17c0-.08.08-.16.13-.24a1,1,0,0,1-.14.37l-.14.22A3.68,3.68,0,0,1,90.17,204.17ZM91,217h0Zm4.2,7.09v0l.12.06Zm2.53.71h0l-.2-.1c.09,0,.17,0,.27.06s0,0,0,0Zm43-7.68V217l.06.07h.06Zm13.69-2.55a3.62,3.62,0,0,1,.93,0ZM85.27,323c.08.19.17.37.26.55v.05c-.1-.26-.2-.43-.28-.63ZM190.05,212.24H190a.72.72,0,0,0-.32-.08A.47.47,0,0,1,190.05,212.24Zm-6.67,5.67a.1.1,0,0,0,0,.05h-.07l0-.06Zm-5.47,2.59h0Zm-18.5,14.05-.06.06Zm-49.07,36.83,0,0ZM96.13,296.77v.07H96Zm12.9,36.1-.22,0h.12a1.58,1.58,0,0,0,.31-.09Zm2.39-.86-.2.08.19-.08h0Zm1.2-.17h-.17a.6.6,0,0,1-.27.1l.14-.08h.07l.24-.06h.23l-.22.07Zm1.36-.34a.57.57,0,0,1-.18.12,1.09,1.09,0,0,0,.13-.17h-.17l.18-.07v0a1,1,0,0,0,.13-.16Zm3.12-1.29h0Zm1-.24h0Zm1-.17H119l-.19.05.15-.08h.1c.26-.12.54-.22.81-.34a3.34,3.34,0,0,1-.73.37Zm2.67-1.76a2,2,0,0,0-.32.17,1.41,1.41,0,0,1,.5-.26Zm2.61-.42a1.63,1.63,0,0,1-.75.25,5.28,5.28,0,0,0,.79-.28Zm1.61-8.25a2.49,2.49,0,0,1-.15.28,1.55,1.55,0,0,0,0-.21l.06,0H126Zm12.8-7.18v0l0-.06,0,0Zm7.31,2.58-.12.05.07-.05h.05Zm7.53-5.1v0Zm32.24-31.76a.11.11,0,0,1,.05-.09Zm2.13-2.83v-.23a.3.3,0,0,1,.08-.21,3,3,0,0,1,0,.42Zm2.76-3.63s.07,0,.07,0Zm2-2.89s.06,0,.05,0Zm.71-1.94v-.13c.07,0,.05.06,0,.13Zm.91-2.57v.06l-.1-.07h-.1l.17-.07h.12Zm.19-25.21c-.61,2.48-.39,5-1,7.55-.48,2-1.16,3.89-1.72,5.84-.82,2.73-2.36,5.14-3.66,7.65-.93,1.82-2.18,3.45-3.06,5.3a.46.46,0,0,0-.38.29c-.66,1.23-1.79,2.13-2.45,3.35a39.12,39.12,0,0,1-3,4c-1.07,1.46-2.49,2.64-3.36,4.25A19.16,19.16,0,0,1,174,280c-.17.21-.45.37-.4.71-.59.71-1.3,1.31-1.94,2-.37.41-.89.71-1.05,1.3v.08a6,6,0,0,0-.46.4c-1.08,1.24-2.41,2.21-3.5,3.44-1,1.06-2.18,1.77-3.2,2.89s-2,2.24-3.11,3.25a12.69,12.69,0,0,0-2.47,2.65,1.09,1.09,0,0,1-.65.52,5,5,0,0,0-2.33,1.47,24.68,24.68,0,0,1-2.84,2.57c-1,.71-1.5,2.05-2.85,2.27-.07,0-.12.1-.19.17a27.09,27.09,0,0,1-2.84,2.4,1,1,0,0,0-.25.06c-1.74,1-3.06,2.52-4.8,3.55-1.42.81-2.46,2.12-4,2.83-2.23,1-4,2.84-6.2,4-2,1.05-4.22,1.76-6,3.18l-.17.11-.71.33a10.14,10.14,0,0,0-1.3.48c-.35.21-.72.38-1.07.56l-1.51.71-.54.23a36.37,36.37,0,0,0-3.65,1.68,25.07,25.07,0,0,1-4.36,1.18,30.31,30.31,0,0,0-4,1.06c-1.13.43-2.33.52-3.48.91a4.18,4.18,0,0,1-1,.22,18.17,18.17,0,0,0-2.66-.14h-.09c-.47-.06-.93-.11-1.42-.14A13.27,13.27,0,0,1,94,325.8a6.23,6.23,0,0,1-3.66-5.19,2.13,2.13,0,0,0-.2-1.08,2,2,0,0,1-.12-1.86,2.11,2.11,0,0,0-.05-1.58,2.46,2.46,0,0,1-.15-.53,3.71,3.71,0,0,1,0-.94,1.62,1.62,0,0,1,.15-.42,3.09,3.09,0,0,0,.32-1.55,11.75,11.75,0,0,1,.81-5.15c.21-.42.4-.85.59-1.28l0-.07a.25.25,0,0,1,.06-.14c.23-.53.46-1.05.71-1.56a4.57,4.57,0,0,0,.39-1.32,18.83,18.83,0,0,1,.83-1.76c.5-.75,1-1.5,1.48-2.28a5.2,5.2,0,0,0,.56-1,16.51,16.51,0,0,0,1.51-3.28l.09.05c.33,0,.49-.25.61-.52,1.08-2.41,3-4.26,4.55-6.31a31.38,31.38,0,0,1,4.26-5.25,2,2,0,0,0,.51-.87,9.66,9.66,0,0,1,2.65-3.37c2-2,4.4-3.76,5.93-6.28a1,1,0,0,1,.31-.28,14.19,14.19,0,0,0,3-2.78c1.17-1.19,2.09-2.61,3.66-3.32a2.67,2.67,0,0,0,1.29-1.17,13.27,13.27,0,0,1,3.65-3.74,8.91,8.91,0,0,0,1.71-1.47,5.89,5.89,0,0,1,1.77-1.71,7.73,7.73,0,0,0,1.85-1.47,12.27,12.27,0,0,1,1.79-1.42,12.63,12.63,0,0,0,3-2.7,5.08,5.08,0,0,1,1.83-1.58,10.5,10.5,0,0,0,4.2-3.38,1.9,1.9,0,0,1,.67-.52,25.17,25.17,0,0,0,4-3.15,18.05,18.05,0,0,1,2.79-2.3c.57-.32,1.28-.58,1.43-1.38a3.36,3.36,0,0,0,1.67-1.07,6.29,6.29,0,0,1,1.74-1.33c.71-.41,1.58-.68,2-1.42l.16-.23c0-.08.19-.22.27-.34a4.17,4.17,0,0,1,1.49-1.07,2.31,2.31,0,0,0,1.31-.51,8.63,8.63,0,0,1,2.81-2c1-.25,1.49-1.18,2.32-1.66,1.14-.67,2.49-1,3.2-2.32a1.36,1.36,0,0,1,.61-.44,9.33,9.33,0,0,0,1.69-.94l.05.06c.39,0,.77-.15,1.16-.19a.83.83,0,0,0,.79-.65,1.05,1.05,0,0,1,1-.93.31.31,0,0,0,.26-.29l-.11,0h.07l.23-.13a5.32,5.32,0,0,0,.57-.16,6.59,6.59,0,0,0,1.29-.6,2,2,0,0,0,.42-.3,1.71,1.71,0,0,0,1.09-1,4.9,4.9,0,0,1,.71-.39h.11a1.52,1.52,0,0,0,1.19-.41h.14l.2-.14.24-.21.2-.17a2.41,2.41,0,0,1,.36-.23l.21-.12.4-.23h.06l.44-.25c.53-.3,1.08-.59,1.6-.91a8,8,0,0,1,1.16-.62,1.79,1.79,0,0,1,1.12,0l.09,0a.83.83,0,0,1,.16.09l.18.11.21.17.13.07.42.32c.77,1.48,1.82,2.84,2.69,4.26.18.31.36.65.75.71a.54.54,0,0,0,0,.55,36.86,36.86,0,0,1,2,5.67,41.18,41.18,0,0,1,.93,5.17,7.31,7.31,0,0,1,0,2.91Zm4.58,15.51a3.33,3.33,0,0,0-.25.28.83.83,0,0,1,.21-.28,2.9,2.9,0,0,0,.34-.36,2.24,2.24,0,0,1-.27.34Zm.88-2.78v-.41l0-.22a3.14,3.14,0,0,1,0,.61Zm223.66,1.3a.13.13,0,0,0,0-.06.25.25,0,0,0-.2-.09.29.29,0,0,0-.21.09,31.2,31.2,0,0,1-3,1.42,10.6,10.6,0,0,1-3.34,1.59,3.14,3.14,0,0,0-2.14,1.27c-1.13.24-2.08,1.1-3.32.94-.09,0-.18.12-.28.18a46.26,46.26,0,0,1-5.29,2.35,4.12,4.12,0,0,0-2.13,1.24h0c-.59,0-.94.42-1.36.71a1.35,1.35,0,0,0-1.17.33l-.48.32h-.21l-.08,0c-1.89.17-3.51,1.15-5.24,1.77a10.81,10.81,0,0,1-2,.89,16.09,16.09,0,0,0-4.67,1.57,8.82,8.82,0,0,1-4.08,1.66,8.39,8.39,0,0,0-3.08,1,42.3,42.3,0,0,1-4.4,1.66c-.62.24-1.2.58-1.8.84-1.18.51-2.5.37-3.66,1a19.63,19.63,0,0,1-5.26,1.76,11.56,11.56,0,0,0-3.05.81,28.51,28.51,0,0,1-5.79,2.26,6,6,0,0,0-2.13.75,1.31,1.31,0,0,1-1.72,0,1.32,1.32,0,0,0-1-.33,3.78,3.78,0,0,1-1.57-2.36c-.18-1.74-.85-3.54-.05-5.28a1.93,1.93,0,0,0,0-1.34,1.25,1.25,0,0,1,.13-1.13,5.22,5.22,0,0,0,.6-2.35,1,1,0,0,1,.23-.71,1.78,1.78,0,0,0,.46-1.57l0-.14V264a6.24,6.24,0,0,0,.71-3.42l-.05.21a.33.33,0,0,0,0-.14c0-.19,0-.39.18-.51v-.13c.45-.39.35-1.08.71-1.53,1-1.37,1.15-3.09,1.75-4.63.4-1,.75-2,1.19-3s1.21-1.91,1.28-3.09c0-.71.2-1.42.29-2.13a2.59,2.59,0,0,0-.54-2.3,1.93,1.93,0,0,1-.79-1.53c.13-.83-.25-1.17-1.06-1-1.56.24-2.93-.44-4.35-.9a7.76,7.76,0,0,1-1.78-.76,5.22,5.22,0,0,0-3.39-1.09c-.91.06-1.82,0-2.73,0v.1a.08.08,0,0,0,0-.07c-1,0-1.54.7-2.45,1s-1.5,1.22-2.34,1.65c-1.47.71-2.4,2-3.56,3.08a3,3,0,0,0-.59,1.19,3.26,3.26,0,0,1-1.42,2,3.37,3.37,0,0,0-1.9,2.51,1.71,1.71,0,0,1-.51.87,17.08,17.08,0,0,0-3.08,4.91,5.07,5.07,0,0,1-1.2,1.92,2,2,0,0,0-.77,1.27.76.76,0,0,1-.53.71c-.92.32-2,.47-2.41,1.56a.7.7,0,0,1-.32.27,8.47,8.47,0,0,0-1.92,1.71c-1.58.71-2.39,2.34-3.73,3.37a32.87,32.87,0,0,0-3.52,3.46c-.55.58-1.42.75-1.79,1.53l-.16.15a.71.71,0,0,0-.65.71l-.71.82a10.68,10.68,0,0,0-3.24,2c-.55.17-.78.77-1.35.88s-.84.54-1.38.5-1-.23-1.36.34-.86.19-1.2.51c-.76.05-.58.79-.86,1.19a5.83,5.83,0,0,1-2.36-.85c0-.43-.31-.52-.68-.52l.09.14-.15-.1a1.3,1.3,0,0,0-.52-.52l-.06-.09a.34.34,0,0,0,.12.06,1,1,0,0,0-.34-.84v.22a.29.29,0,0,0,0-.1,1.14,1.14,0,0,1-.15-.36,1.3,1.3,0,0,0,.18.23c-.25-.71,0-1.48-.33-2.18-.4-1.88.71-3.67.36-5.56a1.05,1.05,0,0,1,.11-.31,12,12,0,0,0,.89-3.49l-.12.14V264l.07-.1c.67-.41.49-1.09.52-1.7l-.15.49a3.06,3.06,0,0,1,.07-.4v-.17l.13-.46a1,1,0,0,1-.05.37,6.81,6.81,0,0,0,.71-3.23c-.05.13-.09.28-.13.41,0-.11,0-.21.05-.32s-.07-.53.18-.71l0-.06a2,2,0,0,0,.85-1.36c.31-.13.36-.39.34-.71a.16.16,0,0,1,.05-.14v.14a2.16,2.16,0,0,0,.51-1.54s-.05.09-.07.13v-.09a1.67,1.67,0,0,1,.08-.2v.16a.91.91,0,0,0,.34-.7l-.08.05.17-.17a.77.77,0,0,0,.1-.18,1.27,1.27,0,0,1-.06.18c.71-.66.47-1.63.85-2.39a1,1,0,0,0-.13.16l.09-.15a11.88,11.88,0,0,1,.86-2.38.28.28,0,0,0,0-.13v.08c.22-.32.63-.56.68-1,.27-.29.13-.64.13-1v-.06a1,1,0,0,1,.34-.85v0c.33-.37.11-.8.17-1.2v-.51a1,1,0,0,0,0-1.22,5.56,5.56,0,0,0-2.38-2.83H302a5.54,5.54,0,0,0-2.56,0h-.25a3.34,3.34,0,0,0-1.54,1.36c-.36.47-.85.74-1.07,1.36-.53,1.48-1.18,2.91-1.79,4.39s-1.14,3-1.85,4.45c-.38.81-.31,1.76-.79,2.54a.91.91,0,0,0-.17.17c-1.22,1.92-1.22,4.22-2,6.27-.56,1.42-.53,3.14-2.19,4a4.74,4.74,0,0,0-.91.88,14.67,14.67,0,0,1-2.32,2.13,27.07,27.07,0,0,0-3.78,2.7,3.36,3.36,0,0,1-2.13.87,4.39,4.39,0,0,0-2.13.71,4.32,4.32,0,0,0-.62.05,13.48,13.48,0,0,1-7,.09,4.57,4.57,0,0,0-1.22-.14l-.34-.18c-.05-.55-.47-.5-.86-.5h-.27l-.07-.05v-.13a10.2,10.2,0,0,0-2.56-.51c-.89-.07-1.59-.78-2.51-.71l-.13-.07c-.53-.71-1.42-.71-2.13-.94a13.06,13.06,0,0,0-3.83-1V268s-.11-.14-.16-.22c-.56-1.41-1.94-1.58-3.23-1.68-.92-.13-2.06-.49-2.66,1a4.44,4.44,0,0,1,0-1,7.76,7.76,0,0,0,.5-3,1.38,1.38,0,0,1,.19-.56,6.61,6.61,0,0,1,2.8-3.36,4,4,0,0,0,1.18-.64c1.58-1.5,3.56-2.5,5.2-3.92a23.51,23.51,0,0,0,2.91-2.55l-.09-.06h.13a3.64,3.64,0,0,0,1.3-1.13c.38-.43.56-1.13.92-1.42,1.13-.9,1.9-2.22,3.16-3,.45-.31,1.07-.45,1.31-1,.59-1.42,1.78-2.43,2.66-3.67a23.87,23.87,0,0,1,2.33-2.5c1.34-1.42,2.52-3,3.8-4.43,1.12-1.27,2.29-2.51,3.33-3.87,1.35-1.78,2.65-3.61,3.87-5.49a.63.63,0,0,0,.48-.35c.86-1.35,1.79-2.66,2.59-4,.36-.61,1.2-.93,1.2-1.7a2.81,2.81,0,0,1,1.17-1.94,3.37,3.37,0,0,0,.71-.84,11.5,11.5,0,0,1,2.38-3.66c.21-.18.16-.46.16-.71l-.09-.05h.06a2.16,2.16,0,0,0,.71-1.35h0l0,0a19.23,19.23,0,0,0,2.67-3.54c1.2-2.29,2-4.76,3.56-6.89.71-1,.71-2.24,1.49-3.15a1.64,1.64,0,0,0,.28-1,2,2,0,0,1,.71-1.54,1.7,1.7,0,0,0,.85-1.77c-.07-.31.18-.55.37-.81.36-.49,1.11-.74,1.13-1.48v-.15a1.86,1.86,0,0,0,.82-1.66,1.61,1.61,0,0,1,.55-1.18,3.33,3.33,0,0,0,1.24-2.58,4.61,4.61,0,0,1,.5-2c.49-1.09,1.55-1.82,1.86-3a6.24,6.24,0,0,1,1.19-2.65c.44,0,.59-.37.64-.71a7.62,7.62,0,0,0,0-1.35v-.07l0,0h.06a.54.54,0,0,0,.26-.33.56.56,0,0,0,0-.42.6.6,0,0,1,0-.63A5,5,0,0,0,313,170a1,1,0,0,1,.42-1,1.83,1.83,0,0,0,.94-2v-.17c.24-.46.63-.92.49-1.42a6.17,6.17,0,0,1,0-2.77v-.2c.87-.09.89-.71.84-1.36V158.5c.06-1.86-.08-3.72-.17-5.58a.93.93,0,0,0-.5-.88,1.16,1.16,0,0,0-.71-1c-.16-.81-.44-1.5-1.37-1.69l-.17-.17a2.16,2.16,0,0,0-.52-1,4.31,4.31,0,0,0-3.22-2.22l.1.05h-.09l-.06,0h.05a2.16,2.16,0,0,0-2.05-.71h0l-.06,0a3.73,3.73,0,0,0-2.64-1.28,40.55,40.55,0,0,0-4.93-.06c-.3,0-.57,0-.71.34a3.18,3.18,0,0,1-2.05.34c-.41.07-.92-.19-1.19.34a.56.56,0,0,0-.31.31,1.56,1.56,0,0,0-1.52,1.18l-.17.17-.15.1a5.06,5.06,0,0,0-2,1.27h-.06a2.07,2.07,0,0,0-1,.85,1.21,1.21,0,0,0-.5.5c-.71,0-1.06.33-1,1a.32.32,0,0,1-.16.33l-.74.59-.2.16.06-.09c-.43,0-.64.36-.85.71h.11c-.2.24-.39.47-.59.68a27.88,27.88,0,0,0-3.31,3.39,1.18,1.18,0,0,0-.25.19l.12-.17h-.08a.46.46,0,0,0-.32.17.47.47,0,0,0-.12.34.74.74,0,0,0,.25-.17c0,.05-.08.09-.11.15a2.31,2.31,0,0,1-.2.24.55.55,0,0,0,.06-.22,1.33,1.33,0,0,0-.71.86l.22-.15-.08.12a.9.9,0,0,0-.19.15.83.83,0,0,0,.08-.12h-.07a.44.44,0,0,0-.33.16.48.48,0,0,0-.11.35l.19-.13a.55.55,0,0,0-.08.1l-.86,1.36a1.07,1.07,0,0,1-.14.16v-.1a1.11,1.11,0,0,0-.71,1,4.58,4.58,0,0,0-.82.63c-.47.48-1.18.76-1.18,1.56l.09-.09a.21.21,0,0,1,0,.06l-.34.34-.08.13v-.1c-.32.13-.36.39-.34.71l.11-.11,0,.08c-.06.08-.12.15-.17.23,0-.07.07-.13.1-.2a1.28,1.28,0,0,0-.71,1.19c.06-.07.1-.15.16-.22s-.07.12-.09.19a.35.35,0,0,0-.17.34l-.07.07v-.07c-.71.34-.48,1-.51,1.54l.1-.31a1.55,1.55,0,0,1-.06.31c-.14.43-.67.46-.85.85l-.09,0,.05,0c-.86.2-.39.89-.51,1.36a.7.7,0,0,0,.11-.23.62.62,0,0,1-.07.23v.17l-.17.08.1-.08c-.34,0-.64.07-.68.51l.14-.11-.07.11c-.35.22-.71.42-.71.84a.24.24,0,0,1,0,.12.11.11,0,0,1,0,.09.61.61,0,0,0-.29.62v.05c-.26.12-.31.37-.3.66s-.47.66-.63,1a.25.25,0,0,0-.14.13l0,.09a.81.81,0,0,0-.39.78.4.4,0,0,0-.17.4l-.06.1v.17a.6.6,0,0,0-.26.65.35.35,0,0,0-.17.34,1.15,1.15,0,0,0-.71,1,.43.43,0,0,0-.17.42.22.22,0,0,1,0,.08.35.35,0,0,0-.06.14c-.72.83-.59,2-1.21,2.83l-.05,0v.05a1.37,1.37,0,0,0-.66,1.51,1.2,1.2,0,0,0-.67,1.32.2.2,0,0,0,0,.08c-.78.41-.63,1.14-.63,1.82a3.33,3.33,0,0,0-.71,1.81,1.21,1.21,0,0,0-.63,1,2.68,2.68,0,0,1-.31,1,6.43,6.43,0,0,0-1.09,3.68v.23h0a.65.65,0,0,0-.59.6,8.11,8.11,0,0,1-1,2.42,6.36,6.36,0,0,0-.32,1.05c-.15.43-.3.85-.44,1.29a2.15,2.15,0,0,1-.35.5c-.12.13-.05.44-.05.66a1.15,1.15,0,0,1,0,.37l-.1.35a2.14,2.14,0,0,1-.17.3,1.09,1.09,0,0,0-.38.71,1.86,1.86,0,0,1-.08.62l-.27.64a8.38,8.38,0,0,0-.61,1.24,4.42,4.42,0,0,0-.41,1.7.12.12,0,0,1-.06.08v.24a2.76,2.76,0,0,0-.62,2.27v.2a1.21,1.21,0,0,0-.71,1.35,1.48,1.48,0,0,0,.29-.52,1.56,1.56,0,0,1-.15.52,1.15,1.15,0,0,0-.23.21l.09-.21c-.91.29-.59,1.07-.71,1.71l.24-.58c0,.2-.07.39-.1.58v.32l-.2.37.11-.37c-.82.6-.67,1.53-.71,2.39l.12-.42v.59a2,2,0,0,0-.13.18l.08-.18c-.77.35-.72,1-.72,1.7l.1-.23v.23a.14.14,0,0,0,0,.09.14.14,0,0,1,0-.09c-.29.24-.12.6-.17.85l.07-.11a.22.22,0,0,1-.05.11l-.11.16.09-.16a.89.89,0,0,0-.52,1l.1-.18a1.34,1.34,0,0,0-.07.18v.17a1.15,1.15,0,0,1-.06.17,1.38,1.38,0,0,0,0-.2c-.34.61-.85,1.14-.71,1.88l.06-.1v.13a.77.77,0,0,0-.71.88v2.19l-.17.33a.54.54,0,0,0-.45.29,4.45,4.45,0,0,0-.71,2.79c0,.34-.13.82.34.94a1.37,1.37,0,0,0,1.3-.13,3,3,0,0,1,.37-.34c.26-.17.41-.06.34.21-.2.64-.1,1.35-.57,1.92a1.62,1.62,0,0,0-.39.92,9.57,9.57,0,0,1-.71,2.83c-.07.31,0,.79-.47.71s-.17-.51-.24-.79v-.71c0-.39,0-.82-.54-.83s-.83.08-.83.66v.17c-.76.36-.71,1-.71,1.71v.51l0,0c0,.37.18.62.54.63s.77,0,.81-.51a.82.82,0,0,1-.32.26,2.43,2.43,0,0,0,.29-.26l.08-.07V234c.49-.31.71-.31.71.39a2.23,2.23,0,0,1-.56,1.6c-.21-.31-.13-.8-.65-.8l0-.05-.26-.06c-.77-.24-1.06-.08-1.22.64a.16.16,0,0,1-.05.13l-.34.85v0c-.66.55-.23,1.15-.05,1.78-.64.12-1.14.34-.81,1.11v0l-.17.34a2.92,2.92,0,0,0-2,.51,1.05,1.05,0,0,1-.71.17,3.41,3.41,0,0,0-1.72.31,4.56,4.56,0,0,1-2.06.39h-6.28l0,.09-.09-.06,0-.05c-1.35-.85-2.88-.59-4.33-.59a3,3,0,0,1-2.09-.56,3,3,0,0,0-2.45-.9,7.62,7.62,0,0,1-1.17,0,2.19,2.19,0,0,0-1.42-.71,3.22,3.22,0,0,0-2.78,1.42c-.17.22-.27.53-.56.59-2.13.48-3.35,2.13-4.81,3.46h.14a1.73,1.73,0,0,0-.71.71,6.17,6.17,0,0,0-.66.48c.17-.16.32-.33.49-.48a4.13,4.13,0,0,0-1.63,1.23c-.32.37-.8.71-.76,1.32.2-.25.43-.48.64-.71a5.82,5.82,0,0,0-.47.71,1.45,1.45,0,0,0-.22.21,1.8,1.8,0,0,0,.08-.21c-.62.14-.76.62-.71,1.19a2.11,2.11,0,0,1,.28-.45,2.59,2.59,0,0,0-.14.45,3.07,3.07,0,0,0-.28.35l.16-.35a1.35,1.35,0,0,0-.71,1.53l.21-.44a2.29,2.29,0,0,0-.09.44c-.07.08-.12.16-.19.25,0-.09.07-.16.1-.25a1.35,1.35,0,0,0-.71,1.53c.06-.09.1-.19.15-.28a2.8,2.8,0,0,1-.06.28c0,.1-.1.14-.15.2s.07-.13.09-.2a1.13,1.13,0,0,0-.71,1.2l.15-.2a.72.72,0,0,0-.09.2l0,0v0c-1,.27-.6,1.07-.71,1.7a.16.16,0,0,1,.05-.14v.31a3.57,3.57,0,0,0-1,1,1.58,1.58,0,0,0,.36-.14l-.14.15a1.1,1.1,0,0,0-1,.85,3.77,3.77,0,0,0-.71,1.88,6.19,6.19,0,0,0-.71,1.7.35.35,0,0,0-.17.34,2.83,2.83,0,0,0-.51.85,1.38,1.38,0,0,0,0,1,4.58,4.58,0,0,1,0,1.88v.16a.44.44,0,0,0-.07.37l-.08.13v-.51a2.41,2.41,0,0,0-.33,2.67c.1.29.25.6,0,.79-.71.59-.31,1.3-.35,2-.09.94.78,1.62.62,2.56a1.56,1.56,0,0,0,.67,1.55,8.13,8.13,0,0,0,1.89,2.84,1.82,1.82,0,0,0,.33,0c1,.88,1.86,2,3.41,2h0c.41.32.71.81,1.37.71l-.08-.05h.25c.09.58.49.71,1,.71,1.58-.1,3.15,0,4.73-.1a4.33,4.33,0,0,0,2.46-1.1h0l.31-.14a.7.7,0,0,0,.62-.2,10.78,10.78,0,0,1,2.59-2c.33-.23.81-.71.75-.94a1.17,1.17,0,0,1,.71-1.35c.93-.49.83-1.53,1.43-2.19a2.35,2.35,0,0,0,.71-1.25c0-1,1.06-1.62.75-2.66a.33.33,0,0,1,.12-.21,2.38,2.38,0,0,0,.71-1.49h.05c.33-.06.44-.28.44-.61V264.7a2.33,2.33,0,0,1,.05-.28l0-.05c.48-.09.58-.47.58-1v-1.25a2.5,2.5,0,0,1,.05-.29c0-.3-.11-.61.17-.86l.05-.07a1,1,0,0,0,.44-.93v-4.9a.78.78,0,0,0-.63-.88v-1.08a.39.39,0,0,0,0-.21,1.18,1.18,0,0,0-.59-1.07l-.08-.08v-.31c0-.59,0-1.22-.71-1.58v-.16a1.13,1.13,0,0,0-.71-1.19v-.17s0-.09,0-.14l.08.14a1.13,1.13,0,0,0-.72-1.19l0,.1a.39.39,0,0,1-.08-.1,6.18,6.18,0,0,0-.9-.43c-.39-.12-.79-.15-1-.58H226c-.09-.19-.37-.27-.34-.52a.62.62,0,0,0-.14.25.33.33,0,0,1,.08-.25.92.92,0,0,1,.71-.34h2.27a.75.75,0,0,0,.65.47c.23.29.57.13.85.17h1c3.55.07,7.1-.05,10.66-.17a.89.89,0,0,0,.67-.17l.23-.14a9.27,9.27,0,0,1,2.73-.18h.87l.15,0c.29.44,0,.71-.34.85s-.23.38-.25.71.09.66-.09,1v.17l-.23.3.12-.3c-.71.38-.71,1-.71,1.7l.16-.37c0,.12,0,.25,0,.37v.51a3.39,3.39,0,0,1-.15.41,2,2,0,0,1,.07-.41c-.26.55-.91,1.06-.17,1.7v-.15l.07.15a13.47,13.47,0,0,1-1.19,3.07.71.71,0,0,1-.14.1.27.27,0,0,0,.06-.1,1.67,1.67,0,0,0-.85.34h.08a1.75,1.75,0,0,1-1,.17l-.18.08.1-.08c-.36,0-.65.07-.71.51l.15-.11-.07.11-.17.17a.11.11,0,0,0-.08,0v0c-.8,0-.71.54-.71,1l.07-.1v.07c0,1.82.09,1.92,1.89,2.42a1,1,0,0,1,.84,1.08v1.1l-.05.06v-.06c-.89.61-.62,1.53-.71,2.38a.84.84,0,0,1,.07-.26.59.59,0,0,1,0,.26v.85c-.85.48-.65,1.29-.71,2a3.74,3.74,0,0,1-.17,1.37h0c-.71.2-.39.77-.43,1.21a.56.56,0,0,1,0,.12,3.69,3.69,0,0,1-.17,1.36l0,0c-.62.34-.4,1-.47,1.49v1.56c-.82,1.05-.66,2.31-.72,3.55a6.56,6.56,0,0,1,.15-1.07,7.23,7.23,0,0,0,0,.93.23.23,0,0,1-.08.14,2.09,2.09,0,0,1-.16,1c0,.05,0,.11-.08.16s0-.11,0-.16a3.22,3.22,0,0,0-.52,2.38c0-.21.09-.43.14-.64a3.41,3.41,0,0,1-.1.64v2.22a.14.14,0,0,0,0,.17h-.05v-.17a5.22,5.22,0,0,0-.71,2.89c.06.37-.08.77.12,1.11v.08c-.3.41,0,.95-.34,1.36v.05a1.16,1.16,0,0,0-.45,1.11v15.25a2.34,2.34,0,0,0,.32,1.71.23.23,0,0,1,.08.18.25.25,0,0,1-.08.18c-.61.71-.22,1.13.31,1.54l0,.05v1.43c.06.76.12,1.49.2,2.29a.82.82,0,0,0,.42.66v.5a1.75,1.75,0,0,0,.8,1.72l0,0v.07a.48.48,0,0,0,.48.44.34.34,0,0,0,.16.42l0,.09a.82.82,0,0,0,.34.58l.13.18.06.12a1,1,0,0,0,.5.71,1.59,1.59,0,0,1,.15.21l.1.13a1.46,1.46,0,0,0,.59.66,2,2,0,0,1,.17.23,4,4,0,0,0,2,1.53h.05a.81.81,0,0,0,.52.38l.14.1c.35.28.82.16,1.2.34l.12.11a1.33,1.33,0,0,0,1.25.32,2.42,2.42,0,0,1,.71.08,2.91,2.91,0,0,0,.39.12,1.68,1.68,0,0,0,2-.83l.13-.14a.57.57,0,0,1,.34-.34,2.4,2.4,0,0,0,.67-.31c.91-.43,1.17-1,1.19-2.53v-.05a.58.58,0,0,1,.16-.51l.1-.23a1.74,1.74,0,0,0,.37-.86l.05-.1a.32.32,0,0,1,.16-.34,1.54,1.54,0,0,0,.08-.19,1.79,1.79,0,0,0,.42-1.52v-.17a.34.34,0,0,1,.16-.34,3.06,3.06,0,0,0,.21-.29,3.17,3.17,0,0,0,1-2.34v-.09a1,1,0,0,1,.34-.85l.12-.18a.63.63,0,0,0,.2-.47v-.06l.07-.15a2.27,2.27,0,0,0,.61-1.9v-.5a.8.8,0,0,0,.08-.16.5.5,0,0,0,.19-.45.61.61,0,0,1,.07-.1.41.41,0,0,1,.06-.1c.3-.24.24-.57.22-.89a.66.66,0,0,1,.06-.2c.06-.1.11-.2.16-.3a4.66,4.66,0,0,0,.6-2.61,2.75,2.75,0,0,1,.09-.5l.07-.16a2.13,2.13,0,0,0,.4-1.48c0-.14,0-.27,0-.4v-.17a.24.24,0,0,0,.05-.14,2,2,0,0,0,.47-2.13.22.22,0,0,0,0-.16c.05-.17.09-.34.13-.5h.17v-.13s0,.07,0,.11c.11-.16.31-.32.31-.5.26-1.42.51-2.84.81-4.25a17.44,17.44,0,0,0,.21-4.56c-.07-1.27-.12-2.54-.12-3.81A10.71,10.71,0,0,0,261,281a6.68,6.68,0,0,1-.34-3.54,1.45,1.45,0,0,0-.4-1.27,2.68,2.68,0,0,1-.44-2c0-.52.38-.61.67-.32a5.36,5.36,0,0,0,3.6,1.47c1.09.09,2.06.8,3.2.6a.57.57,0,0,0,.48.15c.27.6.78.52,1.27.51h.23a9.18,9.18,0,0,0,5.2.59c1-.11,2.13.15,3.05-.46.29,0,.62.12.86-.17a.88.88,0,0,0,1-.51l-1,.51h-.2a2.25,2.25,0,0,0,1-.5,2.62,2.62,0,0,1,.46-.19,1.18,1.18,0,0,0-.21.18,1,1,0,0,0,.85-.34h-.24a12.09,12.09,0,0,1,1.87-1.19,4.07,4.07,0,0,1,.44-.18,1.54,1.54,0,0,0-.19.17.64.64,0,0,0,.71-.34,1,1,0,0,0-.34.07l.09-.06.51-.34a4.09,4.09,0,0,0,1-.71c.31-.21.67-.49,1-.71s.63-.62,1-.85a1,1,0,0,1,.52-.51c.29-.12.58-.21.71-.51L288,270c.53.3.23.81.23,1.21a2,2,0,0,0,.14.71.54.54,0,0,0,.49.47,4.13,4.13,0,0,0,.15.5,2.18,2.18,0,0,0,.42,1.06c.05.09.08.18.13.27v.17a2.34,2.34,0,0,0,.14.58.81.81,0,0,0,.34.57l0,.05a.4.4,0,0,0,.17.34.91.91,0,0,0,.18.21c.08.26.29.34.59.35a2.37,2.37,0,0,1,.8,1,1.12,1.12,0,0,0,.13.44c.08.45.39.66.95.63l.1.07a1.31,1.31,0,0,0,.71.6.37.37,0,0,0,.17.33,1.14,1.14,0,0,0,.11.4.67.67,0,0,0,.61.62l.09.06a.78.78,0,0,0,.62.46,3.33,3.33,0,0,0,1,.33l.07,0c.32.49.84.49,1.35.49h-.07a1.08,1.08,0,0,0,.71.17h0a1.79,1.79,0,0,0,2.21,0h0a.32.32,0,0,0,.34-.17l.14,0L301,282h1.2c.33,0,.71.14,1-.17l.34-.33.17-.17h0c.51-.08,1.05.16,1.53-.18.45.05.71-.25,1-.51a2,2,0,0,0,.91,0c1.2-.64,2.41-1.26,3.61-1.88a2.42,2.42,0,0,0,.36-.18,1,1,0,0,0,.75-.82l-.08.07c0-.2.2-.31.35-.46.62-.63,1.62-.63,2.2-1.34a1,1,0,0,0,.3-.14.7.7,0,0,0,.64-.71l-.07.06c.09-.38.23-.67.71-.63a.67.67,0,0,0,.21-.09,1.08,1.08,0,0,0,.83-.63,5.77,5.77,0,0,0,1.35-1.35s.06,0,.09-.05h.13a.69.69,0,0,0,.45-.31.71.71,0,0,0,.11-.53l-.08.1v0a4.29,4.29,0,0,1,1.51-1.86c.56-.41.66-.84.13-1.31-.23-.2-.35-.36-.13-.62.39-.43.71-.87,1.1-1.27a1.19,1.19,0,0,1,1.28-.16c.35.12.22.54.22.88a9.19,9.19,0,0,0,0,1.05,1.32,1.32,0,0,0-.71,1.19l0-.05-.05.1-.17,1.37a.87.87,0,0,0-.41.92h0v1c-.08,1.61.29,3.2.17,4.82a.6.6,0,0,0,.34.63v0l.19.4a3.34,3.34,0,0,0,.25.4l-.3-.32a2.42,2.42,0,0,0,1.54,1.7l-.33-.37c.12.1.24.2.37.29l.19.16a.9.9,0,0,0-.23-.08,1.18,1.18,0,0,0,1,.71l-.18-.17a.92.92,0,0,0,.23.09,6.12,6.12,0,0,0,2.55.85,4.29,4.29,0,0,0,.65.31,2.52,2.52,0,0,1-.71-.26l.22.18a2.13,2.13,0,0,0,3-.52,2.7,2.7,0,0,1-.53.35,4.49,4.49,0,0,0,.57-.4l.3-.3a1,1,0,0,0,.51-.51l.07-.05c.6-.81,1.65-1,2.37-1.68v0h.07a.48.48,0,0,0,.44-.5l0-.06a42.35,42.35,0,0,0,3.55-3.54c.64-.09.71-.52.71-1l-.11.14v-.37l.17-.2a.82.82,0,0,0-.1.26,1.1,1.1,0,0,0,.71-1.19,1,1,0,0,1-.13.22.67.67,0,0,0,.06-.28,9.12,9.12,0,0,1,1.7-1.7,1.56,1.56,0,0,0,.2-.16,1.77,1.77,0,0,0-.16.22h.08a.52.52,0,0,0,.33-.16.49.49,0,0,0,.11-.35,1,1,0,0,0-.2.15l.16-.21c.17-.32.34-.71.52-1,.08-.14.17-.31.36-.25s.14.27.14.42v.15a.9.9,0,0,0-.2.71c0,1.08-.42,2.19.22,3.23.17.23,0,.52.17.71v.15a1.31,1.31,0,0,0,.71,1.42c.09.53.61.76.85,1.18l0,.06c.23.71.86,1.08,1.37,1.53v.07a.47.47,0,0,0,.49.44.52.52,0,0,0,.17.48l.06.07-.07,0a1,1,0,0,0,1.18.84v-.12a.36.36,0,0,0,.07.1l.17.17v.07a.45.45,0,0,0,.42.43h0l.17.17a.47.47,0,0,0,.45.43h0l.18.17v.08a.44.44,0,0,0,.16.33.49.49,0,0,0,.35.11l.34.34a.55.55,0,0,0,.59.31H351a1.15,1.15,0,0,0,1.06.64h2.54a1.05,1.05,0,0,0,1-.52h0v-.13l.13,0A3.45,3.45,0,0,0,357,283l.12,0,.71-.51a.37.37,0,0,1,.32-.09c1,.29,1.76-.51,2.7-.51.19,0,.33-.2.41-.39a.53.53,0,0,1,.16-.2.54.54,0,0,1,.51-.18c.6-.11,1-.77,1.63-.71l.23-.07c.31-.15.65,0,1-.15.91-.59,2.07-.43,3-1,.26-.19.56-.12.85-.16.47-.06.77-.47,1.18-.66a3.55,3.55,0,0,0,1.43-.6c.77,0,1.29-.71,2-.76a3.19,3.19,0,0,0,1.08-.6,4.35,4.35,0,0,0,.95-.13h.21a3.74,3.74,0,0,0,.8-.26l.34-.19v-.07l.15,0a18.62,18.62,0,0,0,3.25-1.2,11.7,11.7,0,0,1,2.09-.71,6.19,6.19,0,0,0,2.44-1,.28.28,0,0,0,0-.18,24.15,24.15,0,0,1,2.21-1.13c.91-.39,1.9-.59,2.76-1,1.11-.59,2.34-.51,3.48-.86.28-.44.84-.51,1.2-.85h.07c.41,0,.84,0,1.16-.34a1,1,0,0,1,.71-.32v0l1.34-.65a28.09,28.09,0,0,1,5.53-2.13,1.15,1.15,0,0,0,.9-.55h0v0l.66-.16.34-.51.09,0a3.06,3.06,0,0,0,1.61-.76c1.35-.88,3-1.07,4.41-1.78h0c1-.13,1.91-.93,3-.77.06,0,.13-.11.2-.15,1.95-1.07,3.55-2.7,5.84-3.25a1.62,1.62,0,0,0,1.17-1.1l.15-.17h.07a.47.47,0,0,0,.43-.49l.16-.17h.06a.47.47,0,0,0,.44-.49l.15-.16c.31-.41.64-.8.93-1.22A.71.71,0,0,0,423.78,252.87Zm-70.14,5.95v0Zm-50.35-10.28v.16a.2.2,0,0,0,0-.13Zm11.48-96.28-.06.12v-.12Zm-1.43,16.06.05.06h-.06a.19.19,0,0,0,0-.06ZM288.42,218.4v-.07a1.09,1.09,0,0,1,.38-.54A7.07,7.07,0,0,1,288.42,218.4Zm10.95-28.75.09-.13a.19.19,0,0,1-.09.14Zm-.71-44.56-.08.06v-.06ZM279.6,160.38l.12-.14a.42.42,0,0,0,0,.1l-.09.11v-.08Zm-9.72,17H270l-.07,0Zm-17.43,56v0ZM252,250.89a19.55,19.55,0,0,1,.77-3.8.67.67,0,0,1,.14-.15l.13-.15c.61-.32.6-1,.71-1.58a6.52,6.52,0,0,1,1.5-3.5,1.24,1.24,0,0,0,.36-1.18c-.31-1.25.15-2.4.33-3.59.07-.12.11-.27.17-.39a1.13,1.13,0,0,0,.25-.5.83.83,0,0,1,0-.15c.05-.17.1-.35.14-.52s.13-.44.18-.66a8.19,8.19,0,0,0,.28-1.11c.07-.19.14-.39.22-.57l.11-.24a.21.21,0,0,1,0-.13,1.09,1.09,0,0,0,.25-.81V230.4a1.9,1.9,0,0,1,.09-.36,2.25,2.25,0,0,0,.08-.24,1.56,1.56,0,0,1,.1-.37c.14-.35.28-.69.39-1.05a2.13,2.13,0,0,0,.15-.49,1.87,1.87,0,0,0,.07-.22c.1-.29.2-.57.29-.87a4.35,4.35,0,0,0,.18-.71l.09-.59.06-.3,0-.16a4.09,4.09,0,0,1,.18-.49,4,4,0,0,1,.36-.64,5.91,5.91,0,0,0,.55-1.68,9.57,9.57,0,0,0,.22-1.32l0-.22a2.55,2.55,0,0,1,.18-.53,2.21,2.21,0,0,0,.37-.81,1.41,1.41,0,0,0,0-.41,6.05,6.05,0,0,1,.29-1.09l.06-.17,0-.11a4.74,4.74,0,0,1,.24-.51.56.56,0,0,0,.09-.17c.18-.22.1-.48.12-.71l.19-.62.24-.61c.18-.43.37-.84.55-1.26a2.33,2.33,0,0,0,.26-.66c.05-.12.1-.23.14-.35a1.21,1.21,0,0,0,0-.18c.18-.22.08-.49.11-.71a3.46,3.46,0,0,1,.67-1.2.65.65,0,0,0,.34-.71,4.49,4.49,0,0,1,.63-1.82,5.87,5.87,0,0,0,.52-1.51,41.49,41.49,0,0,1,1.5-4.62l.07-.19c.31-.37.14-.8.16-1.22v-.07a27.17,27.17,0,0,0,1.24-2.75l.12-.29a10.12,10.12,0,0,0,.84-2.35.48.48,0,0,1,.08-.18,3.1,3.1,0,0,1,.45-.79,2.17,2.17,0,0,0,.46-.89,13.37,13.37,0,0,1,1.31-3.88,1.7,1.7,0,0,0,.28-.61v-.06c.14-.33.27-.66.4-1,.22-.64.78-1.12.83-1.81l.1-.17c.29-.64.55-1.31.85-1.94s.43-1.23.65-1.82l.17-.39a3.83,3.83,0,0,1,.34-.63c.89-1.24,1.31-2.78,2.14-4s1.2-2.84,2-4.08a21.79,21.79,0,0,0,1.48-2.56,5.39,5.39,0,0,1,.39-.8,20.28,20.28,0,0,0,2.52-4.19.72.72,0,0,0,.09-.2c.1-.25.22-.49.31-.71h0l.17-.17a.71.71,0,0,0,.71-.71.8.8,0,0,0,.47-.61v-.05a.8.8,0,0,0,.47-.66l3.75-4.25.16-.17a3.28,3.28,0,0,0,.85-.81c.56-.6.79-1.47,1.5-1.92,2-1.29,3.35-3.31,5.38-4.6,1.58-1,3.1-2,5.08-1.87a2.12,2.12,0,0,0,.82-.18,4.43,4.43,0,0,1,3.35.46,2.7,2.7,0,0,1,1.27,1.09,23,23,0,0,0,1.44,2.56v0a6.82,6.82,0,0,0,.29,2c.14.58.25,1.17.34,1.75v.39a1,1,0,0,0,.12.64,8.25,8.25,0,0,1-.59,3.9,1.16,1.16,0,0,0-.14.48,22.67,22.67,0,0,1-.41,3.18,10.35,10.35,0,0,1-1.19,3.55,10.22,10.22,0,0,0-1.08,3,39.16,39.16,0,0,1-1.26,4.51c-.33,1.14-1.3,2-1.71,3.1a1.24,1.24,0,0,0-.58.78,13.18,13.18,0,0,1-1.3,3.32,2.87,2.87,0,0,0-.71,2.09c.05.42-.26.71-.49,1a10.26,10.26,0,0,0-1.38,2.29,1.71,1.71,0,0,0-.33,1.22,16.73,16.73,0,0,1-1.8,2.83.82.82,0,0,0-.06.41c-.67,1.42-1.38,2.76-2.09,4.18-.45.89-.93,1.75-1.42,2.62l-.15.22a3.19,3.19,0,0,0-1,1.33,2.45,2.45,0,0,0-.79,1.53,1.89,1.89,0,0,0-.11.25c-.07.16-.15.32-.23.48l-.16.23a.74.74,0,0,0-.33.48.35.35,0,0,0-.05.08c-.05.07-.12.12-.12.19l-.1.17a1.35,1.35,0,0,0-.49.86l-.16.19a.62.62,0,0,0-.35.55l-.05.09c-.07.21-.08.36-.18.63a1.51,1.51,0,0,1-.11.22.79.79,0,0,0-.34.56,1.23,1.23,0,0,0-.5.51,2.15,2.15,0,0,0-.78,1.27l-.09.15a2.77,2.77,0,0,1-.22.37,1.85,1.85,0,0,1-.14.14.53.53,0,0,0-.27.28s-.07.08-.11.12a2.32,2.32,0,0,0-.6.82,1.13,1.13,0,0,1-.12.21,1.08,1.08,0,0,0-.55.88l-.09.16c-.23.52-.54.95-.79,1.42-.06.08-.14.15-.2.23a.41.41,0,0,0-.27.29l0,0-.23.22-.05.06a.46.46,0,0,0-.37.43.36.36,0,0,0-.07.1,1,1,0,0,0-.11.31l-.05.1a2,2,0,0,0-.92,1.14l-.08.06a6.24,6.24,0,0,0-.71,1l-.06.16a.92.92,0,0,0-.24.54,1.14,1.14,0,0,0-.51.51,1.43,1.43,0,0,0-.62.71l-.11.12c-.25.33-.49.66-.71,1l-.06.11a.74.74,0,0,0-.34.44,1.83,1.83,0,0,1-.13.16c-.32.43-.64.87-1,1.28a1.29,1.29,0,0,1-.17.16.78.78,0,0,0-.37.3c-.05,0-.11.08-.17.12a6.84,6.84,0,0,0-1.66,2.42,1.25,1.25,0,0,0-.81.71,1.4,1.4,0,0,1-.09.29,1,1,0,0,0-.38.45l-.15.09a3.53,3.53,0,0,0-.63.71l-.33.4a4.11,4.11,0,0,0-.38.45l-.83,1c-.86,1-1.74,2.13-2.63,3.14a5.18,5.18,0,0,0-1.42,1.79,10.28,10.28,0,0,1-1.53,1.7h0c-.39,0-.45.35-.51.64v0a12.7,12.7,0,0,0-1.47,1.55,3.23,3.23,0,0,0-.47.63,12.09,12.09,0,0,0-.79,1.22l.08,0-.08.08c-1.42,1.42-3,2.68-4.32,4.17a56.51,56.51,0,0,1-6.35,6.22l-.16.17-.14.12a.27.27,0,0,1-.23,0c-.36-.25-.22-.56-.22-.79Zm-28.81,8.64a33,33,0,0,0-.37,3.43.48.48,0,0,0,.15.22c-.41.17-.47.59-.62,1a16.1,16.1,0,0,1-1,2.59,35.29,35.29,0,0,1-3,5,.55.55,0,0,0-.17.45,1.33,1.33,0,0,0-.78.71,3.18,3.18,0,0,1-.16.32,4.56,4.56,0,0,1-.33.44.9.9,0,0,1-.53.17.83.83,0,0,0-.35.14,1.89,1.89,0,0,0-.6.35.65.65,0,0,1-.15.1.73.73,0,0,1-.25.08h-.23a1.28,1.28,0,0,1-.56-.47,5,5,0,0,1-.91-2.61V265a5.16,5.16,0,0,1,.43-1.78,29.62,29.62,0,0,0,.92-3.35A2.63,2.63,0,0,1,215,259a11.83,11.83,0,0,0,1.72-2.83,8.46,8.46,0,0,1,1.72-3.44,3.26,3.26,0,0,0,.51-.86,12.63,12.63,0,0,1,1.62-3.14c.66-.71.79-.71,1.27.16a8,8,0,0,0,.58,1.08,7,7,0,0,1,.28.71,1.33,1.33,0,0,0,.11.24l0,.1a6.81,6.81,0,0,0,.4,2.83,3.43,3.43,0,0,1,.35,1.44A33.79,33.79,0,0,1,223.15,259.53Zm1.51-20.27h-.08l.08,0Zm0,35h0Zm4.4-7.86a.27.27,0,0,0,.1.06h-.1l0,0Zm15.68-25.68h0Zm-3.89,17.68a.54.54,0,0,1,0-.18l.08.2Zm-1,56.51.06.05h-.06Zm3.57,4.58v0Zm9.89-52.19.22.17.32.29a5,5,0,0,0-1.2-.71,2.68,2.68,0,0,1,.68.27Zm-6.4-21.66q0-.32,0-.63a.54.54,0,0,0,0-.18.31.31,0,0,0-.06-.13v0c.14.19.14.49.09,1Zm-.07.57v0Zm-.09.23a5,5,0,0,0-.42,1.42,3.85,3.85,0,0,1,.46-1.4Zm-.92,3.12a2,2,0,0,0,.13-.41l.15-.42a7,7,0,0,1-.3.88l0,0Zm11.59,39.8-.06.11a1.22,1.22,0,0,0-.1.24V290a0,0,0,0,1,0,.05c-.22,1.18-.21,2.41-.44,3.59-.34,1.75-.91,3.54-1.33,5.3a30.68,30.68,0,0,1-1.61,5,10.81,10.81,0,0,0-.89,2.27,13.32,13.32,0,0,0-.42,1.36,1.5,1.5,0,0,0-.15.51l-.18.43a1.66,1.66,0,0,0-.26.47c-.63,1.12-.83,2.42-1.5,3.55s-1.28,2.52-2,3.75c-.2.28-.39.41-.61.4h0A3.55,3.55,0,0,1,247,316a1.68,1.68,0,0,1-.28-.84v-.31a3.54,3.54,0,0,0,0-.92,16.16,16.16,0,0,1-.84-5,.5.5,0,0,0-.13-.25v-.11a3.89,3.89,0,0,0-.15-.84,8.92,8.92,0,0,0-.08-1.16,11.34,11.34,0,0,0-.12-2.73v-.64a1.34,1.34,0,0,0,0-.35,1.43,1.43,0,0,0-.12-.95v-.09c0-.35,0-.71-.4-.94a0,0,0,0,1,0-.05v-2l.33-.14c.24-.2.16-.52.16-.78v-2.76a11,11,0,0,0-.17-2.22,0,0,0,0,1,0-.05v-2.19l.15-.64a.11.11,0,0,1,.05-.11,1.4,1.4,0,0,0,.5-1.2c0-.81.06-1.63.06-2.44,0-1.41.72-2.79.64-4.15s.36-2.77.26-4.07.63-2.31.71-3.49a.72.72,0,0,0,.35-.71,23.22,23.22,0,0,1,1-4.35c.27.16.3.53.61.57v.07a2.09,2.09,0,0,0,.2.22,1.77,1.77,0,0,0,.41.41,1,1,0,0,1,.1.17,2.17,2.17,0,0,0,.6.75l.14.12c.47.62,1,1.19,1.91.92a1.45,1.45,0,0,1,1.33.23l.11.18.19.39a.31.31,0,0,1,.05.1,2.69,2.69,0,0,0,.55,1.2.52.52,0,0,1,.05.12c.11.23.23.47.34.71a1,1,0,0,1,.07.15.93.93,0,0,0,.25.6v.06a2.42,2.42,0,0,0,.19.4l.08.16a2.94,2.94,0,0,0,.37,1v.06a1.87,1.87,0,0,0,.07.22v.06a1,1,0,0,0,.22.71l.06.21c.11.37.2.76.33,1.13,0,.13.08.26.11.39a53.34,53.34,0,0,1,.24,8.57Zm3.64.27v-.2a6.26,6.26,0,0,1,0,.86,3.11,3.11,0,0,0,.07-.67Zm16.65-13.16s0,0-.05-.05h.09v0Zm13.44-17.08a1.23,1.23,0,0,1,.07-.32.69.69,0,0,1,0,.32Zm1.29-5,0-.07h.18l-.11,0Zm5.93,23a.6.6,0,0,0,.09.15.27.27,0,0,1-.06-.17Zm1.52,1.15v-.06l.06.06Zm18.75-13.52a.44.44,0,0,1-.17.16l.18-.18Zm4.6,3.47,0,.05a.08.08,0,0,1,0-.07Zm2.58-7.36v-.06h.05Zm18.1-23h0Zm-8.62,7.49c0-.08.05-.13.08-.2a.51.51,0,0,1,0,.21h-.05Zm-1.2,1.14a2.88,2.88,0,0,1-.35.26Zm13.55,33.78h.12v0l-.08,0Zm.13-.13v-.09a.31.31,0,0,0,.05.1ZM350.52,247l-.09.23-.13.31c-.14.17-.22.41-.42.51a.34.34,0,0,0-.24.41l-.05.05v0a.48.48,0,0,0-.42.31,27.69,27.69,0,0,0-2,3.92,20.62,20.62,0,0,1-2.77,4.8c-1,1.55-2.13,3-3.12,4.63a.85.85,0,0,0-.19.79c-.25,0-.25.13-.17.31a3.55,3.55,0,0,0-2.09,2.24v0h0a9.14,9.14,0,0,0-1.29,1.42,22.86,22.86,0,0,1-6.35,5.89c-.75.44-.95.41-1-.31a.45.45,0,0,0,.12-.21,9.33,9.33,0,0,0,.57-2.21,25.57,25.57,0,0,1,.37-2.75c.24-1.26,1.18-2.32,1.24-3.67,0-.22.21-.39.35-.57a3,3,0,0,0,.6-1.56,7.8,7.8,0,0,1,1.87-4.34,2.81,2.81,0,0,0,.8-2.58.69.69,0,0,0,.19-.1l.11-.11a1.79,1.79,0,0,0,.47-.52c.21-.21.41-.42.61-.64h0a1.85,1.85,0,0,0,.9-1.26l.07-.22a3.26,3.26,0,0,0,.23-.81V251s.07-.25.1-.38a.9.9,0,0,1,.31-.36,6.25,6.25,0,0,0,2.29-2.13,4,4,0,0,1,2.14-1.85A6.06,6.06,0,0,0,345.9,245a3.9,3.9,0,0,1,4.31-.42.68.68,0,0,1,.21.1,1,1,0,0,1,.34,1.36,2.91,2.91,0,0,0-.23.55.79.79,0,0,0,0,.43Zm35,25.06h-.06l.06-.06s0,.05,0,.07Zm34.68-15.37a.21.21,0,0,0,.15,0h-.17ZM412.8,260l-.17.05.1,0Zm-6.11.93v0h0Zm-4.56,2.48-.06.06-.57.2.61-.24Zm18.48-6.7h0Zm1.31-2.08h0Z" transform="translate(-68 -134)"/><path id="Shape-4" data-name="Shape" class="cls-2" d="M252.31,229c.4-.05.48-.35.48-.71s-.24-.48-.58-.48-.63.15-.61.6v.09a.61.61,0,0,0,.71.5Zm-47.16,31a4.75,4.75,0,0,0,.72-1.7A1.85,1.85,0,0,0,205.15,260Zm.72-1.7.71-1.87A1.83,1.83,0,0,0,205.87,258.26Zm77.47,15.66c.52.05.78-.3,1-.71C283.91,273.3,283.68,273.72,283.34,273.92Zm1-.68c.53,0,.78-.3,1-.71C284.93,272.62,284.69,273,284.36,273.24Zm-79.83-11.06v1.88A2.21,2.21,0,0,0,204.53,262.18Zm80.87,10.38c.52-.08.72-.49,1-.85C285.9,271.79,285.66,272.2,285.4,272.56Zm-39.93-24.68c.39-.51,0-1.18.34-1.7C245.08,246.63,245.67,247.34,245.47,247.88Zm-52.88-30.47,1,1.19A1.35,1.35,0,0,0,192.59,217.41Zm14,39a2.41,2.41,0,0,1,1-.85C207,255.45,206.58,255.67,206.58,256.39Zm-2.05,4.77a1.53,1.53,0,0,0,.51-.86A.82.82,0,0,0,204.53,261.16Zm83.07,9.53-.71.51C287.29,271.21,287.6,271.13,287.6,270.69Zm-99.1-58h-1.18A1,1,0,0,0,188.5,212.65Zm16,48.51a.76.76,0,0,0,0,1Zm107.94-54.59c-1.39,1.13-1.66,2.83-2,4.36a13.72,13.72,0,0,0-.24,5.56c.12.66.42,1.06,1,1.06a2.26,2.26,0,0,0,2.13-.82c.64-.53,1.55-.76,1.85-1.67a1.54,1.54,0,0,0,.6-.71c1-1.64,1.54-3.44,2.64-5a1.06,1.06,0,0,0,.51-.85c.26-.76,1-1.25,1.19-2h.18l.05-.05a.56.56,0,0,0,.14-.41.58.58,0,0,0-.19-.39h-.07a.53.53,0,0,0-.34-.49c-.55-1.58-1.59-2-3.05-1a13.9,13.9,0,0,1-2.93,1.66A4.16,4.16,0,0,0,312.47,206.57Zm.57,9.49v0Z" transform="translate(-68 -134)"/></g><path id="Shape-5" data-name="Shape" class="cls-3" d="M431.64,186.12l-.23-.14-.21.22-.65.85a1.15,1.15,0,0,1-1.19.47c.05-.08.08-.15.13-.22a19.85,19.85,0,0,0,1.53-3,25.05,25.05,0,0,0,1.47-4.94,20.67,20.67,0,0,0,.37-4.23,13.92,13.92,0,0,0-1.36-5.84,19.18,19.18,0,0,0-7.12-8.15,13,13,0,0,0-4.73-1.88,11.53,11.53,0,0,0-3.47-.08,20.74,20.74,0,0,0-3.19.65,24.92,24.92,0,0,0-3.66,1.31c-1.43.63-2.8,1.25-4.15,2s-2.55,1.49-3.82,2.25l-.19.08c0-.07-.05-.13-.07-.21l.51-.32,2.6-1.47.09-.05a19.06,19.06,0,0,1,2.73-1.5,37.41,37.41,0,0,1,4.28-1.94,23.66,23.66,0,0,1,4.82-1.29,16,16,0,0,1,3-.13h.36a.71.71,0,0,0-.32-.38c-.13-.08-.27-.12-.4-.19l-.36-.18v-.07l.71.09c.35,0,.71.07,1.05.09a1.47,1.47,0,0,0,.71-.15l-.18-.05-1.59-.31a4.47,4.47,0,0,0-2.35.06c0-.21-.17-.22-.32-.2a.55.55,0,0,1-.47,0l.24-.07a8.73,8.73,0,0,1,1.84-.08l1.69.09a1.89,1.89,0,0,0,.78-.1,8.43,8.43,0,0,0-3.08-.27c-.07-.13-.06-.2.09-.22H418a8.92,8.92,0,0,0-3,.07c-1,.18-1.92.38-2.91.54l.15,0a31.08,31.08,0,0,1,3.13-1.2,5,5,0,0,1,1.84-.16c1,.06,1.95.11,2.92.21a14.71,14.71,0,0,1,4.5,1.2,8.42,8.42,0,0,1,1.19.7c.42.28.83.6,1.24.88a3.49,3.49,0,0,0,1.11.55.34.34,0,0,1,.2,0c0-.15-.13-.19-.22-.25l-.5-.38c-.17-.14-.17-.2,0-.33h.07c.72.56,1.43,1.09,2.09,1.67a11.21,11.21,0,0,1,1.09,1.09,3.8,3.8,0,0,1,.89,1.41l.06.15c.16-.07.08-.22.15-.33.33.13.45.5.71.7a.56.56,0,0,0-.09-.35c.05-.07.11-.1.17,0a.94.94,0,0,1,.12.18c.08.17.15.34.35.4-.15.2-.32-.2-.46.07a4.44,4.44,0,0,1,.76,1,2.4,2.4,0,0,0,.72.7.48.48,0,0,0-.15-.41l-.35-.36a.33.33,0,0,1,0-.42,1.8,1.8,0,0,0,.19.2v-.1a9.45,9.45,0,0,0-2-3.09l-.31-.31a1.1,1.1,0,0,0-.71-.39,1.9,1.9,0,0,1-.72-.3,10.68,10.68,0,0,1-1-.7c-.31-.26-.6-.55-.91-.81s-.35-.26-.55-.41v.15a.36.36,0,0,1-.31-.21.72.72,0,0,1-.09-.2.19.19,0,0,0-.22-.12,1.28,1.28,0,0,0,.07.28c0,.12-.15.06-.2,0a.69.69,0,0,1-.24-.18c0-.07,0-.17,0-.27s-.07-.21-.11-.32l-.14.16a.34.34,0,0,1-.21.14.4.4,0,0,1-.24-.05h0s-.06-.1,0-.14a.19.19,0,0,1,.13-.05l.24.06a.15.15,0,0,0,.11-.08.08.08,0,0,0,0-.07.07.07,0,0,0-.05,0L426,157c-.84-.29-1.69-.58-2.52-.89a18.13,18.13,0,0,0-3.23-.87.86.86,0,0,0-.32,0l2,.51-.21.05a5.57,5.57,0,0,1-1.95-.13l-1.68-.38,1.17-.14V155c-.42,0-.85-.08-1.28-.08-.84,0-1.69,0-2.54.07-.13,0-.28,0-.35.13l-.13.06-1.42.48c-.95.29-1.88.59-2.81.9-.47.22-.94.41-1.43.59a9.59,9.59,0,0,0-1.49.48c-.35.14-.72.25-1.06.37s-.53.21-.79.32a5.25,5.25,0,0,1-1.16.38,6,6,0,0,0-1.42.51c-.83.42-1.67.82-2.49,1.24-.35.17-.72.39-1,.58-.14.07-.32.1-.46.17a7.3,7.3,0,0,1-.68.36,3.73,3.73,0,0,0-.89.64.73.73,0,0,1,.1-.28,1.94,1.94,0,0,0-.6.54l.18.24.71.82a2.05,2.05,0,0,1,.53,1.21c0,.09.07.21-.06.27s-.17-.06-.24-.13l-.2-.19a1.41,1.41,0,0,0,.22,1c.14.3.3.6.47.92h-.29v.5a.52.52,0,0,1-.49-.19l-.46-.5a.68.68,0,0,0-.52-.26c.08.17.13.33.21.46s.31.49.45.71a.68.68,0,0,1,.14.46l-1,.3a.2.2,0,0,1-.15-.06.52.52,0,0,1-.14-.16l-2.95-3.53c-.27-.32-.51-.7-.76-1h.19a.39.39,0,0,0-.05-.14c-.57-1-1.12-2-1.7-3a27.13,27.13,0,0,0-5.82-6.77,29.28,29.28,0,0,0-4.71-3.26,9.29,9.29,0,0,0-2.85-1c-1-.19-1.92-.34-2.85-.55a14.34,14.34,0,0,1-1.42-.41c-.29-.09-.34-.09-.48.17a.46.46,0,0,1-.49.27,7.15,7.15,0,0,0-4.09,1.22,13.14,13.14,0,0,0-2.76,2.45c-.25.28-.48.57-.71.86a.84.84,0,0,1-.47.36,1.51,1.51,0,0,0-.35.14,2.21,2.21,0,0,1-.46.78,4.39,4.39,0,0,0-.32.51c0,.07-.06.15-.16.15a.62.62,0,0,0-.44.31,5,5,0,0,0-.32.48.92.92,0,0,1-.49.44v.33a5.51,5.51,0,0,1-.26,2.48.42.42,0,0,1-.24.28,1.27,1.27,0,0,0-.27.18.85.85,0,0,0-.27,1.19.31.31,0,0,0,.07.09c-.29.1-.41.36-.59.56,0,.23.27.26.39.4-.05.19-.1.39-.16.59a16.42,16.42,0,0,0-.71,2.67c-.06.37-.09.7-.14,1.09v.24c-.23-.1-.21.27-.46.21a2,2,0,0,1,.07-.23.41.41,0,0,0-.11-.43.91.91,0,0,1-.36-.76h0c-.09.13-.09.13,0,.38h-.38c-.17,0-.22,0-.22.2,0,1.32-.07,2.63-.08,3.94a10.31,10.31,0,0,0,.3,2.47l.09.31a.94.94,0,0,0,.22-.64,9,9,0,0,0,0-1c0-.71-.1-1.42-.13-2.08a2.43,2.43,0,0,1,.28-1.24c0-.06.08-.13.12-.18a.31.31,0,0,1,.09-.07c.14.52,0,1.05.1,1.58a.3.3,0,0,0,.2-.31v-.85a.35.35,0,0,1,.35.3,3,3,0,0,1,.07.52.58.58,0,0,0,.42.55c-.1.35-.18.71-.28,1,0,.13,0,.23.11.28s.12.09.1.19a11.32,11.32,0,0,0,.07,2.4c0,.33.06.66.06,1a5,5,0,0,1-.06.94,2.68,2.68,0,0,1,.71,1.55c.06.21.11.41.17.61a1.2,1.2,0,0,0,.71.85,1.69,1.69,0,0,0-.05,1c.1.31.24.59.37.91l-.32.32c.05.05.09.11.14.15l.72.7a5,5,0,0,1,1.26,2.46v.08c-.14,0-.28,0-.29.23a.5.5,0,0,0,.19.48.92.92,0,0,0,.8.16l.19-.07a2.89,2.89,0,0,1,.26.63c.15.38.29.76.45,1.12.08.19.17.37.26.55l-.92.54a5.19,5.19,0,0,0,.17.52,4.72,4.72,0,0,0,.75,1.18c.33.39.66.78,1,1.19a3.89,3.89,0,0,1,.65,1.16.67.67,0,0,1,0,.31l-.2-.21c-.86-1-1.63-2.12-2.4-3.22l-2-2.93a1.7,1.7,0,0,0-.51-.49,2.77,2.77,0,0,1-.83-.84,8.82,8.82,0,0,1-.83-1.58l-.71-1.76c-.06-.16-.14-.31-.23-.51a.48.48,0,0,0-.09.4,4.48,4.48,0,0,0,.2.62c.09.24.23.46.33.7a1.28,1.28,0,0,1,.1.43,4.33,4.33,0,0,1-1.11-1.89h-.37a2.12,2.12,0,0,1,.13.2c-.1.09-.19.09-.24,0a3.77,3.77,0,0,1-.32-.78,9.43,9.43,0,0,1-.17-1.17,7.32,7.32,0,0,0-.09-.93.78.78,0,0,0-.45-.7.63.63,0,0,1-.16-.24,13.11,13.11,0,0,1-.95-3.41c-.09-.56-.13-1.14-.2-1.71v-.22c.24.44.46.85.72,1.29a1.44,1.44,0,0,0-.23,1.08,4.82,4.82,0,0,0,.6,1.73l.05.06h.07c.15-.22-.09-.4-.06-.63a2.1,2.1,0,0,1,.5,1,1.43,1.43,0,0,0,.14-.61,3.65,3.65,0,0,0-.08-.81,5.14,5.14,0,0,0-.3-.94,7.37,7.37,0,0,1-.51-2.54,29.34,29.34,0,0,1,.22-4.19,43.85,43.85,0,0,0,.46-5v-1a.27.27,0,0,0-.07-.2,1.13,1.13,0,0,0-.35-.21.44.44,0,0,0-.15.08,4.85,4.85,0,0,0-.29.61,6.21,6.21,0,0,0-.2,1.77V164l-.15-.17-.32.21a7,7,0,0,0,.15-.71c.05-.39.08-.77.13-1.16s.16-1,.25-1.51c-.09-.07-.19,0-.26.08a3,3,0,0,0-.27.42v.15l-.12,1a.77.77,0,0,1-.07.16c-.08-.19-.07-.34,0-.93a2.27,2.27,0,0,0-.18.25,4.25,4.25,0,0,0-.54,1.48,10.82,10.82,0,0,0-.14,2,.51.51,0,0,1-.11.33,6.21,6.21,0,0,0-.26.59c.09-1.41.37-2.82.48-4.31a.33.33,0,0,0-.3.25c-.06.23-.11.47-.15.71s-.06.52-.1.78a.7.7,0,0,1-.47.64c.05.22.1.44.13.65a7,7,0,0,1,.08.79.86.86,0,0,1-.31.71.29.29,0,0,0-.12.29,6.44,6.44,0,0,0,.1.87,2.24,2.24,0,0,1,0,1,2,2,0,0,0,0,.6c.1.54.16,1.08.23,1.63a8.88,8.88,0,0,0,.64,2.63c.09.2.07.24-.1.36s-.2.14-.1.36l.34.78c.22.48.44,1,.65,1.41,0,.07.07.14.1.21s.15-.16.1-.28a2.16,2.16,0,0,1-.1-.25.14.14,0,0,1,0-.14.16.16,0,0,1,.12-.08c.24.21.1.52.23.77l-.29.18a4,4,0,0,0,.37.22.37.37,0,0,1,.21.3c.16.6.31,1.2.49,1.8a1.79,1.79,0,0,0,.51.84c0,.11-.24.15-.11.32l.14-.05v0a.67.67,0,0,0,.14.56,4.42,4.42,0,0,1,.34.6c0,.08.1.17,0,.28s0,.12.07.15a2,2,0,0,0,.23.06,2.14,2.14,0,0,0,.42,1.05c.58,1,1.14,1.93,1.72,2.89.87,1.46,1.86,2.82,2.84,4.23.21.31.45.58.66.88a1.89,1.89,0,0,1,.11.25h.18l.92.92a1.88,1.88,0,0,1-.56-.16l-.07.06a.41.41,0,0,1,.12.11l.4.62c.46.7.91,1.41,1.38,2a7.6,7.6,0,0,0,.52.61l4.59,4.9a.37.37,0,0,1,.1.37c-.07.37-.1.76-.15,1.14a2.67,2.67,0,0,1-.08.48,2.15,2.15,0,0,0-.1.31,1.42,1.42,0,0,1-.54.81c-.71-.71-1.38-1.53-2.13-2.25l-.05,0,.66,1.16-.08-.05-1.17-1.05a4.11,4.11,0,0,1-1.31-2.16c.16.19.31.39.47.57s.36.38.53.57l.5.56c.1-.1,0-.15,0-.21l-.43-.49-2.3-2.64-.19-.23-.9-1.15c-.18-.24-.34-.5-.51-.75l-.17-.24c-.12,0-.14.1-.1.18a1.88,1.88,0,0,1,.12.18v.17h-.15a.33.33,0,0,1-.09-.46v0l.12-.12a.29.29,0,0,0-.32-.12h-.31a.29.29,0,0,1-.26-.31.2.2,0,0,1,0-.11h.27c0-.18-.07-.23-.2-.27-.3-.09-.29-.1-.43-.32l.11-.07v-.08c-.27-.28-.54-.57-.8-.87a13,13,0,0,1-1-1.25,2.35,2.35,0,0,1-.52-1.41.5.5,0,0,0-.09-.23c-.46-.7-.91-1.46-1.42-2.16l-1.53-2.2h-.07c.1.21.2.41.3.64a.32.32,0,0,1-.36-.24c-.06-.14-.11-.31-.16-.46a.65.65,0,0,0-.3-.45v.2a3,3,0,0,0,.43,1.12c.18.32.34.64.54,1,.07,0,.12-.05.1-.17s-.07-.17.07-.25a1.13,1.13,0,0,0,.37.63c.08.09.15.19,0,.26-.08-.1-.17-.19-.24-.29h-.05v.13c.08.16.18.33.27.49s.12.29.2.46l-.42-.08v.11a11.15,11.15,0,0,1,2,2.3,28.29,28.29,0,0,0,2.14,2.76l0,.07c-.13.12-.18.14-.31,0l-.42-.48-.29-.35h-.05v.12a3.2,3.2,0,0,0,.55,1,9.68,9.68,0,0,0,.71.85,29.6,29.6,0,0,1,3.89,4.55c.82,1.09,1.64,2.19,2.56,3.2.38.41.78.8,1.17,1.2l.27.29c-.07.26-.16.52-.26.83-.58-.59-1.13-1.17-1.67-1.78-.1.08-.05.15,0,.2s.17.17.24.26.06.18-.11.24c-.77-1-1.61-2-2.46-3h0a.7.7,0,0,0,.06.19,6.16,6.16,0,0,0,1,1.57c.43.5.88,1,1.31,1.49s.62.71.93,1.09a1.3,1.3,0,0,1,.18.23.19.19,0,0,1-.25-.08c-.09-.1-.17-.22-.26-.32a.29.29,0,0,0-.38-.08h0a10.73,10.73,0,0,0-1.62-2.12c-.48-.49-.93-1-1.43-1.52a3.47,3.47,0,0,0-.4-.46.45.45,0,0,0,.07.28,3,3,0,0,0,.52,1l1,1.18.21.24a.32.32,0,0,1-.28-.09l-.57-.39a1.29,1.29,0,0,0-.71-.27.53.53,0,0,0,.17.31c.89,1.18,1.81,2.34,2.78,3.45l1.43,1.59a.28.28,0,0,1,.07.34c0,.12-.07.24-.12.39a3,3,0,0,1-.25-.23c-.87-.94-1.78-1.87-2.62-2.82-2.74-3.22-5.45-6.46-8.17-9.7a51.57,51.57,0,0,1-3.51-4.69,43.54,43.54,0,0,1-2.5-4.34,50.54,50.54,0,0,1-3.56-8.93,34.67,34.67,0,0,1-1.16-14.06c.15-1.32.4-2.62.64-3.92V160c.2-.71.39-1.49.58-2.24a2.15,2.15,0,0,0,.14-.26c.16-.47.31-.93.48-1.41s.26-.71.39-1h.09a.43.43,0,0,0,0,.16,1.92,1.92,0,0,1,.15,1.18c-.1.47-.22.95-.31,1.41a7.4,7.4,0,0,0-.12.93c0,.05.06.14.09.14a.24.24,0,0,0,.17-.09,2.5,2.5,0,0,0,.07-.26l.08-.29a.43.43,0,0,1,0,.55c-.09.1-.21.19-.3.29a.42.42,0,0,0-.18.34h.26a4,4,0,0,1,0,.49,5.81,5.81,0,0,1-.11.71q-.15.69-.3,1.41a4.43,4.43,0,0,0,0,1.54,2.47,2.47,0,0,0,.1-.29c.17-.89.35-1.79.51-2.69a14.66,14.66,0,0,1,.71-2.83,1.78,1.78,0,0,1,.3-.6,1.5,1.5,0,0,1,0,.24c-.19,1.18-.41,2.36-.57,3.53-.2,1.37-.37,2.76-.53,4.13a28.13,28.13,0,0,0-.19,4,23.19,23.19,0,0,0,.71,5.23l0,.15.05.13a8.54,8.54,0,0,0-.19-2,4,4,0,0,1-.12-1.09A12.16,12.16,0,0,1,351,170a3,3,0,0,0-.24-1.82.49.49,0,0,1,0-.24c0-.55.09-1.1.12-1.66.08-1.31.1-2.63.3-3.93a9,9,0,0,1,.71-2.54l.25-.48h.06c-.31,1.54-.5,3.09-.66,4.63s-.34,3.1-.41,4.68a.45.45,0,0,0,.34-.42c0-.23.05-.47.06-.71v-1.34a1.89,1.89,0,0,1,.17-.7c.05.14.07.22.1.31.08-.94.19-1.87.26-2.83a11.15,11.15,0,0,1,.32-2,.31.31,0,0,1,0-.19c.1-.58.18-1.16.31-1.73a31,31,0,0,1,1.53-4.94l.45-1.06a1.1,1.1,0,0,1-.05.51c-.19.6-.37,1.19-.6,1.77a17.35,17.35,0,0,0-.87,2.82,5,5,0,0,0-.12.95,1.42,1.42,0,0,1,.25-.34,2.23,2.23,0,0,0,.5-.71c.08-.15.24-.31.09-.51v-.14a1.91,1.91,0,0,1,.1-.34c.23-.71.46-1.41.72-2.08.09-.27.17-.54.28-.8l.76-1.8-.12-.1c.1-.21.21-.4.32-.6s.12-.11.17-.1.22-.08.3-.23v.18l.67-1.21-.2.15c0-.27.32-.45.22-.7l-.25,0a1.44,1.44,0,0,1,.2-.39c0-.13.12-.3.18-.46a.51.51,0,0,0,0-.45,7.3,7.3,0,0,0-1,1.41,1.5,1.5,0,0,0,.3,0c.2,0,.21,0,.22.22h-.32a.75.75,0,0,0-.33,0c-.1,0-.18.09-.15.22s.3-.06.41.1a.76.76,0,0,1-.29.45.93.93,0,0,1-.71.12c-.27.48-.5,1-.77,1.41a7.93,7.93,0,0,1-.89,1.28,9.77,9.77,0,0,1,.92-2.25,28.76,28.76,0,0,1,2.14-3.31c.5-.7,1-1.37,1.42-2.07a1.14,1.14,0,0,0,.1-.19,24.89,24.89,0,0,0-6.11,10.44,6.25,6.25,0,0,1,.1-1,9.83,9.83,0,0,1,1.21-3c.46-.82.94-1.62,1.42-2.42.06-.11.15-.21.11-.36h-.45a10,10,0,0,0,.89-1.72,3.06,3.06,0,0,1,.3-.49.68.68,0,0,1,.31-.22.42.42,0,0,0,.26-.21c.3-.43.6-.88.94-1.29a19.14,19.14,0,0,1,3.11-3c.92-.71,1.87-1.41,2.81-2.12l.17-.13a1,1,0,0,0-.45.1,3.85,3.85,0,0,0-.71.41c-.47.35-.9.71-1.36,1.09s-.71.52-1,.77l-.18.07a.78.78,0,0,1,.18-.35,11.36,11.36,0,0,1,.86-.84,8.69,8.69,0,0,1,1.59-1l2.37-1.24a19.52,19.52,0,0,1,7.45-2.24,22.38,22.38,0,0,1,6.88.35c1,.23,2.06.42,3.1.55l.63,0,1,.25.05.06a2.06,2.06,0,0,1,.91.66c0,.05.14.05.22.07a1.6,1.6,0,0,1,.65.08,5,5,0,0,1,1.33.6l2.13,1.29.2.11-.39.13v.07h.38a.64.64,0,0,1,.63.42l-.59-.32c0,.27,0,.36.24.4a4.34,4.34,0,0,0,.61.06c.2,0,.22,0,.27.14a5.48,5.48,0,0,0,1.19,1.35l1.21,1.06a10.72,10.72,0,0,1,1,1.1.94.94,0,0,1,.12.22,2.51,2.51,0,0,1-.76-.54c-.16-.16-.31-.33-.48-.49a.81.81,0,0,0-1-.19.39.39,0,0,0-.23.07c.1-.25.43-.21.43-.49a1.16,1.16,0,0,0-.51-.33.3.3,0,0,0-.39.15v0a1.22,1.22,0,0,0-.07.17c-.63-.52-.63-.52-.86-.41a1.1,1.1,0,0,0,.47.41,1,1,0,0,0,.76.1.55.55,0,0,0,.08.63.3.3,0,0,1,0,.36s0,.1,0,.11c.19.13.38.26.56.41a3,3,0,0,1,.33.38,1.37,1.37,0,0,0,.17.17c.12.07.2,0,.2-.11v-.37a2.25,2.25,0,0,1,.36.24c.2.19.17.3-.09.41l-.05.07.25.3a2.62,2.62,0,0,1,.22.25.18.18,0,0,1,0,.27l-.2-.14a7,7,0,0,1-1.13-1c-.06-.07-.11-.16-.24-.16,0,.19.29.37,0,.55-.18,0-.26-.27-.48-.24a2.17,2.17,0,0,0,.1.21c-.08.17-.34.13-.35.39a1.29,1.29,0,0,1,.32.19,3.33,3.33,0,0,1,.25.28l.13-.17-.25-.26c.13-.12.22-.07.28,0a1.3,1.3,0,0,1,.14.26c0,.13.1.28.16.41a.42.42,0,0,0,.46.27h.09a.42.42,0,0,0,.05.27c0,.07.14.07.23.11,0,.19.15.29.32.37a1.41,1.41,0,0,1,.32.17c.1.06,0,.14,0,.21.21.24.42.45.61.7l2.3,2.82.08.11.9,1.41a9,9,0,0,1,1.13,2c.11.24.23.48.36.71v0l-.14-.14c0,.31.25.51.31.83-.13-.11-.25-.23-.37-.35s-.13-.27-.28-.35l.35.81a31.11,31.11,0,0,0-1.71-2.82,5.94,5.94,0,0,0,.27.57c.09.18.16.38.25.57s.21.37.31.55l.31.56a2.4,2.4,0,0,1,.24.54c-.37-.57-.71-1.14-1-1.72a3.18,3.18,0,0,1,.16.32h-.08a22.74,22.74,0,0,0,1.75,3.4l1.72-1.41c.57-.46,1-.82,1.5-1.17a28.08,28.08,0,0,1,2.52-1.52c1-.55,2.08-1,3.12-1.49a13.72,13.72,0,0,1,2.25-.9c.71-.2,1.42-.41,2.18-.61.06,0,.15,0,.17-.07s.22-.15.33-.17l.89-.19H414a1.55,1.55,0,0,0,.43,0c.47,0,.93-.1,1.42-.11s1.14,0,1.71.06a19.36,19.36,0,0,1,3.56.36,14.31,14.31,0,0,1,2.8.83c1.14.49,2.31.92,3.47,1.41a11.73,11.73,0,0,1,1.79.85h.08v-.26l.48.36a8.31,8.31,0,0,0,.86.71,18.44,18.44,0,0,1,3.82,3.34,17.26,17.26,0,0,1,3.05,4.82,5,5,0,0,0,.56.94l.14.17c0,.07-.08.12-.08.18s0,.18.06.18a.62.62,0,0,1,.23.28c.09.23.17.46.24.7a.69.69,0,0,0,.32.49.33.33,0,0,1,.16.3,3.22,3.22,0,0,0,.23,1.18l.63,1.84a.59.59,0,0,1-.28.7l-.08-.4h-.05v.46l.48.07c0,.3.29.55.14.88-.15,0-.2-.07-.21-.18a1.82,1.82,0,0,0,0-.33c0-.12-.06-.22-.24-.19a6.64,6.64,0,0,1,0,2,8,8,0,0,1-.11.87.23.23,0,0,0,.15.28c.23.1.23.13.2.37-.12.81-.25,1.61-.36,2.42a12.44,12.44,0,0,1-.43,2.17,1.58,1.58,0,0,0,0,.38,2.91,2.91,0,0,1-.23,1.12c-.13.29-.24.59-.37.88a.3.3,0,0,0,0,.29.86.86,0,0,1,.08.7,2.83,2.83,0,0,1-.45.86l-.37.53a.7.7,0,0,1,.1.8c-.09.25-.22.49-.32.71a6,6,0,0,0-.28.7.41.41,0,0,0,.08.41,19.12,19.12,0,0,0,1.66-4.16c0,.24.05.44.05.65a.28.28,0,0,1,0,.18l-.55,1.28a10.57,10.57,0,0,0-.71,2.12,2.11,2.11,0,0,0-.05.71,2.4,2.4,0,0,1,.56-.88,3.54,3.54,0,0,1-.57,1.13.86.86,0,0,0-.1.16c0,.18-.07.36-.11.55a.22.22,0,0,0,0,.16.22.22,0,0,0,.13.1l.1-.16c.21-.4.42-.79.62-1.2s.5-1,.72-1.47c.08-.23.16-.47.22-.71l.18.36.15,0c-.17.37-.36.72-.56,1.07-.39.7-.79,1.41-1.17,2.12a2,2,0,0,0-.23.79c.38.16.51.14.71-.12s.5-.58.72-.88a14.61,14.61,0,0,0,2.08-4.45,26.68,26.68,0,0,0,.95-6.58,24.11,24.11,0,0,1,.16-2.82,12.82,12.82,0,0,0,.08-1.75,2.9,2.9,0,0,0-.49-1.56,1.1,1.1,0,0,0-.15-.16,2.37,2.37,0,0,1-.05,1.32,2.38,2.38,0,0,1-.06-.37.34.34,0,0,0-.17-.36.57.57,0,0,1,0,.29c0,.41-.06.84,0,1.25a10.87,10.87,0,0,0,.11,1.28,1.48,1.48,0,0,0,.32.71c.1-.37-.13-.71.07-1.08,0,.05.05.07.05.1a3.6,3.6,0,0,1-.21,1.45c-.14.35-.26.71-.38,1.09a.34.34,0,0,1-.05.14,1.21,1.21,0,0,1,0-.38,51.48,51.48,0,0,0-.31-6.08.9.9,0,0,1,.08-.54.71.71,0,0,0,0-.57,3.53,3.53,0,0,0-.28-.7c-.16-.31-.36-.6-.53-.91s-.38-.66-.55-1a5.52,5.52,0,0,1-.29-.77c-.05-.14,0-.19.16-.21a.46.46,0,0,0,.06.28l.23-.31a10.16,10.16,0,0,1-.93-2.44,1.22,1.22,0,0,1,.4.5c.17.35.32.71.5,1.05a2.63,2.63,0,0,0,.33.49.29.29,0,0,0,.29.14c-.17-.35-.3-.7-.47-1-.35-.62-.72-1.22-1.08-1.82s-.77-1.25-1.11-1.89a9.79,9.79,0,0,1-.46-1.17,3.61,3.61,0,0,0-.21-.49,13.87,13.87,0,0,0-2.78-3.14,31,31,0,0,0-4.86-3.34l-.23-.14a2.4,2.4,0,0,1,.66.11,4.76,4.76,0,0,1,1.43.7c.59.42,1.15.87,1.73,1.29s.87.61,1.31.91a4.81,4.81,0,0,0,.5.26c.07-.13.14-.25.22-.37s.16-.15.23-.24a1.53,1.53,0,0,0,.17-.27l1.49,1.18.93.75c.16.14.31.31.45.44v.08a1.19,1.19,0,0,0,.27,1.54.63.63,0,0,0,.31.14c.08,0,.16-.12.23-.18a6.82,6.82,0,0,1,2.14,3.53c.09.37.15.75.23,1.13a.29.29,0,0,0,.05.2h.52a4.6,4.6,0,0,0,1.42,2.34,2.39,2.39,0,0,0,.07,1.54c.06.21.15.41.2.63.12.39.25.78.35,1.18a3.54,3.54,0,0,1,0,1.65.58.58,0,0,0,.05.29c.13.4.31.79.4,1.19a9.61,9.61,0,0,1,.23,1.52c.08,1.2.13,2.4.21,3.61a.23.23,0,0,1-.13.25.25.25,0,0,0-.13.34,5.5,5.5,0,0,1,.12,1.28v.32l0,.15a.36.36,0,0,0-.35.26,4.48,4.48,0,0,0-.2.56c-.07.19-.12.48-.2.71a.55.55,0,0,1-.43.41.92.92,0,0,1,.05-.4c0-.29.11-.58.15-.86a.61.61,0,0,0-.13-.55,11.74,11.74,0,0,1-.59,2.26l-.06-.22a5.82,5.82,0,0,1,0-1.56c.12-.9.25-1.79.36-2.69a7.39,7.39,0,0,0,0-1.88,2.6,2.6,0,0,0-.15-.67.4.4,0,0,0-.18-.24l-.09,1.05c-.13,1.32-.23,2.64-.39,4a16.37,16.37,0,0,1-.93,3.77c-.09.26-.07.28.19.38s.15.05.25.21c-.12.11-.25.23-.14.46a1.62,1.62,0,0,1,.17-.35,1.38,1.38,0,0,1,.39-.41.86.86,0,0,0,.48-.82v-.12c.13,0,.17,0,.17.15s0,.26.2.27a62.1,62.1,0,0,1-2.09,6.4H441c-.25,0-.33.1-.37.35s0,.23-.07.35,0,.41-.05.61a1.58,1.58,0,0,0-1,.93,2.86,2.86,0,0,0-.27,1.06.86.86,0,0,1-.19.53,7.55,7.55,0,0,1-3.28,2.6l-.16.07a1.67,1.67,0,0,1-.45.77l-.72.76a1.07,1.07,0,0,0-.32.6.39.39,0,0,1-.11.17l-1,.86a7,7,0,0,1-.79.55.44.44,0,0,0-.15.12c-.12.2-.22.42-.35.62a1.2,1.2,0,0,1-.23.22,43.54,43.54,0,0,1-4.68,2.92c-1.87,1-3.82,1.88-5.76,2.74-1.35.6-2.71,1.17-4.06,1.76a.64.64,0,0,1-.63,0,.6.6,0,0,0-.71.06,10,10,0,0,1-2.63,1.42c-1,.35-2,.66-3,1-.52.17-1,.32-1.56.46a28.89,28.89,0,0,0-3.8,1.51c-4.39,1.93-8.78,3.87-13.23,5.65-1.74.7-3.56,1.28-5.33,1.83l-1.38.43.19.1a1.19,1.19,0,0,1-.26.11l-3.84.66c-1.28.2-2.53.38-3.8.56h-.16a.75.75,0,0,1,.21-1,2,2,0,0,1,.58-.3c.32-.1.64-.17,1-.25l.72-.19a1.78,1.78,0,0,0,.29-.12.44.44,0,0,0-.39-.14l-.71,0H378l-.35-.12.52-.41-.2-.19,1.91-.52a14.59,14.59,0,0,1,1,1,3.48,3.48,0,0,0,1.27.84.75.75,0,0,0,.57.07l-.14-.12L381.5,221a.61.61,0,0,1-.17-.15l-1.56-1.58-.1-.11-.25.19L378,218l.25-.2,1.38,1.41a4.25,4.25,0,0,1,.6-.31,5.74,5.74,0,0,1,.91-.22,9.57,9.57,0,0,0,2.31-.53h.09c.07.13,0,.21-.1.26s-.25.09-.36.14-.18.1-.13.23l1.43-.43a.94.94,0,0,0,.59-.44.32.32,0,0,0-.3,0,4.09,4.09,0,0,0-.46.25.61.61,0,0,1-.17.07.21.21,0,0,1-.17-.06V218a2,2,0,0,1,.36-.29c.32-.15.65-.27,1-.4l.42-.15c-.18-.2-.32-.4-.49-.56s-.54-.38-.8-.59a5.25,5.25,0,0,1-.49-.46l-.57.15.44-.19c-.14-.18-.14-.18-.43-.17a4.47,4.47,0,0,0,1-1.88l.3.34.51-.19s.09-.06.08-.07a.15.15,0,0,1,.1-.14c.79-.35,1.59-.66,2.4-.94a14.21,14.21,0,0,0,1.43-.65c.07,0,.13-.06.2-.08a26.84,26.84,0,0,0,3.14-1.41L393,210a.34.34,0,0,0,.21-.18c.06-.15.23-.13.36-.13a.48.48,0,0,0,.47-.23,1.1,1.1,0,0,0,.26-.06c.06,0,.08-.13.12-.2a.55.55,0,0,0,.71-.2c.1-.12.2-.25.3-.36a.3.3,0,0,1,.13-.09.2.2,0,0,1,.15,0l.06.06-.31.18a.45.45,0,0,0,0,.2c.25-.07.37-.38.67-.25.07-.24-.19-.28-.22-.45l.18-.17c-.21-.08-.35.1-.53.09-.17-.23.12-.32.17-.5a.27.27,0,0,0-.27.07,5.05,5.05,0,0,1-1.35.58H394c-.1-.12,0-.2.05-.26a2.61,2.61,0,0,1,.28-.17l.32-.2c-.26-.26-.21-.41.12-.52H395c0,.14-.07.27-.13.46a1.67,1.67,0,0,0,.32-.08,2.2,2.2,0,0,0,.32-.21,1.09,1.09,0,0,1,.71-.24V207a.33.33,0,0,1,.13-.32.5.5,0,0,0,.2-.53,1.12,1.12,0,0,0,1.24-.21c-.4-.22-.61.11-.88.19l0,0c0-.33-.16-.43-.49-.36a1.13,1.13,0,0,0-.24.08l-.12,0c0,.27.2.35.25.55l-.14-.07a.81.81,0,0,0-1-.07,5.91,5.91,0,0,1-.71.36,5.08,5.08,0,0,1-.51.17v-.07l.25-.19c.37-.22.71-.44,1.12-.64l1.43-.71a3.11,3.11,0,0,0,1-.82c.07-.11.17-.11.29-.09a3.87,3.87,0,0,0,.49.05c.2,0,.27-.08.3-.32l-.54.17v-.06a.59.59,0,0,1,.44-.22l.51.06v-.06l-.29-.15a.45.45,0,0,1,.13-.11l1.65-.7,1-.46a2.49,2.49,0,0,1,1.37-.24,2.15,2.15,0,0,1,1.43-.82c.41-.09.83-.15,1.25-.22a7.45,7.45,0,0,0,1.54-.41c1.91-.71,3.81-1.41,5.7-2.07l4.69-1.74a10.46,10.46,0,0,0,2.23-1.21,5.56,5.56,0,0,1,.83-.53,6.23,6.23,0,0,1,.85-.33.81.81,0,0,1,.22,0,1.24,1.24,0,0,1-.45.43c-.29.16-.58.29-.86.43s-.57.24-.84.38a1.29,1.29,0,0,0-.56.45h.2a9.3,9.3,0,0,0,1.73-.79c.59-.35,1.18-.71,1.76-1.09l2.53-1.64a.53.53,0,0,1,.33-.46l.48-.23a3,3,0,0,0,.93-.6l.15.45a1.38,1.38,0,0,0,.28-.19c.43-.43.86-.85,1.27-1.3s1-1.06,1.43-1.57a8.5,8.5,0,0,1,.8-.66.21.21,0,0,1,.12-.05,24.17,24.17,0,0,1-3.08,3.39c-1.11,1.05-2.29,2-3.49,3v.05a.6.6,0,0,0,.19-.06,7.1,7.1,0,0,0,1.43-.85,22.88,22.88,0,0,0,2.13-1.81l1.64-1.51.27-.22a4.19,4.19,0,0,1-1.54,1.94c.2.59.15.77-.27,1-.05-.13-.09-.26-.13-.39s-.18.07-.17.18.05.37.08.57l1-.51-.07.2.33-.22c-.11-.21,0-.34.14-.47a.77.77,0,0,1,.46-.3c.26-.26.51-.5.75-.77s.29-.35.44-.52l.34-.36a17.58,17.58,0,0,0,1.88-2.33c.06-.09.08-.24.25-.21a.07.07,0,0,0,.06-.05,2.45,2.45,0,0,0,.22-.79c-.21,0-.25.16-.32.27s-.15.2-.24.3-.18.19-.27.3l-1.42,1.94a4.39,4.39,0,0,1-1.26,1.17l-.2.11h-.07l.15-.16a21,21,0,0,0,3.56-4.78,10.21,10.21,0,0,0,.53-1.22c.08-.23.11-.47.19-.71l.71-1.84a2.16,2.16,0,0,0,.14-.66,2.85,2.85,0,0,1,.11-.65c.07-.3.17-.6.25-.9a3.41,3.41,0,0,0,.05-.46.4.4,0,0,0-.28-.39,16.72,16.72,0,0,1-2.5,7.2H433a.56.56,0,0,1,.05-.28,14.45,14.45,0,0,1,.88-2.65,15.71,15.71,0,0,0,1-3,5.06,5.06,0,0,0,.12-.78.51.51,0,0,1,.13-.3,1.34,1.34,0,0,0,.37-1,9.24,9.24,0,0,0-.1-1.17,4.49,4.49,0,0,1,.05-1.37,2.44,2.44,0,0,0,0-.54,4.18,4.18,0,0,0-.16-.87.74.74,0,0,0,0,.21c-.08,1.29-.21,2.58-.42,3.87a23.25,23.25,0,0,1-1.12,4.51,12.16,12.16,0,0,1-2.14,3.79.78.78,0,0,1-.27.24,5.44,5.44,0,0,1,.22-.5c.34-.71.71-1.37,1-2.05a5.65,5.65,0,0,0,.64-2,4.58,4.58,0,0,0-.59,1c-.12.33-.24.7-.38,1a2.22,2.22,0,0,1-.23.43c-.17.25-.25.28-.52.15a.67.67,0,0,0,0,.44Zm-3.77,7c-.71.46-1,.71-1.07.93a.51.51,0,0,0,.45,0l.71-.23a.49.49,0,0,0,.14-.11c-.18-.12-.17-.12-.19-.31a2,2,0,0,0,0-.26Zm-31.57-38.3c.28.43.52.88.83,1.3A3.85,3.85,0,0,0,396.3,154.87Z" transform="translate(-68 -134)"/><path id="Shape-6" data-name="Shape" class="cls-3" d="M362,187c.31.24,3.65,4.42,4,5l-.21-.18c-.39-.41-.79-.81-1.17-1.25-.84-1.07-1.64-2.14-2.46-3.26-.06-.07-.1-.17-.16-.25Z" transform="translate(-68 -134)"/><path id="Shape-7" data-name="Shape" class="cls-3" d="M355.08,167a4.41,4.41,0,0,0,.77,2.14c-.47.17-.44.46-.33.78a5.26,5.26,0,0,1,.15.53.6.6,0,0,1-.15.55C355.08,170.54,354.87,167.69,355.08,167Z" transform="translate(-68 -134)"/><path id="Shape-8" data-name="Shape" class="cls-3" d="M360,183a2.61,2.61,0,0,1-.37-.62c-.09-.21-.17-.43-.26-.62s-.2-.49-.32-.76l.14.08a2.15,2.15,0,0,1,.18.24c.19.37.39.73.55,1.11a2.68,2.68,0,0,1,.13.56Z" transform="translate(-68 -134)"/><path id="Shape-9" data-name="Shape" class="cls-3" d="M405,161c-.68.63-1.27,1.42-2,2A5.39,5.39,0,0,1,405,161Z" transform="translate(-68 -134)"/><path id="Shape-10" data-name="Shape" class="cls-3" d="M356.41,165.21l-.36.09c-.12-.21,0-.38.06-.62.07.16.12.26.16.37h.09c.25-.31,0-.74.33-1.05a.3.3,0,0,1,.13.32,4.86,4.86,0,0,1-.1.74,5.56,5.56,0,0,1-.13.84.14.14,0,0,1-.12.1A3.73,3.73,0,0,0,356.41,165.21Z" transform="translate(-68 -134)"/><path id="Shape-11" data-name="Shape" class="cls-3" d="M367,195a1,1,0,0,1-.53-.62c-.17-.45-.33-.91-.47-1.38a1.44,1.44,0,0,1,.35.54A11.49,11.49,0,0,1,367,195Z" transform="translate(-68 -134)"/><path id="Shape-12" data-name="Shape" class="cls-3" d="M371,196a1.26,1.26,0,0,1-1-1C370.23,195.44,370.7,195.62,371,196Z" transform="translate(-68 -134)"/><path id="Shape-13" data-name="Shape" class="cls-3" d="M355.85,171a.41.41,0,0,0,.09.69c-.33,0-.31-.19-.44-.29h-.27c-.06.18.15.18.27.25l-.3.35c-.26-.31-.1-.65-.2-1Z" transform="translate(-68 -134)"/><path id="Shape-14" data-name="Shape" class="cls-3" d="M431.85,188c.24.35,0,.76-.47.93a1.59,1.59,0,0,1-.38.07C431.08,188.59,431.54,188.36,431.85,188Z" transform="translate(-68 -134)"/><path id="Shape-15" data-name="Shape" class="cls-3" d="M428,190c.11-.48.56-.71,1-1A3.66,3.66,0,0,1,428,190Z" transform="translate(-68 -134)"/><path id="Shape-16" data-name="Shape" class="cls-3" d="M368,195a.79.79,0,0,1,.69.29.64.64,0,0,1,.29.7C368.69,195.68,368.34,195.35,368,195Z" transform="translate(-68 -134)"/><path id="Shape-17" data-name="Shape" class="cls-3" d="M362,186a8,8,0,0,1-1-2A9.12,9.12,0,0,1,362,186Z" transform="translate(-68 -134)"/><path id="Shape-18" data-name="Shape" class="cls-3" d="M423,194a.36.36,0,0,1,0,.42,1.39,1.39,0,0,1-.91.57C422.32,194.7,422.51,194.19,423,194Z" transform="translate(-68 -134)"/><path id="Shape-19" data-name="Shape" class="cls-3" d="M430.91,188a1.33,1.33,0,0,1-.91,1A1.57,1.57,0,0,1,430.91,188Z" transform="translate(-68 -134)"/><path id="Shape-20" data-name="Shape" class="cls-3" d="M390,210a1.79,1.79,0,0,1-1,.79A1.88,1.88,0,0,1,390,210Z" transform="translate(-68 -134)"/><path id="Shape-21" data-name="Shape" class="cls-3" d="M356.11,175a1,1,0,0,1,.28.82c0,.11-.07.2-.28.18a7.78,7.78,0,0,0-.11-1Z" transform="translate(-68 -134)"/><path id="Shape-22" data-name="Shape" class="cls-3" d="M360,183a.7.7,0,0,1,.19.15c.21.27.4.55.61.85C360.48,183.89,360.41,183.8,360,183Z" transform="translate(-68 -134)"/><path id="Shape-23" data-name="Shape" class="cls-3" d="M369.06,191l.83,1a1.11,1.11,0,0,1-.81-.6A.32.32,0,0,1,369.06,191Z" transform="translate(-68 -134)"/><path id="Shape-24" data-name="Shape" class="cls-3" d="M385,212c-.52-.23-.58-.71-1-1A1.31,1.31,0,0,1,385,212Z" transform="translate(-68 -134)"/><path id="Shape-25" data-name="Shape" class="cls-3" d="M367.75,190c-.49-.14-.43-.72-.75-1,.26,0,.3.26.42.42l.38.51Z" transform="translate(-68 -134)"/><path id="Shape-26" data-name="Shape" class="cls-3" d="M356.17,170a1.34,1.34,0,0,1-.12-1A1.44,1.44,0,0,1,356.17,170Z" transform="translate(-68 -134)"/><path id="Shape-27" data-name="Shape" class="cls-3" d="M369.87,197.57A1.65,1.65,0,0,1,369,197C369.35,197,369.58,197.14,369.87,197.57Z" transform="translate(-68 -134)"/><path id="Shape-28" data-name="Shape" class="cls-3" d="M429.65,189c.09.35-.11.61-.65.73Z" transform="translate(-68 -134)"/><path id="Shape-29" data-name="Shape" class="cls-3" d="M357,173a1.65,1.65,0,0,1,.21,1C357,173.81,357,173.56,357,173Z" transform="translate(-68 -134)"/><path id="Shape-30" data-name="Shape" class="cls-3" d="M372.41,200.6,372,200C372.41,200.19,372.46,200.19,372.41,200.6Z" transform="translate(-68 -134)"/><path id="Shape-31" data-name="Shape" class="cls-3" d="M431.36,187c.08.41.06.44-.36.57.14-.22.25-.4.37-.57Z" transform="translate(-68 -134)"/><path id="Shape-32" data-name="Shape" class="cls-3" d="M393.3,163.53a1.22,1.22,0,0,1-.3-.53.46.46,0,0,1,.29.53Z" transform="translate(-68 -134)"/><path id="Shape-33" data-name="Shape" class="cls-3" d="M385,222.17c.34-.2.34-.2.61-.14a.73.73,0,0,1-.62.13Z" transform="translate(-68 -134)"/><polygon id="Shape-34" data-name="Shape" class="cls-3" points="313.04 83 313.17 83.2 313 83.03 313.04 83"/><path id="Shape-35" data-name="Shape" class="cls-3" d="M427.85,194a1,1,0,0,1,0,.25c0,.2,0,.2.15.34a.57.57,0,0,1-.11.11l-.55.25a.3.3,0,0,1-.34,0A2.91,2.91,0,0,1,427.85,194Z" transform="translate(-68 -134)"/><path id="Shape-36" data-name="Shape" class="cls-3" d="M396,155a3.17,3.17,0,0,1,1,1C396.63,155.64,396.34,155.32,396,155Z" transform="translate(-68 -134)"/><path id="Shape-37" data-name="Shape" class="cls-3" d="M430.06,156a15,15,0,0,1,4.94,5l-.18-.18c-.2-.24-.39-.48-.57-.74a17,17,0,0,0-2.38-2.42l-1.66-1.47L430,156Z" transform="translate(-68 -134)"/><path id="Shape-38" data-name="Shape" class="cls-3" d="M439,183c.26-1.31.5-2.64.86-4a.69.69,0,0,1,.13.54,5.63,5.63,0,0,1-.14.59l-.08.27a.52.52,0,0,0,.2.59A9.1,9.1,0,0,0,439,183Z" transform="translate(-68 -134)"/><path id="Shape-39" data-name="Shape" class="cls-3" d="M438,167a19,19,0,0,0-.71-2.05c-.1-.29-.19-.6-.29-.95A5.18,5.18,0,0,1,438,167Z" transform="translate(-68 -134)"/><path id="Shape-40" data-name="Shape" class="cls-3" d="M440,184a3.55,3.55,0,0,1-.95,2,.74.74,0,0,1,.14-.55.65.65,0,0,0,.13-.55l-.32.27c.07-.22.14-.38.21-.58l.26.16c.29-.18.25-.51.53-.72Z" transform="translate(-68 -134)"/><path id="Shape-41" data-name="Shape" class="cls-3" d="M421,149.64a2.48,2.48,0,0,0-1.4-.27.61.61,0,0,1-.6-.26A1.86,1.86,0,0,1,421,149.64Z" transform="translate(-68 -134)"/><path id="Shape-42" data-name="Shape" class="cls-3" d="M429,155c-.45-.17-.91-.33-1.36-.51A1.57,1.57,0,0,1,427,154h0l1.31.58A1.44,1.44,0,0,1,429,155Z" transform="translate(-68 -134)"/><path id="Shape-43" data-name="Shape" class="cls-3" d="M414,150.75c-.51.29-.82.26-1-.06a2.34,2.34,0,0,1,2-.66,4,4,0,0,0-1.38.52Z" transform="translate(-68 -134)"/><path id="Shape-44" data-name="Shape" class="cls-3" d="M425,151.86a2.12,2.12,0,0,1-2-.86C423.67,151.13,424.27,151.75,425,151.86Z" transform="translate(-68 -134)"/><path id="Shape-45" data-name="Shape" class="cls-3" d="M440.17,178l.31.3-.38.26.4,0c.12-.12.1-.28.39-.32a.49.49,0,0,0-.06.72L440,179A1.86,1.86,0,0,1,440.17,178Z" transform="translate(-68 -134)"/><path id="Shape-46" data-name="Shape" class="cls-3" d="M424,153.11a.36.36,0,0,1,.52,0,1,1,0,0,1,.48.67l-1-.61a.06.06,0,0,1,0-.06Z" transform="translate(-68 -134)"/><path id="Shape-47" data-name="Shape" class="cls-3" d="M436,161a5.87,5.87,0,0,1,1,2A21.94,21.94,0,0,1,436,161Z" transform="translate(-68 -134)"/><path id="Shape-48" data-name="Shape" class="cls-3" d="M404,154a1.65,1.65,0,0,1,1-1A4.73,4.73,0,0,1,404,154Z" transform="translate(-68 -134)"/><path id="Shape-49" data-name="Shape" class="cls-3" d="M407,154.06a1.63,1.63,0,0,1-.11.23c-.29.25-.59.5-.89.71a3.68,3.68,0,0,1,1-1Z" transform="translate(-68 -134)"/><path id="Shape-50" data-name="Shape" class="cls-3" d="M397,151a7.87,7.87,0,0,1-1-1C396.29,150.07,396.6,150.4,397,151Z" transform="translate(-68 -134)"/><path id="Shape-51" data-name="Shape" class="cls-3" d="M416,149.47a.56.56,0,0,1,.46-.46.48.48,0,0,1,.54.32Z" transform="translate(-68 -134)"/><path id="Shape-52" data-name="Shape" class="cls-3" d="M423,150.13c.53-.25.88-.15,1,.29A1.18,1.18,0,0,1,423,150.13Z" transform="translate(-68 -134)"/><path id="Shape-53" data-name="Shape" class="cls-3" d="M418,152a2,2,0,0,1,1,.11c-.25.06-.49.13-.74.17S418,152.21,418,152Z" transform="translate(-68 -134)"/><path id="Shape-54" data-name="Shape" class="cls-3" d="M429,151.72c-.05.13-.13.11-.21.08a1.69,1.69,0,0,1-.79-.72l0-.08Z" transform="translate(-68 -134)"/><path id="Shape-55" data-name="Shape" class="cls-3" d="M440.29,174l-.18-.56A1.91,1.91,0,0,0,440,173h.06a.31.31,0,0,1,.25.13.93.93,0,0,1,.09.87Z" transform="translate(-68 -134)"/><path id="Shape-56" data-name="Shape" class="cls-3" d="M438,164a7.87,7.87,0,0,1-1-1A2.09,2.09,0,0,1,438,164Z" transform="translate(-68 -134)"/><path id="Shape-57" data-name="Shape" class="cls-3" d="M432,154l-.89-.66a.24.24,0,0,1-.1-.14.34.34,0,0,1,0-.2C431.33,153.41,431.75,153.55,432,154Z" transform="translate(-68 -134)"/><path id="Shape-58" data-name="Shape" class="cls-3" d="M441.3,180a1.47,1.47,0,0,1-.29,1A1.48,1.48,0,0,1,441.3,180Z" transform="translate(-68 -134)"/><path id="Shape-59" data-name="Shape" class="cls-3" d="M401,156.86a1.78,1.78,0,0,1,1-.86C401.65,156.27,401.43,156.73,401,156.86Z" transform="translate(-68 -134)"/><path id="Shape-60" data-name="Shape" class="cls-3" d="M423,153c.59.17.76.27.93.55C423.65,153.55,423.38,153.4,423,153Z" transform="translate(-68 -134)"/><path id="Shape-61" data-name="Shape" class="cls-3" d="M353,152l-1,2A2.89,2.89,0,0,1,353,152Z" transform="translate(-68 -134)"/><path id="Shape-62" data-name="Shape" class="cls-3" d="M352.76,156c.32.38,0,.82-.76,1A2.07,2.07,0,0,1,352.76,156Z" transform="translate(-68 -134)"/><path id="Shape-63" data-name="Shape" class="cls-3" d="M351,157a3.14,3.14,0,0,1,.69-2A3.41,3.41,0,0,1,351,157Z" transform="translate(-68 -134)"/><path id="Shape-64" data-name="Shape" class="cls-3" d="M358,144c.25-.45.67-.63,1-.95a2.45,2.45,0,0,1-.72.92c-.1.11-.13.11-.28,0Z" transform="translate(-68 -134)"/><path id="Shape-65" data-name="Shape" class="cls-3" d="M351.56,154a1.08,1.08,0,0,1-.56,1l.25-.5C351.32,154.32,351.3,154.12,351.56,154Z" transform="translate(-68 -134)"/><polygon id="Shape-66" data-name="Shape" class="cls-3" points="285 24.59 285.15 24 285 24.58 285 24.59"/></svg>