<svg xmlns="http://www.w3.org/2000/svg" xmlns:xlink="http://www.w3.org/1999/xlink" width="530.6" height="316.48" viewBox="0 0 530.6 316.48"><defs><linearGradient id="a" data-name="Unbenannter Verlauf 62" x1="403.84" y1="198.64" x2="519.45" y2="252.55" gradientTransform="matrix(1 0 0 -1 0 279.62)" gradientUnits="userSpaceOnUse"><stop offset="0" stop-color="#b60000"/><stop offset=".11" stop-color="#b30209"/><stop offset=".29" stop-color="#ab0920"/><stop offset=".51" stop-color="#9e1347"/><stop offset=".76" stop-color="#8c217b"/><stop offset="1" stop-color="#7930b3"/></linearGradient><linearGradient id="b" x1="415.8" y1="201.68" x2="417.3" y2="202.37" xlink:href="#a"/><linearGradient id="c" x1="403.89" y1="229.87" x2="405.5" y2="230.62" xlink:href="#a"/><linearGradient id="d" x1="410.03" y1="211.21" x2="410.42" y2="211.39" xlink:href="#a"/><linearGradient id="e" x1="471.07" y1="239.76" x2="474.68" y2="241.44" xlink:href="#a"/><linearGradient id="f" x1="405.86" y1="235.14" x2="407.11" y2="235.73" xlink:href="#a"/><linearGradient id="g" x1="420.84" y1="195.72" x2="421.57" y2="196.06" xlink:href="#a"/><linearGradient id="h" x1="426.1" y1="193.11" x2="426.85" y2="193.46" xlink:href="#a"/><linearGradient id="i" x1="404.46" y1="226.68" x2="405.54" y2="227.18" xlink:href="#a"/><linearGradient id="j" x1="511.2" y1="201.84" x2="512.44" y2="202.42" xlink:href="#a"/><linearGradient id="k" x1="506.49" y1="200.41" x2="508.37" y2="201.29" xlink:href="#a"/><linearGradient id="l" x1="423.57" y1="192.57" x2="424.17" y2="192.85" xlink:href="#a"/><linearGradient id="m" x1="412.84" y1="207.6" x2="413.01" y2="207.68" xlink:href="#a"/><linearGradient id="n" x1="498.53" y1="193.96" x2="499.91" y2="194.61" xlink:href="#a"/><linearGradient id="o" x1="509.63" y1="202.51" x2="510.86" y2="203.09" xlink:href="#a"/><linearGradient id="p" x1="451.73" y1="171.97" x2="453.63" y2="172.86" xlink:href="#a"/><linearGradient id="q" x1="405.63" y1="220.97" x2="406.1" y2="221.19" xlink:href="#a"/><linearGradient id="r" x1="411.5" y1="210.3" x2="411.68" y2="210.39" xlink:href="#a"/><linearGradient id="s" x1="424.21" y1="198.01" x2="424.66" y2="198.22" xlink:href="#a"/><linearGradient id="t" x1="445.52" y1="170.56" x2="445.94" y2="170.76" xlink:href="#a"/><linearGradient id="u" x1="421.74" y1="201.25" x2="422.04" y2="201.39" xlink:href="#a"/><linearGradient id="v" x1="406.04" y1="229.64" x2="406.41" y2="229.82" xlink:href="#a"/><linearGradient id="w" x1="423.6" y1="190.76" x2="424.11" y2="190.99" xlink:href="#a"/><linearGradient id="x" x1="508.31" y1="202.16" x2="509.12" y2="202.54" xlink:href="#a"/><linearGradient id="y" x1="407.53" y1="224.03" x2="407.79" y2="224.15" xlink:href="#a"/><linearGradient id="z" x1="428.55" y1="186.67" x2="428.78" y2="186.78" xlink:href="#a"/><linearGradient id="A" x1="511.4" y1="205.11" x2="511.92" y2="205.36" xlink:href="#a"/><linearGradient id="B" x1="457.2" y1="238.12" x2="457.34" y2="238.18" xlink:href="#a"/><linearGradient id="C" x1="446.33" y1="155.03" x2="446.89" y2="155.29" xlink:href="#a"/><linearGradient id="D" x1="440.19" y1="162.05" x2="440.31" y2="162.1" xlink:href="#a"/><linearGradient id="E" x1="504.99" y1="194.37" x2="506.73" y2="195.18" xlink:href="#a"/><linearGradient id="F" x1="462.68" y1="248.84" x2="462.95" y2="248.96" xlink:href="#a"/><linearGradient id="G" x1="511.94" y1="244.89" x2="515.35" y2="246.49" xlink:href="#a"/><linearGradient id="H" x1="521.5" y1="213.08" x2="524.61" y2="214.53" xlink:href="#a"/><linearGradient id="I" x1="520.78" y1="235.25" x2="521.2" y2="235.45" xlink:href="#a"/><linearGradient id="J" x1="522.26" y1="207.18" x2="524.26" y2="208.11" xlink:href="#a"/><linearGradient id="K" x1="494.88" y1="257.19" x2="497.22" y2="258.28" xlink:href="#a"/><linearGradient id="L" x1="505.66" y1="250.64" x2="507.35" y2="251.43" xlink:href="#a"/><linearGradient id="M" x1="485.44" y1="256.81" x2="487.83" y2="257.92" xlink:href="#a"/><linearGradient id="N" x1="500.63" y1="255.01" x2="502.54" y2="255.9" xlink:href="#a"/><linearGradient id="O" x1="523.22" y1="217.16" x2="524.33" y2="217.67" xlink:href="#a"/><linearGradient id="P" x1="501.6" y1="252.53" x2="502.92" y2="253.15" xlink:href="#a"/><linearGradient id="Q" x1="518.74" y1="240.01" x2="519.25" y2="240.25" xlink:href="#a"/><linearGradient id="R" x1="473.33" y1="251.92" x2="475.23" y2="252.81" xlink:href="#a"/><linearGradient id="S" x1="475.74" y1="249.94" x2="477.66" y2="250.84" xlink:href="#a"/><linearGradient id="T" x1="463.12" y1="255.78" x2="463.71" y2="256.05" xlink:href="#a"/><linearGradient id="U" x1="489.56" y1="257.81" x2="490.75" y2="258.36" xlink:href="#a"/><linearGradient id="V" x1="500.48" y1="256.83" x2="501.4" y2="257.26" xlink:href="#a"/><linearGradient id="W" x1="492.51" y1="254.11" x2="493.96" y2="254.78" xlink:href="#a"/><linearGradient id="X" x1="507.27" y1="254.39" x2="508.31" y2="254.87" xlink:href="#a"/><linearGradient id="Y" x1="523.49" y1="223.66" x2="523.93" y2="223.87" xlink:href="#a"/><linearGradient id="Z" x1="520.8" y1="237.14" x2="521.05" y2="237.26" xlink:href="#a"/><linearGradient id="aa" x1="511.97" y1="251.78" x2="512.78" y2="252.15" xlink:href="#a"/><linearGradient id="ab" x1="524.45" y1="213.95" x2="525.21" y2="214.3" xlink:href="#a"/><linearGradient id="ac" x1="468.76" y1="247.76" x2="470.02" y2="248.35" xlink:href="#a"/><linearGradient id="ad" x1="500.22" y1="252.23" x2="500.78" y2="252.48" xlink:href="#a"/><linearGradient id="ae" x1="399.23" y1="252.69" x2="401.56" y2="253.78" xlink:href="#a"/><linearGradient id="af" x1="400.1" y1="247.02" x2="401.48" y2="247.66" xlink:href="#a"/><linearGradient id="ag" x1="398.7" y1="248.01" x2="400.09" y2="248.66" xlink:href="#a"/><linearGradient id="ah" x1="407.75" y1="265.09" x2="409.68" y2="265.98" xlink:href="#a"/><linearGradient id="ai" x1="398.63" y1="250.22" x2="399.62" y2="250.68" xlink:href="#a"/><linearGradient id="aj" x1="401.84" y1="245.28" x2="402.23" y2="245.46" xlink:href="#a"/></defs><g data-name="Ebene 1"><g fill="#dbe6e7"><path d="M178.55 316.48c-.17-.26-.27-.61-.51-.78a9.54 9.54 0 0 1-3.23-4.14 11.27 11.27 0 0 1-.73-5.45 34.7 34.7 0 0 1 1.65-8c.75-2.37 1.5-4.74 2.35-7.07.64-1.74 1.43-3.42 2.18-5.12.84-1.88 1.68-3.75 2.57-5.59.75-1.55 1.59-3.05 2.39-4.57.32-.6.63-1.21.94-1.82 1.07-2 2.11-4 3.21-6 .82-1.48 1.71-2.93 2.57-4.39 1-1.74 2-3.48 3.08-5.2s2.27-3.65 3.41-5.47c.56-.88 1.13-1.74 1.7-2.61a3.12 3.12 0 0 1 .34-.47 1 1 0 0 1 1.34-.45 1 1 0 0 1 .54.71 6 6 0 0 1 .36 1.82 10.7 10.7 0 0 1-1.37 5.64c-1.27 2.5-2.74 4.91-4.13 7.35l-5.12 8.94-3.45 6.06a.94.94 0 0 0 .12 1.32h.05c.17.17.35.32.53.47a5.63 5.63 0 0 1 2.22 3.85 17.85 17.85 0 0 1 .29 4.84c-.07.61.28.84.85.57a2.88 2.88 0 0 0 .8-.58 28.38 28.38 0 0 0 5.44-7.46c.22-.45.52-.83 1.08-.69a1 1 0 0 1 .69 1.11 9.69 9.69 0 0 1-2.36 6 18.78 18.78 0 0 1-6.27 4.84 1.64 1.64 0 0 0-.93 1.31 54.49 54.49 0 0 1-3.5 11.29 33.17 33.17 0 0 1-4.16 7.18 22.21 22.21 0 0 1-1.63 1.59 8.39 8.39 0 0 0-.74.93zm-1.09-6.4h.12a12.66 12.66 0 0 0 .24 1.5c.31 1.06 1.21 1.32 1.87.46a29.36 29.36 0 0 0 2.93-4.3 61.36 61.36 0 0 0 2.6-6c.52-1.28.9-2.62 1.34-3.93a11.21 11.21 0 0 1 .47-1.26c.44-.95.24-1.59-.74-1.88a5.27 5.27 0 0 1-2.4-1.5c-.59-.64-1.09-.52-1.41.28-.38 1-.75 1.93-1.12 2.9-.51 1.33-1 2.65-1.51 4a33.62 33.62 0 0 0-1.23 4.09c-.45 1.92-.78 3.79-1.16 5.64zm11.06-22.56c-.11-1.1-.2-2.09-.33-3.08-.06-.42-.27-.81-.77-.82s-.76.35-.9.79a4.54 4.54 0 0 0-.09.51c-.11.7-.27 1.39-.33 2.08a26.25 26.25 0 0 0-.11 3.32 3.92 3.92 0 0 0 .64 1.68 1 1 0 0 0 .87.36c.21 0 .5-.39.54-.64.2-1.43.34-2.91.48-4.2zM0 283.35c.63-.2.65-.76.7-1.27a16.44 16.44 0 0 1 3.08-7.83 14.76 14.76 0 0 1 10.48-6.1 12.2 12.2 0 0 1 5.56.52c1 .3 1.91.67 2.86 1a1 1 0 0 1 .83 1.14.58.58 0 0 1 0 .18c-.13.93-.31 1.85-.52 2.77-.16.72-.69.87-1.34.44s-1.24-.88-1.91-1.25a9.27 9.27 0 0 0-4.54-1.25 8.83 8.83 0 0 0-7.35 3.62 14.25 14.25 0 0 0-3 10c.3 4 3 6 6.88 5.74a14 14 0 0 0 7.21-2.57c.24-.16.72-.31.87-.19a1.22 1.22 0 0 1 .3.91 22.13 22.13 0 0 1-.51 2.42 2.4 2.4 0 0 1-1.71 1.64 20.46 20.46 0 0 1-7.56 1.54 11.26 11.26 0 0 1-5.79-1.46 10.83 10.83 0 0 1-2.56-2.45 5.28 5.28 0 0 1-1.2-3.13 1.25 1.25 0 0 0-.78-1.21zm282.25-17.67c-.84.05-1.68.08-2.51.15a1.75 1.75 0 0 0-1.42 1c-1.79 3.14-3.64 6.25-5.37 9.43-1.22 2.24-2.23 4.6-3.4 6.87a16.29 16.29 0 0 0-1.48 4.5 6.11 6.11 0 0 0 .34 3.91 2.81 2.81 0 0 0 3.65 1.57 2.26 2.26 0 0 0 .49-.25 16.43 16.43 0 0 0 5.61-5.63c.8-1.19 1.47-2.48 2.16-3.75a1.12 1.12 0 0 1 1.43-.68 1.17 1.17 0 0 1 .31.17c.59.35.84.28.93-.38a16.81 16.81 0 0 1 2.1-5.78 29.28 29.28 0 0 1 3.31-5 17 17 0 0 1 5.44-4.56 18 18 0 0 1 3.62-1.32 4.43 4.43 0 0 1 3.74 1 27.28 27.28 0 0 1 3.21 3.06 4.23 4.23 0 0 1 .7 3.79 12.22 12.22 0 0 1-1.7 4.52 14.39 14.39 0 0 1-4 4.26 8 8 0 0 1-7.41 1.13 9.59 9.59 0 0 1-2-1c-.79-.49-1.16-.39-1.51.49a12.64 12.64 0 0 0-.56 5.56 5.09 5.09 0 0 0 1.53 3.21 4.11 4.11 0 0 0 3.58 1.26 14.2 14.2 0 0 0 7.21-3.15 27.53 27.53 0 0 0 5.7-6.43c.08-.12.14-.27.25-.32.33-.13.73-.39 1-.28a1.11 1.11 0 0 1 .48.88 5.61 5.61 0 0 1-1 3.19 18.46 18.46 0 0 1-6.66 6.06 15.74 15.74 0 0 1-9.16 2 8.6 8.6 0 0 1-6.51-3.82 6.39 6.39 0 0 1-1.39-3.86 2.72 2.72 0 0 0-.22-1.09c-.21-.58-.63-.63-1-.13a2 2 0 0 0-.3.56 11.61 11.61 0 0 1-3.39 4.73 14.16 14.16 0 0 1-5.33 3.31 6.79 6.79 0 0 1-7.61-2.42 9.14 9.14 0 0 1-1.19-6.32 22.66 22.66 0 0 1 2.7-7.82c.74-1.4 1.37-2.86 2.06-4.28.35-.72.72-1.43 1.1-2.14.73-1.35 1.46-2.72 2.22-4.06.36-.65.14-1-.65-1.33-1-.37-2-.85-2.92-1.3a1.34 1.34 0 0 1-.42-.4.93.93 0 0 1 .7-1.57h2.41c.8 0 1.8-.07 2.69-.13a1.67 1.67 0 0 0 1.35-.92c1.4-2.33 2.8-4.67 4.21-7a7.71 7.71 0 0 1 .81-1.07c.57-.62 1.35-.55 1.57.24a9.05 9.05 0 0 1 .43 3.1 13.32 13.32 0 0 1-.8 3.22c-.38 1.12-.17 1.52 1 1.76A4.19 4.19 0 0 1 285 264a1.19 1.19 0 0 1 .29 1.3c-.22.48-.69.53-1.15.53h-1.82zm9.63 15.5a7.59 7.59 0 0 0 4.71-2.49 20.55 20.55 0 0 0 3.41-4.61 8.36 8.36 0 0 0 1.34-3.35c.1-1-.58-2.1-2-1.42a19 19 0 0 0-6.56 5.74c-1 1.26-1.81 2.69-2.7 4.05a1.08 1.08 0 0 0 .38 1.65 8.62 8.62 0 0 0 1.42.43zm-46.08 7.31a12.19 12.19 0 0 1 .63-3.79 23 23 0 0 1 3.14-6.46c1.12-1.62 2.39-3.14 3.59-4.71a11.94 11.94 0 0 0 .76-1.1 1.3 1.3 0 0 0 .08-.43 1.35 1.35 0 0 0-.49 0c-.68.24-1.34.58-2 .77a35.45 35.45 0 0 1-3.54.78 2.41 2.41 0 0 0-2 1.38c-1.07 2.15-2.07 4.34-3.24 6.44a35.81 35.81 0 0 1-5.61 7.78 41.52 41.52 0 0 1-4.49 4 10.35 10.35 0 0 1-5.83 2.1 4.66 4.66 0 0 1-5-4 8.09 8.09 0 0 1 .08-3.82c.42-1.46.66-3 1.18-4.41.57-1.58 1.36-3.1 2.09-4.63.43-.94.9-1.87 1.42-2.76 1.58-2.61 3.15-5.22 4.81-7.77.82-1.28 1.71-1.14 2.32.29a6.31 6.31 0 0 1 .26 4 18.43 18.43 0 0 1-1.84 4.75c-1.09 2-2.25 3.89-3.29 5.88a26.24 26.24 0 0 0-2.86 7.35 3.39 3.39 0 0 0 .13 1.73c.49 1.3 1.18 1.52 2.51 1.11a13.47 13.47 0 0 0 4.59-2.87 26.18 26.18 0 0 0 5.1-6c1.17-1.82 2.26-3.69 3.33-5.58.47-.83.8-1.74 1.19-2.61.2-.45.37-.91.6-1.34a1.31 1.31 0 0 0-.15-1.58 1.09 1.09 0 0 0-.17-.13c-1.73-1.48-1.45-3.24-.69-5a12.38 12.38 0 0 1 3.45-4.82 6.48 6.48 0 0 1 1.83-1.12 1.38 1.38 0 0 1 2 1.3 11.54 11.54 0 0 1-.27 2.62c-.19.93-.51 1.84-.78 2.76-.07.25-.15.49-.21.73-.18.79.24 1.19 1 1a11.59 11.59 0 0 0 2-.71c1.4-.73 2.76-1.55 4.13-2.33a9.9 9.9 0 0 1 1-.57 1.21 1.21 0 0 1 1.52.41 9.06 9.06 0 0 1 1.6 3.1 4.22 4.22 0 0 1-.86 3.8c-1 1.25-2 2.43-2.95 3.73-1.26 1.83-2.43 3.72-3.6 5.62a14.85 14.85 0 0 0-2 5.47 5.79 5.79 0 0 0 .24 2.89 2.34 2.34 0 0 0 2.85 1.7 2.2 2.2 0 0 0 .82-.38 13.88 13.88 0 0 0 4.92-5.2c.76-1.23 1.35-2.56 2-3.85.19-.36.36-.73.85-.67s.67.43.75.86a6.88 6.88 0 0 1-.6 3.77 11.46 11.46 0 0 1-3.53 4.75 10.14 10.14 0 0 1-5.85 2.48 6.37 6.37 0 0 1-6.11-3.38 7.49 7.49 0 0 1-.8-3.28zM91 268.81h4.52c.89 0 1.29-.21 1.54-1.06.43-1.47.78-2.95 1.15-4.43.46-1.85.49-1.88 2.39-1.88h1c.77.05 1.13.45 1 1.2-.28 1.32-.63 2.63-.94 3.94-.08.3-.16.6-.22.91-.17.86.15 1.27 1 1.3.53 0 1.06 0 1.59-.05h4.75c.89 0 1.22.37 1.11 1.24a3.68 3.68 0 0 1-.17.8c-.47 1.37-.79 1.58-2.23 1.56h-6a1.21 1.21 0 0 0-1.39 1c-1 4.38-2.06 8.76-3.1 13.13a3.94 3.94 0 0 0 .48 3.37 2.47 2.47 0 0 0 1.39 1 9.26 9.26 0 0 0 4.76-.16l.34-.1c.76-.15 1.16.14 1 .89a8.12 8.12 0 0 1-.75 2.26 1.51 1.51 0 0 1-1 .64 36.66 36.66 0 0 1-4.79.38 7.86 7.86 0 0 1-3.23-.7 4.69 4.69 0 0 1-2.76-4.37 22.47 22.47 0 0 1 1-6.36c.5-1.89.91-3.8 1.37-5.7.3-1.25.59-2.51 1-3.75s0-1.62-1.22-1.6h-9c-1.1 0-1.44.2-1.7 1.28l-3 12.78a4.06 4.06 0 0 0 .52 3.59 2.45 2.45 0 0 0 1.26.88 9.17 9.17 0 0 0 4.82-.14l.57-.12c.52-.05.93.23.82.72a11.15 11.15 0 0 1-.88 2.57c-.14.3-.7.48-1.1.55-1 .17-2 .27-3 .36a9.41 9.41 0 0 1-4.4-.48 4.7 4.7 0 0 1-3.24-4.77 20.45 20.45 0 0 1 .53-4.47c.73-3.32 1.6-6.61 2.41-9.92.13-.49.28-1 .42-1.46.24-.87-.1-1.32-1-1.35a4.87 4.87 0 0 1-.76-.06.85.85 0 0 1-.79-.91 1.42 1.42 0 0 1 0-.2c.1-.5.24-1 .38-1.48a1.08 1.08 0 0 1 1.34-.91c1.55.26 1.9-.35 2.24-1.6.4-1.47.73-3 1.11-4.44.27-1.09.56-1.3 1.67-1.29h1.53c.77 0 1.14.42 1 1.17-.17 1-.41 1.92-.64 2.87-.16.66-.36 1.32-.53 2s.08 1.25.93 1.31H91zm236.46 26.53a5.61 5.61 0 0 1-4.5-1.47 5.16 5.16 0 0 1-1.63-3.65 14.18 14.18 0 0 1 .68-4.79 50.71 50.71 0 0 1 3.35-7.35c.63-1.23 1.41-2.38 2.11-3.58s1.39-2.36 2-3.57a.69.69 0 0 0-.83-1.06 3.39 3.39 0 0 0-1 .47 30.41 30.41 0 0 0-9.2 8.07 48.6 48.6 0 0 0-4.83 7.89c-.81 1.6-1.64 3.19-2.42 4.81-.46.94-.85 1.92-1.27 2.89-.2.44-.4.85-1 .89s-.85-.32-1.14-.76c-1.27-2-.94-4-.31-6 .15-.53.28-1.06.45-1.58a10.87 10.87 0 0 1 .49-1.18c.48-1.08.93-2.19 1.47-3.25q1.49-2.92 3.08-5.8c.81-1.47 1.66-2.92 2.53-4.35 1-1.71 2.11-3.39 3.18-5.07a2.32 2.32 0 0 1 .39-.44.81.81 0 0 1 1.15-.15.79.79 0 0 1 .28.39 6.06 6.06 0 0 1 .66 4.09 3.44 3.44 0 0 0-.12.64c0 .25.08.61.24.7a.85.85 0 0 0 .73-.13c.69-.58 1.29-1.27 2-1.81a40.46 40.46 0 0 1 4.45-3.13c2.09-1.17 4.14-.82 5.47 1.64a5 5 0 0 1 .55 3.67 9.9 9.9 0 0 1-.87 2.1c-.66 1.27-1.37 2.51-2.07 3.75-.81 1.42-1.65 2.84-2.46 4.26a32 32 0 0 0-1.59 2.94c-.8 1.85-1.6 3.71-1.3 5.82a2.15 2.15 0 0 0 2.24 2 2 2 0 0 0 .76-.18 9 9 0 0 0 3.77-2.8 36.74 36.74 0 0 0 4.27-6.3c.22-.4.45-.93 1-.76a1.06 1.06 0 0 1 .7 1.28 10.36 10.36 0 0 1-.67 2.95 15 15 0 0 1-6.24 6.74 7.73 7.73 0 0 1-4.54 1.16zm-101.8-39.77a12.86 12.86 0 0 1-1.54 6.4 43.76 43.76 0 0 1-2 3.92 36.88 36.88 0 0 1-5.16 7 47.92 47.92 0 0 1-6.42 5.91l-.78.54a3.38 3.38 0 0 0-1.41 1.94c-.33 1.16-.74 2.31-1.17 3.44a17.68 17.68 0 0 0-.89 4.83 7.46 7.46 0 0 0 .17 1.63 2.47 2.47 0 0 0 2.82 2.06 2.25 2.25 0 0 0 .67-.2 11.86 11.86 0 0 0 3.15-1.93 22.26 22.26 0 0 0 5.08-5.94c.39-.63.72-1.3 1.13-1.91.31-.46.59-1.12 1.29-.9s.62.91.57 1.46a9.75 9.75 0 0 1-2.46 5.84 18.8 18.8 0 0 1-5.42 4.33 8.66 8.66 0 0 1-7.36.7 5.21 5.21 0 0 1-3-2.91 9.64 9.64 0 0 1-.64-3 22.41 22.41 0 0 1 1.18-7.79c.41-1.37.72-2.77 1.23-4.1.79-2.06 1.67-4.09 2.57-6.1.73-1.6 1.5-3.18 2.35-4.72a52.36 52.36 0 0 1 3-4.91c2-2.73 4-5.39 6.07-8a24 24 0 0 1 2.13-2.27 2 2 0 0 1 2.81-.35 2 2 0 0 1 .45.5 5.56 5.56 0 0 1 1.58 4.53zm-14.66 20l.18.17a6.7 6.7 0 0 0 1.14-.84c1.46-1.58 3-3.13 4.3-4.8a33.3 33.3 0 0 0 3.19-4.71 67.1 67.1 0 0 0 2.87-6.15 3.62 3.62 0 0 0 .27-1.42.58.58 0 0 0-.52-.62.59.59 0 0 0-.48.2 1.92 1.92 0 0 0-.44.46c-1.53 2.2-3.1 4.36-4.56 6.6-1.09 1.67-2 3.44-3 5.16-.8 1.39-1.61 2.77-2.4 4.17a3.3 3.3 0 0 0-.55 1.77zm207.79 10.24a20.54 20.54 0 0 1 1.89-8.56 16.9 16.9 0 0 1 4.82-6.26 11.9 11.9 0 0 1 3-1.9 12.13 12.13 0 0 1 6.49-.87c.89.16 1.77.34 2.64.56a4.17 4.17 0 0 1 1.16.52c.77.48 1.39.31 1.62-.58s.43-2.07.68-3.09c.47-2 1-4 1.48-5.92.26-1 .65-1.22 1.66-1.19h1.59c.53 0 1 .28.92.93a10.2 10.2 0 0 1-.27 1.73c-.45 2-.93 4-1.38 5.94-.5 2.19-1 4.4-1.47 6.58-.68 2.93-1.42 5.85-2.11 8.78q-1.22 5.11-2.41 10.33c-.27 1.18-.6 1.48-1.8 1.49a15 15 0 0 1-1.64 0c-.72-.07-1-.35-1-1.06 0-.91-.29-1.09-1.12-.7s-1.56.89-2.36 1.29a9.79 9.79 0 0 1-6.85.74 6.82 6.82 0 0 1-4.66-3.86 12.44 12.44 0 0 1-.88-4.9zm9.61 5.23a24.15 24.15 0 0 0 3.13-.75 19.56 19.56 0 0 0 3.28-1.69 3.14 3.14 0 0 0 1.25-1.4 28.3 28.3 0 0 0 .92-3.51c.7-2.95 1.37-5.9 2.08-8.85.27-1.1.16-1.64-.92-2a16 16 0 0 0-4.43-1c-4.29-.17-7.07 2.19-8.85 5.89a16.7 16.7 0 0 0-1.49 8.81c.15 1.63.7 3.11 2.3 3.83a15.87 15.87 0 0 0 2.73.62zM63.83 268.1a13.71 13.71 0 0 1 5.5.77 5.47 5.47 0 0 1 3.85 6.68c-1 4.47-2.09 8.9-3.14 13.36-.31 1.27-.59 2.55-.89 3.82s-.58 1.53-1.94 1.52h-1.52c-.52 0-.84-.41-.8-1a4.76 4.76 0 0 0 .07-.75.73.73 0 0 0-.26-.53.82.82 0 0 0-.59.1c-1.06.57-2.08 1.24-3.18 1.73a11.36 11.36 0 0 1-8.07.56 5.54 5.54 0 0 1-3.15-2.59 7.62 7.62 0 0 1-.48-6.36 9.05 9.05 0 0 1 4.57-5.34 20.62 20.62 0 0 1 7.8-2.17c1.94-.23 3.89-.39 5.83-.58.94-.1 1.29-.43 1.39-1.36.22-2-.63-3.17-2.61-3.75a11 11 0 0 0-6 0c-1.54.42-3.1.8-4.65 1.2-.68.18-1.11-.12-1-.83a15.17 15.17 0 0 1 .55-2.4 1.68 1.68 0 0 1 1.42-1.18c2.44-.35 4.88-.65 7.32-1zm-5.93 22.71a7.12 7.12 0 0 0 3.5-.54c1.08-.5 2.17-1 3.23-1.55a3.28 3.28 0 0 0 1.84-2.29c.31-1.45.7-2.89 1-4.33.23-.94-.3-1.49-1.26-1.35-.75.1-1.51.21-2.26.27a20.09 20.09 0 0 0-7.55 1.76 5.2 5.2 0 0 0-3.08 3.93 3.28 3.28 0 0 0 2.34 4 3.57 3.57 0 0 0 .73.1zm-16.81 3.44a10.28 10.28 0 0 1-1.11 0 .85.85 0 0 1-.9-.79.74.74 0 0 1 0-.21 10.86 10.86 0 0 1 .22-1.39c.36-1.64.74-3.28 1.1-4.92.64-2.92 1.31-5.84 1.89-8.78a7.56 7.56 0 0 0 .09-3.66 3 3 0 0 0-2.45-2.31 8.63 8.63 0 0 0-5.65.77q-1.5.74-3 1.53a2.72 2.72 0 0 0-1.45 1.95q-1.24 5.61-2.53 11.21c-.41 1.78-.84 3.54-1.28 5.3-.28 1.16-.54 1.34-1.71 1.31h-1.46c-.81 0-1.16-.39-1.05-1.19s.32-1.57.5-2.35c.45-1.93.92-3.84 1.36-5.77.72-3.13 1.41-6.26 2.11-9.39s1.4-6.3 2.12-9.44c.49-2.14 1-4.27 1.51-6.39a1.36 1.36 0 0 1 1.44-1.27h1.71c.92 0 1.25.47 1.1 1.39-.09.56-.21 1.11-.34 1.67l-1.18 4.9c-.3 1.27-.63 2.54-.9 3.82-.05.25 0 .67.18.77a1 1 0 0 0 .79-.11c1-.56 2-1.25 3-1.74a10.06 10.06 0 0 1 6.73-.9 9.07 9.07 0 0 1 2.64 1.08c2 1.23 2.53 3.21 2.5 5.42a29.62 29.62 0 0 1-1.13 6.4c-.87 3.79-1.74 7.59-2.65 11.37-.43 2-.67 1.76-2.25 1.71zM121.92 282H114c-1.29 0-1.69.41-1.71 1.68a8.55 8.55 0 0 0 .41 3.18 6 6 0 0 0 4.59 3.94 14.92 14.92 0 0 0 8.94-1c.66-.25 1.27-.6 1.9-.9.12-.06.24-.13.37-.18.82-.28 1.17 0 1 .87-.11.63-.24 1.26-.35 1.9a2.27 2.27 0 0 1-1.73 1.81 24.41 24.41 0 0 1-8.62 1.54 14.18 14.18 0 0 1-6.24-1.38 8.21 8.21 0 0 1-4.3-5 17.5 17.5 0 0 1 1-10.62 18.84 18.84 0 0 1 3.21-4.88 15.09 15.09 0 0 1 5.41-3.83 14.66 14.66 0 0 1 3.81-.94 10.55 10.55 0 0 1 7.61 1.65 6.71 6.71 0 0 1 2.91 5.56 33.56 33.56 0 0 1-.46 5.3c-.16 1.08-.69 1.38-1.78 1.37h-8zm-1.39-3.29h5.4c1.85 0 2.1-.28 2.11-2.14a4.81 4.81 0 0 0-4.64-4.94c-4.4-.4-7.67 1.87-9.65 5.46-.62 1.12-.28 1.62 1 1.62zm340 3.29h-7.93c-1.28 0-1.71.39-1.71 1.68a7.22 7.22 0 0 0 1.52 5.1 6.13 6.13 0 0 0 3.26 2 13.18 13.18 0 0 0 7.78-.54c1.15-.43 2.26-.94 3.39-1.42a3.58 3.58 0 0 1 .55-.19c.53-.1.87.18.78.71-.14.85-.29 1.7-.51 2.53a2.26 2.26 0 0 1-1.67 1.44 24.35 24.35 0 0 1-8.9 1.53 12.45 12.45 0 0 1-7.43-2.36 7.7 7.7 0 0 1-2.93-4.66 18.11 18.11 0 0 1 .17-7.11 14.61 14.61 0 0 1 1.84-4.54 18.88 18.88 0 0 1 2.83-3.65 14.15 14.15 0 0 1 7.84-4.15 12.31 12.31 0 0 1 7 .61 7 7 0 0 1 3.42 3 9.5 9.5 0 0 1 .94 6.08 25.22 25.22 0 0 1-.37 2.61c-.24 1.15-.64 1.42-1.8 1.42H462zm-1.34-3.29h6.1c.6 0 1.18-.19 1.27-.81a6.06 6.06 0 0 0-.23-3.24 4.8 4.8 0 0 0-4.22-3 9.25 9.25 0 0 0-8.46 3.51 12.49 12.49 0 0 0-1.46 2.33c-.37.73-.05 1.15.77 1.21h6.23zm38.33.13c-.58 2.29-1.18 4.58-1.73 6.88-.52 2.13-1 4.26-1.48 6.4-.07.28-.12.58-.2.86a1.52 1.52 0 0 1-1.65 1.28h-1.81a.85.85 0 0 1-.88-1.1c.12-.69.35-1.45.52-2.17.49-2 1-4.07 1.45-6.11.46-1.88.88-3.76 1.4-5.63a12.08 12.08 0 0 0 .28-4.6 2.76 2.76 0 0 0-2-2.28 7 7 0 0 0-5 .26c-1.48.61-2.88 1.41-4.3 2.16a1.94 1.94 0 0 0-.92 1.37c-.57 2.33-1.18 4.66-1.74 7s-1 4.47-1.49 6.7c-.25 1.11-.51 2.21-.78 3.31a1.33 1.33 0 0 1-1.29 1.1 18.57 18.57 0 0 1-2.11 0c-.83-.05-1.15-.49-1-1.31.35-1.55.76-3.08 1.13-4.62.18-.7.34-1.4.51-2.11.51-2 1-4.05 1.53-6.08.43-1.76.84-3.53 1.25-5.3l1.17-5a1.19 1.19 0 0 1 1.13-1H482a.76.76 0 0 1 .78.74 1.1 1.1 0 0 1 0 .18v.07c.07.31.1.86.22.88a1.51 1.51 0 0 0 1.08-.18 12.41 12.41 0 0 1 5.65-2.29 7.78 7.78 0 0 1 6.48 1.49 12.09 12.09 0 0 1 1.43 1.76c.09.12.15.35.26.37 1 1.68-.25 6.68-.33 7zM158 274.66c-.2 1.09-.35 2.2-.59 3.28-.86 3.85-1.75 7.7-2.64 11.55-.3 1.25-.61 2.5-.95 3.75a1.26 1.26 0 0 1-1.19 1 15.72 15.72 0 0 1-2.17 0c-.84-.06-1.1-.5-.89-1.34.16-.65.35-1.29.5-1.93q1.13-4.89 2.24-9.78a18.4 18.4 0 0 0 .58-2.21 36 36 0 0 0 .26-4.15 2.8 2.8 0 0 0-2.19-2.52 8 8 0 0 0-5.65.64c-1.09.52-2.16 1.1-3.23 1.66a2.73 2.73 0 0 0-1.36 1.95c-.49 2.24-1 4.46-1.53 6.69s-1 4.31-1.52 6.45c-.3 1.24-.62 2.47-.94 3.7a1 1 0 0 1-.93.85 16.83 16.83 0 0 1-2.46 0c-.69-.06-.92-.41-.8-1.09s.22-1.08.34-1.61l1.74-7.12.2-.8c.7-3 1.39-6 2.09-9 .3-1.29.62-2.58.93-3.87a7.77 7.77 0 0 1 .24-.95 1.49 1.49 0 0 1 1.68-1.16h1.7c.56 0 .88.25.94.93 0 .38.06.92.3 1.09.43.3.86-.12 1.25-.37 3.31-2.14 6.85-3.09 10.62-1.5a5.44 5.44 0 0 1 3.28 4.74 9.37 9.37 0 0 1 0 1.06zm252.43 1.45v-1.06a3 3 0 0 0-2.27-2.79 7.37 7.37 0 0 0-4.94.37c-1.38.58-2.71 1.3-4 2a2.31 2.31 0 0 0-1.16 1.62c-.58 2.49-1.19 5-1.77 7.47-.48 2.1-.93 4.2-1.41 6.29-.26 1.09-.56 2.16-.84 3.24a1.13 1.13 0 0 1-1.11 1 17.5 17.5 0 0 1-2.29 0c-.75-.07-1-.49-.83-1.23.56-2.42 1.09-4.85 1.67-7.26.74-3.08 1.54-6.14 2.29-9.21.47-1.9.88-3.81 1.32-5.72.06-.27.11-.54.19-.8a1.62 1.62 0 0 1 1.83-1.3h1.65c.55 0 .89.26.93.93 0 .39-.2 1 .31 1.07a1.74 1.74 0 0 0 1.2-.37 13.23 13.23 0 0 1 4.66-2 9.91 9.91 0 0 1 5.1.14 5.85 5.85 0 0 1 4.16 5.07 15.46 15.46 0 0 1-.31 3.78c-.81 3.75-1.74 7.47-2.61 11.2-.36 1.52-.69 3-1.06 4.56a1.35 1.35 0 0 1-1.28 1.12 14.46 14.46 0 0 1-2.28 0c-.67-.06-.93-.43-.8-1.09s.34-1.25.49-1.87c.67-2.72 1.31-5.44 1.94-8.16.38-1.62.78-3.23 1.11-4.86a14.79 14.79 0 0 0 .21-2.1zm-32.72-7.37h2.7c.74.05 1 .43.86 1.15a12.63 12.63 0 0 1-.51 1.69 1.16 1.16 0 0 1-1.27.72h-4.94c-1.21 0-1.42.27-1.65 1.43-.38 1.95-.85 3.89-1.29 5.83-.52 2.25-1.06 4.49-1.58 6.73-.47 2.06-.91 4.13-1.38 6.18-.36 1.57-.66 1.79-2.25 1.79a9.64 9.64 0 0 1-1.52 0c-.66-.08-.88-.38-.86-1a1.84 1.84 0 0 1 .06-.47c.34-1.32.72-2.63 1-4 .42-1.79.79-3.59 1.2-5.38.54-2.32 1.1-4.64 1.65-7q.35-1.5.72-3c.18-.67-.08-1.08-.77-1.15a6.7 6.7 0 0 1-1-.05c-.52-.08-.86-.37-.78-.91a10.52 10.52 0 0 1 .41-1.83 1.19 1.19 0 0 1 1.2-.76c1.89-.07 2-.24 2.45-2a11.06 11.06 0 0 1 4.7-6.83 11.26 11.26 0 0 1 7.83-1.51 10.8 10.8 0 0 1 1.27.19 1.07 1.07 0 0 1 1 1.16 1.31 1.31 0 0 1-.06.27 18.61 18.61 0 0 1-.57 1.79.89.89 0 0 1-1.09.62c-.58-.12-1.15-.26-1.73-.35a5.73 5.73 0 0 0-6.73 3.95c-.14.46-.35.91-.51 1.37-.3.85 0 1.3.86 1.35s1.72 0 2.58 0zm2.91 25.5h-1.22a.81.81 0 0 1-.83-.77.85.85 0 0 1 0-.23c.13-.88.32-1.76.51-2.64s.41-1.59.6-2.39c.69-3 1.37-5.94 2.09-8.9.46-1.9 1-3.78 1.46-5.67.31-1.23.56-2.48.88-3.7s.59-1.31 1.76-1.28a16.7 16.7 0 0 1 1.87.07c.62.07.82.36.74 1a17.06 17.06 0 0 1-.37 1.89q-1.84 7.68-3.71 15.33c-.47 1.94-.89 3.89-1.43 5.8-.42 1.47-.6 1.53-2.14 1.51h-.23z"/><path d="M239.09 263.48a4.61 4.61 0 0 1-.93 2.69 1.67 1.67 0 0 1-1.88.63 3.37 3.37 0 0 1-1.24-.72 4.63 4.63 0 0 1-1.47-4 3.22 3.22 0 0 1 1.61-2.46 1.64 1.64 0 0 1 1.17-.13 4.27 4.27 0 0 1 2.74 3.99zM351.45 282h-1.36a.78.78 0 0 1-.87-.66v-3.16c0-.64.34-.9 1-.92h2.58c.86 0 1.11.34 1.14 1.12s0 1.76 0 2.64c0 .63-.34.91-1 .93s-1 0-1.47 0zm-180.72 0h-1.41a.82.82 0 0 1-.88-.86v-2.82a.9.9 0 0 1 .79-1 .74.74 0 0 1 .21 0h2.75a.9.9 0 0 1 1 .79.74.74 0 0 1 0 .21v2.76a.82.82 0 0 1-.69.92h-1.77zm217.92-22h1.46c.75.07 1 .51.79 1.22s-.36 1.32-.54 2a1.4 1.4 0 0 1-1.54 1.22h-2.41c-.8 0-1-.36-.91-1a25.07 25.07 0 0 1 .65-2.55 1.2 1.2 0 0 1 1.27-.84z"/></g><g fill="#26c9df"><path d="M240.21 210.97zm-52.81-61.39v-5.52a3.32 3.32 0 0 0-.82-2.47v-.23a5.59 5.59 0 0 1-.1-2.23 3 3 0 0 0 0-1 1.75 1.75 0 0 0-.87-1.72c-.05-.12-.09-.24-.13-.37a2.26 2.26 0 0 0-.86-2.27l-.09-.33a1.68 1.68 0 0 0-.93-1.63v-1.3c0-.68-.21-1.2-.94-1.33a.64.64 0 0 0 0-.07c.25-1.12-.65-1.67-1.2-2.39v.17a.93.93 0 0 0-.29-.3 2.1 2.1 0 0 1 .26.13c0-.47-.41-.55-.72-.72a.53.53 0 0 0 .05.19c0-.12-.12-.24-.17-.36l.13.18a1.82 1.82 0 0 0-1-1.68c0 .12.11.23.16.35a1.77 1.77 0 0 0-.12-.17 2.67 2.67 0 0 0-.13-.4 1.59 1.59 0 0 1 .13.22 3.18 3.18 0 0 0-1.69-2.88l.29.49a4.11 4.11 0 0 0-.29-.31.47.47 0 0 1-.23-.47 1.19 1.19 0 0 0-.11-.38 2 2 0 0 1 .11.2 1.57 1.57 0 0 0-1-1.69 1.28 1.28 0 0 0 .16.38l-.16-.2a4.19 4.19 0 0 0-1.44-1.68 2.37 2.37 0 0 1-.39-.32 1.09 1.09 0 0 0 .43.14c-.32-.45-.59-.91-1.21-1 .1.15.2.3.3.43a2.13 2.13 0 0 0-.34-.25l-.23-.23a1.2 1.2 0 0 1-.15-.39 1.84 1.84 0 0 0 .19.25 1.79 1.79 0 0 1 .32-1.23l.12-.08.47-.24a3 3 0 0 0 .54-.11 1.14 1.14 0 0 0 1.09-.57h.06l.47-.24a2 2 0 0 0 .65-.33 22.66 22.66 0 0 0 2.47-1.1c.46-.3 1.21-.52 1.25-1.25l.19-.2.15-.15a.93.93 0 0 0 .83-1 .82.82 0 0 0-.82-.82c-1.45 0-3-.51-4.19.92.11 0 .21 0 .32-.06-.12.07-.25.12-.36.2a4.46 4.46 0 0 0-.82.05 6.28 6.28 0 0 1 .86-.19c-1.48-.12-2.85.14-3.6 1.68l.24-.19c-.09.11-.19.21-.28.33l-.47.24c-.42 0-1 .35-1.22 0 .19.18.54.09 1.26-.17-.41-.12-1.31.4-1-.54.15-.62.38-1.16-.33-1.28s-1.67-.58-2 .62l.2-.12a1.17 1.17 0 0 0-.24.3l-.48.24a2.43 2.43 0 0 1-1.68 0 4.35 4.35 0 0 0-.72-.49l.76.35a2 2 0 0 0-2.16-1l.8.37a4.74 4.74 0 0 0-.84-.23l-.43-.25c.16 0 .31.11.47.15a2.7 2.7 0 0 0-2.64-1c.15.08.3.13.45.2l-.49-.1-.35-.2.39.14a3.16 3.16 0 0 0-2.88-1l.36.12-.4-.06-.14-.08.18.06a3 3 0 0 0-2.64-1l.14.06h-.15c-1-1.32-2.5-.89-3.83-1l.7.14a1 1 0 0 1-.74-.12.47.47 0 0 1-.47-.22 8.13 8.13 0 0 0-4.9-1.68h-.14c-.79-1-1.92-1-3-1h-.3a5.18 5.18 0 0 0-.6-.26 6.25 6.25 0 0 0-3.12-.66c-2.82.08-5.64 0-8.47.23a5.37 5.37 0 0 0-2.51.66h-.18a1.63 1.63 0 0 1-.3.07c-1.9.08-4-.5-5.7.87-.21.16-.62.07-.94.07H119a3.06 3.06 0 0 0-1.72.42 4.31 4.31 0 0 1-2.28.56c-2.42.07-4.85 0-7.28.15-1.5.11-2.78.95-4.31.82-2-.17-3.87 1.32-6 1.07a.48.48 0 0 0-.32.15 3.25 3.25 0 0 1-2.58.69c-.43 0-.92-.13-1.28.17-1.6 1.35-4 .21-5.53 1.67l-.39.07h-.46a11.07 11.07 0 0 0-7 1.7 1.28 1.28 0 0 1-.79.2c-2.09-.45-3.91.67-5.74 1.2a16.82 16.82 0 0 1-5.37.72 3 3 0 0 0-2.57.91l-.18.07c-1.22 0-2.43 0-3.33 1-1 .07-2.07-.36-2.83.17-1.51 1.05-3.12.73-4.73.78a2.78 2.78 0 0 0-1.72.35 3.73 3.73 0 0 1-2.38.63H36.56a3.64 3.64 0 0 0-3-.94 2.61 2.61 0 0 1-2-.74c-1.15-1-1.54-2.58-2.62-3.58H29v-5.76a2.61 2.61 0 0 0-.24.23 1 1 0 0 1 .19-.22l.06.07a3.79 3.79 0 0 0 1-2.17 16.36 16.36 0 0 1 1.09-4 4.82 4.82 0 0 0 .76-2.5 1.72 1.72 0 0 0 1-1.92 27.38 27.38 0 0 0 3.78-5c.42-.82 1.24-1.49 1-2.55a1.14 1.14 0 0 0 .72-1c1.7-1.66 3.72-3 5.08-5A14.69 14.69 0 0 1 47.56 78c1.52-1 2.44-2.68 3.44-4.11a15.9 15.9 0 0 1 3.19-3.51c.72-.57 1.8-1 1.73-2.21a.34.34 0 0 1 0-.1 1.29 1.29 0 0 1 0-.19.38.38 0 0 0 0-.15c1.94.17 2.55-1.35 3.35-2.65l.24-.23c.92.18 1.61-.46 2.28-.81A5 5 0 0 0 64.5 61a2.9 2.9 0 0 0 1-1 3.19 3.19 0 0 0 2.59-1.68v-.46a.42.42 0 0 0 .06.27 1.72 1.72 0 0 0 1.39-.52A9.31 9.31 0 0 0 72 54c.42-.19.64-.66 1.18-.72A3.22 3.22 0 0 0 76 51a2.06 2.06 0 0 1 2-1.56 3.15 3.15 0 0 0 2.65-1.65v-.24h.07c.5 0 .89-.11 1-.72h-.05s-.12-.07 0-.21h.06c.68 0 1-.44 1.4-.94.67 0 1-.42 1.34-1h.07a1.14 1.14 0 0 0 1.2-.72h-.07l.47-.24c1 .12 1.42-.43 1.45-1.32v-1.52a.49.49 0 0 1 .17-.06 10.12 10.12 0 0 0 1.74 0 4 4 0 0 0 2.75-1.5l.11-.08.48-.24.16-.1a1.25 1.25 0 0 0 1.24-.66l.46-.24.22-.12a2.25 2.25 0 0 0 1.76-1.61l.19-.19a1.76 1.76 0 0 0 .2-.09 1.52 1.52 0 0 0 1.25-.91h.19c.66 0 1.22 0 1.54-.73l1.4-1.17v-.12.1a1.14 1.14 0 0 0 1.2-.72l.52-.24c1.8-.39 2.91-1.83 4.28-2.87 1.67-.41 3-1.54 4.54-2.27s2.94-2.14 4.48-3.14a.91.91 0 0 0 .53-.15 4.09 4.09 0 0 0 .93-.32 1.87 1.87 0 0 0 .72-.45l.27-.23a4 4 0 0 0 .59-.17 1.89 1.89 0 0 0 1.13-.67 1.56 1.56 0 0 0 .2-.16 3.62 3.62 0 0 0 .47-.13 1.84 1.84 0 0 0 1.33-.77l.12-.1c.11-.05.21-.11.32-.15a5.75 5.75 0 0 0 2.65-1.44l.15-.09.48-.24a.48.48 0 0 1 .16-.08 2.56 2.56 0 0 0 1.15-.11c1-.75 2.26-1 3.3-1.67l.19-.06.4-.07c.86 0 1.72.06 2.22-.91l.26-.05c.69.05 1.11-.47 1.59-.92h.07v.06a2.9 2.9 0 0 0 2.41-.79A3.33 3.33 0 0 1 141 13a4.08 4.08 0 0 0 3.2-.65 3 3 0 0 1 1.5-.3 14.26 14.26 0 0 0 4.14-1.49c1.28-.53 2.34-1.63 3.92-1.39a2.36 2.36 0 0 0 1.75-.2 6.06 6.06 0 0 1 3-.76c3.65-.43 7.14.62 10.71 1a1.69 1.69 0 0 1 .91.51 13.42 13.42 0 0 1 2.37 3.5 1.83 1.83 0 0 1 .5 1.18c-.18 1.88.26 3.73.26 5.61a28.19 28.19 0 0 0-.26 4 .5.5 0 0 0-.24.49c-.55 0-.72.36-.72.88v1.52a.76.76 0 0 0 0-.11.56.56 0 0 1 0 .12v.05c-1.13.78-.93 2-.93 3.05l-.11.13.06-.12a1.89 1.89 0 0 0-1 2.16l.12-.25v.21c0 .07-.1.16-.16.24a1.67 1.67 0 0 0 .08-.2c-.82.48-.89 1.31-1 2.16.06-.09.1-.18.15-.27 0 .07-.05.15-.07.23v.06c-.55.22-.64.82-.77 1.23-.6 2-.08 4.27 2.71 4.27l-.14-.08h.14a.52.52 0 0 0 .52.2l.18.13h-.22a1.12 1.12 0 0 0 1 .72h2.12l-.93-.22a3.92 3.92 0 0 1 1 .14l.2.17a1.7 1.7 0 0 0-.24-.09 1.58 1.58 0 0 0 1.68 1l-.23-.14a.82.82 0 0 0 .27.06h.72a1.27 1.27 0 0 0 .28 0 1.21 1.21 0 0 1-.32.11 2 2 0 0 0 2.16-1.21h-.11l.15-.12.19-.19a3.88 3.88 0 0 0 2.17-4 24.32 24.32 0 0 1 0-2.7.47.47 0 0 1 .24-.48l.09-.06c1-.3.49-1.2.62-1.84.85-.18.92-.86.94-1.55V19.13a1.31 1.31 0 0 0-.74-1.37v.08c-.47-.59-.13-1.28-.23-1.92 0-.13-.11-.25-.15-.38a1.77 1.77 0 0 1 .15.31 1.89 1.89 0 0 0-1-1.89 7.32 7.32 0 0 0-2.19-4.18c-.55-.57-.66-1.48-1.66-1.57l.39.45c-.15-.13-.28-.29-.43-.42l-.21-.24a1.47 1.47 0 0 0-.1-.13l.14.1v-.15a.68.68 0 0 0-.73-.61l.1.14-.14-.11A3.69 3.69 0 0 1 175.61 6c-.06-.08-.14-.14-.2-.22l.24.19a2.88 2.88 0 0 0-3.12-1.68l.21.07a1.87 1.87 0 0 0-.25 0h-.06a3.11 3.11 0 0 1-.38-.25.41.41 0 0 1 0-.22c0-.08 0-.14-.07-.21l.15.18c-.11-1.25-.91-1.52-2-1.45l.16.07h-.43l-.18-.09.25.06c-.58-.44-1-1.13-1.92-1a1 1 0 0 1 .11.1 1.34 1.34 0 0 0-.18-.07l-.05-.05.12.06C167.75.9 167 .7 167 0h-14.47v.06V0h-4.08a.52.52 0 0 1-.43.48c-1.22.45-2.51.8-3.63 1.34-1.37.65-2.89.56-4.25 1.34a8.06 8.06 0 0 1-2.92 1.12c-1.56.14-2.85 1.07-4.37 1.24h.11l-1 .7h-.18l.17-.06c-.74 0-1.47 0-1.92.72l.17-.06-.16.09c-.82.29-1.65.57-2.47.88-2.06.76-4.06 1.76-6.06 2.63a18 18 0 0 0-4.2 1.94 16.65 16.65 0 0 1-4.45 2.4c-2.74 1-4.85 3.15-7.64 4-.21.06-.36.3-.55.45-1 .85-2 2-3.17 2.48a25.42 25.42 0 0 0-7.18 4.46c-1.49 1.29-3.25 2.28-4.82 3.51-1.37 1.07-3.18 1.53-4.56 2.69-2.3 1.88-5.16 3-7.45 5a129.11 129.11 0 0 0-10.58 7.89c-3 2.3-5.81 4.86-8.81 7.1-3.19 2.36-6 5.27-9.41 7.27-1.8 1-3 2.8-4.61 4.15a36.81 36.81 0 0 0-4.23 3.55 105.37 105.37 0 0 1-8.24 8.93c-1.61 1.46-2.59 3.6-4.1 5.07s-2.13 3.57-3.31 5.28a31 31 0 0 0-2.2 3.55 23.05 23.05 0 0 0-3.55 7.43c-.26 1.05-.64 2.05-.95 3.05a.52.52 0 0 1-.5.43v5.76c1.38.62 1.52.94 1 2.15a3.6 3.6 0 0 0 1.29 4.23 8 8 0 0 1 1.77 1.6 8.09 8.09 0 0 1 1.21 2.07 21 21 0 0 0 2.89 4.75 4.66 4.66 0 0 0 1.9 1.47v.06c1.59.68 2.75 2.14 4.56 2.41.25.54.74.47 1.21.47l1.92.72c.67.48 1.44.14 2.16.24h.24c.34.39.79.18 1.2.24.44.24.77.86 1.44.72.67.47 1.44.13 2.15.23a7.71 7.71 0 0 0 3.31.23c5.44 0 10.91.3 16.21-1.39.9-.28 1.91.24 2.8-.28a.85.85 0 0 0 1-.48h-.06l1.91-.24h.08c1.12-.2 2.34.42 3.36-.48h-.08a.51.51 0 0 1 .48-.24l.08-.05v.05c.41-.06.86.15 1.2-.24h.3-.06c.41 0 .86.16 1.2-.24a7.16 7.16 0 0 1 2.64-.72c.61 0 1.23.07 1.68-.48l1.2-.48h.08c.8-.11 1.64.25 2.4-.24a.85.85 0 0 0 1-.48h.2a27 27 0 0 0 5.77-1.09 11.65 11.65 0 0 0 3.24-1.4 2.63 2.63 0 0 1 1.21-.46 28 28 0 0 0 5.45-1c1-.25 1.89-.3 2.89-.6 1.46-.45 2.84-1.39 4.46-1.45a6.72 6.72 0 0 0 2.71-.32 7.18 7.18 0 0 1 3.6-.65 17.92 17.92 0 0 0 5.54-.72c2.26-.58 4.46-1.26 6.83-1 .14 0 .31-.11.47-.19H125c1.64.19 3.16-.72 4.81-.55a1.15 1.15 0 0 0 1-.41 5.84 5.84 0 0 0-.73.05l.7-.13h.52l-.49.13h4.53a3.11 3.11 0 0 0 2.19-.72h-.35a3 3 0 0 0 .32-.12 2.27 2.27 0 0 1 .25-.06l-.22.1h1.92l-.16-.07h.24-.08a3.38 3.38 0 0 0 2.31.73c3.07.1 6.14-.39 9.2 0l-.26-.1.26.06a.49.49 0 0 0 .49.23l.6.22-.6-.14c.88.91 2 .69 3.12.72l-.63-.15c.21 0 .42.06.63.07a.64.64 0 0 0 .21.09h-.21c.42.42 1 .17 1.44.24a.85.85 0 0 0-.32-.2.66.66 0 0 1 .32.12 4.07 4.07 0 0 0 .8.42l-.8-.3c.45.71 1.18.7 1.92.72l-.88-.33a4.34 4.34 0 0 0 .88.21l.26.08h-.26l1.44.72a.67.67 0 0 0-.07-.17.31.31 0 0 1 .07.09c.79.07 1 .93 1.68 1.2l.37-.09-.37.17a3.44 3.44 0 0 1 1.68.23 1.57 1.57 0 0 0-.24-.3 1.2 1.2 0 0 1 .24.22h.24l.13.12h-.13c.15.31.45.52.46.92l-.46.24a12.52 12.52 0 0 0-4.33 2.32l-.06.13-.1.14a2 2 0 0 1-2.21.4.45.45 0 0 0-.34 0 1 1 0 0 0-.17.07c-.38.2-.81.29-1 .7a.35.35 0 0 0 0 .11 4.82 4.82 0 0 0-1.45 1.13c-.35.37-.68.79-1.29.7h-.07a.86.86 0 0 0-.92.43c-.47.36-1.14.39-1.42 1-.16.16-.32.32-.49.47h-.1a.68.68 0 0 0-.62.71c-.15.23-.42.44-.42.69-.26 1.38-.33 1.47-1.69 1a2.69 2.69 0 0 0-2.45.21c-.85 0-1.19.73-1.85 1-2.78 1.13-5.08 3.07-7.5 4.75a41.81 41.81 0 0 1-5.08 3c-1.24.64-3.13.77-3.32 2.74-1.26.62-2.65 1-3.65 2.1a15.17 15.17 0 0 1-6.3 3.88 3.51 3.51 0 0 0-1.46 1 26.58 26.58 0 0 1-4.55 3.85 51.85 51.85 0 0 1-5.94 3.89c-1.72.87-2.78 2.65-4.29 3.87a14.39 14.39 0 0 1-2.34 2 17.25 17.25 0 0 0-5.46 4 5.81 5.81 0 0 1-2.25 1.83c-.16.14-.36.26-.28.5l-.68.23-.26.23.24.24-.49.72c-1.75 1.13-3 2.87-4.66 4a38.6 38.6 0 0 0-9.14 8 4.78 4.78 0 0 1-2 1.67.71.71 0 0 1-.14.1c-.67.28-1.36.53-1.56 1.36a1.5 1.5 0 0 1-.11.13 13.79 13.79 0 0 0-2.16 2.16l-.11.09-.14.12a5 5 0 0 0-2.36 2.37 14 14 0 0 1-2.38 2.42v.05h-.47a29.61 29.61 0 0 0-3.37 3.35 3.31 3.31 0 0 1-2.24-.09c-.6-.3-1.22 0-1.33.83h.05a.76.76 0 0 0-.08.11v.27a.5.5 0 0 0 0-.12h-.28c-1.26.39-.72 1.19-.26 1.71a1.06 1.06 0 0 1 .15.15.9.9 0 0 1-.15 1.26l-.06.07c-.36 0-.72.15-1-.22a1 1 0 0 0-.25-.29.84.84 0 0 0-1.16.2c-.71.82-1.46 1.6-2.24 2.35a2.52 2.52 0 0 0-.62.52L47 204a33.35 33.35 0 0 0-3.31 4.1 5.49 5.49 0 0 1-1.89 1.9 4.39 4.39 0 0 0-2 2.92c-.56.6-.8 1.41-1.43 2a19.62 19.62 0 0 0-5.21 7.3 12.92 12.92 0 0 0-3.4 4.16c-2.38 4.48-4.26 9.18-6.26 13.81a20 20 0 0 0-1.27 5.4 19.23 19.23 0 0 0-.59 4.47 2 2 0 0 0 0 1.77 14.2 14.2 0 0 1 .74 3.22 66.61 66.61 0 0 1 .29 6.92 7.67 7.67 0 0 0 .64 3.95 8.27 8.27 0 0 1 1 2.1 6.91 6.91 0 0 0 2.39 3.72c1.11 1.08 2.33 2.08 3.33 3.24 2.07 2.34 4.25 4.41 7.62 4.6a4.74 4.74 0 0 1 2.84 1.07 2.53 2.53 0 0 0 2.07.55h4.73a.8.8 0 0 0-.11-.31 1 1 0 0 1 .24.16h5l.24-.1a2.21 2.21 0 0 0-.32.29h1a.68.68 0 0 1 .12-.12v.19h4.64v-.08h.67v.06c1.48.36 2.43-.48 3.38-1.44h-.2l.14-.07h2.74c1.65 0 1.75-.11 1.35-1.66l.22-.22h3a1.3 1.3 0 0 0 1.36-.73h-.07l.47-.24h.07c.85-.11 1.85.38 2.41-.72l-.08.05.05-.05.47-.24c1.44-1.11 3.24-1.1 4.8-1.68a.8.8 0 0 0 .23-.22c.27-.06.53-.12.78-.2a.92.92 0 0 0 .27-.08 5 5 0 0 0 3.27-2.6h2.48a1.29 1.29 0 0 0 1.36-.73l.47-.24a4.67 4.67 0 0 0 4.33-1.92 2.25 2.25 0 0 0 1.93-1.53l.09-.13.23-.23h.1a.68.68 0 0 0 .63-.73l.23-.23h.1a.68.68 0 0 0 .63-.73c-.06 0-.1.08-.15.11l.08-.12.23-.23c.15-.11.28-.24.42-.36-.11.13-.23.25-.35.37 1.37-.61 2.15-1.85 3.13-2.88l-.24.13.17-.14.39-.14c-.1.05-.22.09-.32.15a2.44 2.44 0 0 0 1.5-.27 4.06 4.06 0 0 1 1.48-.71 5.54 5.54 0 0 0 3.26-1.9l-.32.17.25-.18.28-.16-.21.17a4.49 4.49 0 0 0 2.88-2.4l-.28.23c.07-.08.14-.15.21-.24a1.29 1.29 0 0 1 .17-.16l-.1.17a4.28 4.28 0 0 0 1.68-1.44 2.85 2.85 0 0 0 2.25-.68 4.83 4.83 0 0 1 1.79-1.08h.13a1.49 1.49 0 0 0 1.07-1.81v-.01l.24-.24a1.18 1.18 0 0 1 .71-.13l-.64.14a11.75 11.75 0 0 0 1.78 0c.8-.13 1.58-.42 1.58-1.42a2.4 2.4 0 0 1-.21.23c0-.08.1-.16.14-.24a.83.83 0 0 1 .14-.22 1.55 1.55 0 0 0-.07.23c.41-.39 1.15-.45 1.2-1.2l-.15.08.08-.09.24-.24c.12-.1.28-.17.31-.35v.12l-.24.2c.91.07 1.79 0 1.91-1.17a2.46 2.46 0 0 1 2.12-.78.81.81 0 0 0 1-.41c.16-.15.32-.31.47-.47h.11a.67.67 0 0 0 .62-.72 6.44 6.44 0 0 1 1.68-1.2c1.07.14 1.24-.46 1.3-1.36 0-.61-.29-1.56.79-1.49 1.42.1 1.42-.71 1.35-1.71 0 .11-.09.22-.13.32a3.11 3.11 0 0 0 0-.32v-.2h.17c.66 0 1.35.09 1.73-.66l.48-.24h.13c.5 0 1 0 1-.62v-.12a1.1 1.1 0 0 0 .69-1v-.21h.05c.5 0 1.08.11 1.18-.69l.24-.23h.07a3.64 3.64 0 0 0 2.5-1.68c.59-1.57 2.27-2.37 2.58-4.06a9.46 9.46 0 0 1 .87-.92 1.82 1.82 0 0 0 .82-.65l.13-.1.47-.24h.07a4.43 4.43 0 0 0 3.87-3.71c0-.12.11-.23.15-.35l.07-.09c1-.6 1.65-1.63 2.9-1.75.28 0 .62-.5.77-.84a6.06 6.06 0 0 0 .72-2.6v-.24a2.06 2.06 0 0 0 1.21-.35c1.16-.77 1.7-2 2.61-3a8.74 8.74 0 0 0 1.92-1.92c.51-.39 1.09-.72 1.2-1.44a3.15 3.15 0 0 0 1.92-1.92c.56 0 .67-.46.9-.83.56-.89.83-2 1.76-2.63a3 3 0 0 0 1.41-2.25l.05-.07a1.15 1.15 0 0 0 .65-.9c1.19-.53 2.14-1.22 1.89-2.77a6.14 6.14 0 0 1 0-1.05c1.07 0 1.27-.94 1.65-1.65l.23-.24h.12a.67.67 0 0 0 .61-.71 1.58 1.58 0 0 0 1.16-1.9c.31-.16.69-.25.71-.69v-.05c1-.93 2.17-1.72 2.13-3.31a1 1 0 0 0 .89-.87 14.72 14.72 0 0 0 .08-2l.05-.07a1.7 1.7 0 0 0 .72-1c.21-.53 0-1.13.3-1.64a.87.87 0 0 1 .1-.08.32.32 0 0 0 .08-.12h.08a1.48 1.48 0 0 0 1.44-1.52c-.07-1.26.73-2 1.31-2.83a3.47 3.47 0 0 0 .72-2.34h.14a1 1 0 0 0 .78-1.18 2.78 2.78 0 0 0 1-2.12h-.06a1.13 1.13 0 0 1 .1-.13c1.32-.69.88-1.9.95-3a.45.45 0 0 1 0-.11.15.15 0 0 0 .07 0 3.2 3.2 0 0 0 1.88-3.13 4.24 4.24 0 0 1 .1-2c0-.27-.05-.55.23-.72a1.78 1.78 0 0 0 .23-.31c.29-.16.33-.49.34-.85a2 2 0 0 0 0-.74v-4.52c0-.51.09-1 .16-1.52a.89.89 0 0 1 0-.23 5.93 5.93 0 0 1 0-2.65 2 2 0 0 0 0-1.44c.26-1.28.21-2.28.18-3.29zm-6.9-40.41h.52-.14a4.67 4.67 0 0 0-1.24 0 2.71 2.71 0 0 1 .86 0zM173.25 24zm8.39-10.12l-.08-.15c0-.13-.11-.25-.16-.38.07.23.16.39.24.56zm-37-2.57zM137 13.69h-.08zm-2.59 1.17zm-1.62-8.4s.01.01.01 0zm-4.38 10.66l.18-.05-.3.16zm-2.33 1.2h.14l.18-.05a2.55 2.55 0 0 0 .4 0 1.38 1.38 0 0 1-.73.12h-.09a.31.31 0 0 0 .11-.07zm-24.62 14.57V33a.25.25 0 0 0 0-.07zm-13.95 8c-.06.19-.11.39-.16.59a.92.92 0 0 1 .16-.59zm-1.33-5.68s0 .01 0 0zm-1.25-.4l-.06.06s.06-.04.06-.06zm-6.49 6.49zm-13 18.47h-.08zm-9.48 7.91a.26.26 0 0 0-.07-.11.23.23 0 0 0 .07-.07zm4.09-12zM59.24 54zm-.19-.18zM31.31 98.94a3.65 3.65 0 0 1 .18-.34 1.44 1.44 0 0 1-.2.52c-.07.1-.12.21-.19.32.07-.17.13-.34.21-.5zM19.89 95zm12.59 22h.09zm5.9 10v-.06l.17.08zm3.57 1h-.07l-.29-.14c.13 0 .25.07.38.09s.03-.04.03-.02zm33.38-14.62zm27.12 3.79V117a.35.35 0 0 0 .08.1h.08zm19.26-3.6a5.65 5.65 0 0 1 1.3 0zm6.18-9.86zM24 265.52zm.41 1c.12.26.24.52.37.77a.14.14 0 0 1 0 .07c-.14-.36-.28-.6-.4-.89zm147.43-156.2h-.11a1.21 1.21 0 0 0-.45-.12.68.68 0 0 1 .56.12zm-9.39 8a.17.17 0 0 0 .06.06h-.1s.04-.06.04-.08zm-.47 2.18zm-7.22 1.46h.09-.08zm-4.56 3.11zm-21.47 16.71l-.09.08zm-66.1 49.52zm-2.94 2.41l-.06.05zm-20 35.79a1.17 1.17 0 0 0 0 .11h-.12zm18.16 50.9l-.32.06h.18c.15 0 .29-.09.43-.12zm3.36-1.2l-.28.1.26-.11h.08zm1.68-.24h-.24a.79.79 0 0 1-.38.13l.2-.11h.1a1.87 1.87 0 0 0 .34-.08h.33a1.37 1.37 0 0 0-.32.1zm1.92-.48a1 1 0 0 1-.25.16 1.54 1.54 0 0 0 .18-.23h-.24l.25-.1v.06a.43.43 0 0 0 0-.07 1 1 0 0 0 .18-.22zm.29-.62zm4.1-1.21h.15zm1.44-.33h-.13.17zm1.44-.24h-.16l-.27.07a1.06 1.06 0 0 0 .21-.11H72c.37-.17.76-.32 1.14-.49a4.64 4.64 0 0 1-1.03.53zm3.76-2.48a2.42 2.42 0 0 0-.45.24 2 2 0 0 1 .71-.37zm3.67-.6a2.24 2.24 0 0 1-1.05.36 8.63 8.63 0 0 0 1.11-.4zm2.27-11.63a3.11 3.11 0 0 1-.22.4 1.59 1.59 0 0 0 .06-.3l.09-.06h.07zm18-10.12v.12-.08a.47.47 0 0 1 .06-.09s-.04.03-.04.05zm.71-.71zm9.58 4.35a1.15 1.15 0 0 1-.17.06l.1-.07h.09zm10.6-7.2v.06-.06zm31.68-28.07zm4.25-5.45zm9.43-11.25s0-.09.07-.13zm3-4v-.32a.38.38 0 0 1 .11-.3 6.18 6.18 0 0 1-.04.59zm3.88-5.11s.09-.06.09-.03zm2.87-4.08s.08-.05.07-.03zm1-2.74v-.18c.09.01.06.08.04.19zm1.27-3.62v.09a.36.36 0 0 0-.14-.1h-.13a1.6 1.6 0 0 1 .23-.1.48.48 0 0 0 .17 0zm.27-35.54c-.86 3.49-.54 7.11-1.39 10.64-.67 2.8-1.63 5.49-2.42 8.23-1.15 3.85-3.32 7.25-5.15 10.79-1.31 2.56-3.07 4.86-4.31 7.47a.66.66 0 0 0-.53.41c-.93 1.73-2.51 3-3.45 4.73a52.81 52.81 0 0 1-4.16 5.69c-1.5 2.06-3.5 3.73-4.73 6a27.06 27.06 0 0 1-2.88 4c-.24.29-.64.52-.57 1-.82 1-1.82 1.85-2.72 2.85-.53.58-1.25 1-1.48 1.83a.5.5 0 0 0 0 .12 7.07 7.07 0 0 0-.65.56c-1.52 1.74-3.39 3.11-4.93 4.85-1.34 1.5-3.06 2.5-4.5 4.08s-2.83 3.15-4.37 4.58a18.12 18.12 0 0 0-3.48 3.73 1.47 1.47 0 0 1-.91.74 7 7 0 0 0-3.28 2.07 35.14 35.14 0 0 1-4 3.62c-1.45 1-2.1 2.9-4 3.2-.1 0-.18.15-.27.24a39.16 39.16 0 0 1-4 3.39 1.37 1.37 0 0 0-.35.08c-2.45 1.36-4.31 3.55-6.75 5-2 1.15-3.47 3-5.67 4-3.14 1.44-5.64 4-8.73 5.61-2.82 1.48-5.94 2.48-8.47 4.48a1.88 1.88 0 0 1-.23.16c-.33.14-.65.31-1 .47a12.7 12.7 0 0 0-1.84.67c-.49.29-1 .54-1.5.79l-2.12 1-.76.32a54.26 54.26 0 0 0-5.14 2.37 35.18 35.18 0 0 1-6.13 1.67 43.17 43.17 0 0 0-5.6 1.49c-1.6.61-3.28.74-4.9 1.29a6.29 6.29 0 0 1-1.48.31 24.89 24.89 0 0 0-3.74-.2h-.13c-.66-.08-1.31-.16-2-.2a18.65 18.65 0 0 1-6.87-1.52c-2.8-1.32-5.15-4.32-5.15-7.32a3 3 0 0 0-.29-1.52 2.91 2.91 0 0 1-.16-2.63 3 3 0 0 0-.07-2.22 2.79 2.79 0 0 1-.21-.75 5.32 5.32 0 0 1 .06-1.32 2.71 2.71 0 0 1 .22-.6 4.36 4.36 0 0 0 .45-2.19 16.48 16.48 0 0 1 1.14-7.25c.29-.6.56-1.2.82-1.81l.06-.1c0-.07.05-.14.08-.2.33-.75.66-1.48 1-2.19a6.73 6.73 0 0 0 .56-1.86c.35-.85.73-1.68 1.16-2.49.7-1.06 1.43-2.11 2.08-3.22a7.09 7.09 0 0 0 .79-1.36 23.11 23.11 0 0 0 2.13-4.63.5.5 0 0 0 .12.08c.47 0 .69-.36.86-.74 1.52-3.39 4.2-6 6.4-8.89 1.87-2.53 3.57-5.28 6-7.41a2.84 2.84 0 0 0 .72-1.23c.73-2 2.28-3.3 3.73-4.75 2.86-2.85 6.19-5.3 8.33-8.85a1.49 1.49 0 0 1 .44-.39 20.14 20.14 0 0 0 4.17-3.92c1.64-1.68 2.94-3.68 5.15-4.68a3.79 3.79 0 0 0 1.81-1.66 18.83 18.83 0 0 1 5.14-5.27 12.76 12.76 0 0 0 2.41-2.07 8.26 8.26 0 0 1 2.48-2.41 10.45 10.45 0 0 0 2.6-2.08 18 18 0 0 1 2.52-2 17.63 17.63 0 0 0 4.28-3.8 7.23 7.23 0 0 1 2.58-2.24 14.68 14.68 0 0 0 5.91-4.76 2.69 2.69 0 0 1 .94-.73 35.32 35.32 0 0 0 5.6-4.45 25.94 25.94 0 0 1 3.93-3.24c.8-.45 1.8-.82 2-1.94a4.73 4.73 0 0 0 2.36-1.51 8.76 8.76 0 0 1 2.44-1.88c1-.58 2.23-.95 2.8-2 .07-.11.16-.21.23-.32s.26-.31.38-.48a5.85 5.85 0 0 1 2.1-1.51 3.19 3.19 0 0 0 1.84-.72c1.26-1 2.31-2.29 3.95-2.76 1.36-.35 2.1-1.67 3.26-2.35 1.61-.94 3.51-1.46 4.51-3.26a1.77 1.77 0 0 1 .86-.62 13.45 13.45 0 0 0 2.37-1.33l.08.08c.55-.05 1.08-.21 1.63-.27a1.17 1.17 0 0 0 1.11-.91 1.48 1.48 0 0 1 1.43-1.31.44.44 0 0 0 .37-.41l-.15-.06h.1l.31-.18c.27-.07.55-.13.81-.22a9.75 9.75 0 0 0 1.82-.86 2.9 2.9 0 0 0 .58-.41 2.41 2.41 0 0 0 1.54-1.39 6.9 6.9 0 0 1 1-.55h.15a2.1 2.1 0 0 0 1.68-.58h.2l.28-.19a3.18 3.18 0 0 1 .33-.3 2.17 2.17 0 0 0 .29-.24 4.32 4.32 0 0 1 .5-.33l.29-.16.57-.32h.08l.62-.36c.75-.42 1.52-.83 2.26-1.28a10.39 10.39 0 0 1 1.62-.87 2.44 2.44 0 0 1 1.58 0l.13.07a1 1 0 0 1 .23.12 1.67 1.67 0 0 1 .24.16 3 3 0 0 1 .3.23 1.86 1.86 0 0 0 .19.11l.59.45c1.08 2.08 2.56 4 3.78 6 .26.44.5.92 1.06 1a.78.78 0 0 0 0 .78 53 53 0 0 1 2.87 8 58.15 58.15 0 0 1 1.31 7.28 10.51 10.51 0 0 1-.04 4.11zm6.45 21.87a3.16 3.16 0 0 0-.35.39 1 1 0 0 1 .29-.39 3.89 3.89 0 0 0 .48-.52 3.42 3.42 0 0 1-.38.49zm1.24-3.92v-.42a1 1 0 0 1 0-.17l.06-.3c.03.27.01.57-.02.86zm314.68 1.82a.35.35 0 0 0-.05-.08.41.41 0 0 0-.58 0c-1.26.93-2.88 1.2-4.26 2a14.7 14.7 0 0 1-4.71 2.24 4.39 4.39 0 0 0-3 1.8c-1.59.33-2.93 1.55-4.68 1.32-.12 0-.25.17-.39.25a65.11 65.11 0 0 1-7.44 3.32c-1 .41-2.3.69-3 1.75h-.05c-.83 0-1.31.59-1.91 1a1.86 1.86 0 0 0-1.64.47l-.68.44h-.3l-.11.06c-2.65.24-4.94 1.62-7.37 2.5a14.89 14.89 0 0 1-2.76 1.25 22.12 22.12 0 0 0-6.56 2.22 12.48 12.48 0 0 1-5.75 2.34 12 12 0 0 0-4.33 1.4 60.08 60.08 0 0 1-6.19 2.35c-.88.33-1.69.82-2.53 1.18-1.67.72-3.52.53-5.16 1.41a27.23 27.23 0 0 1-7.4 2.48 16.72 16.72 0 0 0-4.28 1.14 39.63 39.63 0 0 1-8.15 3.19 8.41 8.41 0 0 0-3 1.06 1.85 1.85 0 0 1-2.42 0 1.87 1.87 0 0 0-1.43-.47 5.27 5.27 0 0 1-2.21-3.32c-.26-2.45-1.2-5-.07-7.45a2.79 2.79 0 0 0 0-1.89 1.76 1.76 0 0 1 .18-1.59 7.37 7.37 0 0 0 .85-3.32 1.36 1.36 0 0 1 .32-1 2.53 2.53 0 0 0 .65-2.21l.06-.19v.1a8.72 8.72 0 0 0 1-4.81l-.06.29a1.36 1.36 0 0 0 0-.2c0-.26 0-.54.24-.72v-.18c.64-.55.5-1.52 1-2.16 1.47-1.93 1.62-4.36 2.47-6.52.56-1.42 1.06-2.84 1.67-4.29s1.7-2.69 1.8-4.36c.06-1 .29-2 .41-3a3.65 3.65 0 0 0-.76-3.24A2.74 2.74 0 0 1 407 152c.18-1.17-.35-1.65-1.49-1.47-2.2.34-4.12-.62-6.12-1.27a10.65 10.65 0 0 1-2.5-1.07 7.39 7.39 0 0 0-4.77-1.53c-1.28.08-2.56 0-3.84 0v.13a.21.21 0 0 0 0-.1c-1.37 0-2.17 1-3.46 1.46s-2.1 1.72-3.29 2.33c-2.06 1-3.37 2.86-5 4.34a4 4 0 0 0-.83 1.68 4.63 4.63 0 0 1-2 2.81 4.8 4.8 0 0 0-2.68 3.55 2.44 2.44 0 0 1-.71 1.22 24 24 0 0 0-4.34 6.92 7.09 7.09 0 0 1-1.69 2.71 2.87 2.87 0 0 0-1.08 1.79 1.06 1.06 0 0 1-.74 1c-1.3.45-2.79.66-3.4 2.2a1 1 0 0 1-.45.39 11.7 11.7 0 0 0-2.7 2.41c-2.22 1-3.36 3.29-5.25 4.75a46.54 46.54 0 0 0-4.95 4.88c-.77.81-2 1.05-2.52 2.15l-.22.21a1 1 0 0 0-.92 1l-1 1.16a15 15 0 0 0-4.56 2.87c-.77.24-1.09 1.08-1.89 1.24-.67.19-1.19.75-1.94.7-.65.11-1.44-.33-1.92.48-.39.64-1.21.27-1.68.72-1.07.07-.82 1.11-1.21 1.67-1.27 0-2.25-.71-3.33-1.19 0-.61-.44-.74-.95-.73a1.22 1.22 0 0 0 .12.19l-.21-.14a1.71 1.71 0 0 0-.73-.73l-.08-.13a.68.68 0 0 0 .17.09 1.41 1.41 0 0 0-.48-1.19v.31a.58.58 0 0 0-.05-.14 2 2 0 0 1-.21-.51 1.57 1.57 0 0 0 .26.33c-.36-1-.05-2.09-.47-3.08-.56-2.65 1-5.17.51-7.83 0-.13.09-.3.15-.44a17.45 17.45 0 0 0 1.26-4.93 1.06 1.06 0 0 0-.17.2v-.09l.1-.14c.94-.59.68-1.54.72-2.4l-.21.69a5 5 0 0 1 .11-.56v-.24l.17-.65c0 .17 0 .35-.07.52a9.59 9.59 0 0 0 1-4.56c-.07.19-.12.39-.18.58 0-.15.06-.3.08-.45 0-.37-.11-.75.24-1l.06-.09a2.85 2.85 0 0 0 1.2-1.92c.44-.18.5-.55.48-1 0-.06 0-.12.07-.19v.19a3.08 3.08 0 0 0 .72-2.16 1.62 1.62 0 0 0-.1.18v-.13a2.33 2.33 0 0 1 .11-.28 1.69 1.69 0 0 0 0 .23 1.33 1.33 0 0 0 .48-1 1.25 1.25 0 0 0-.12.08l.24-.24a2.07 2.07 0 0 0 .15-.25 2.34 2.34 0 0 1-.09.24c1-.92.66-2.29 1.2-3.36a1.3 1.3 0 0 0-.19.22 2.39 2.39 0 0 1 .13-.21 16.55 16.55 0 0 1 1.21-3.35.47.47 0 0 0 .06-.19v.12c.31-.45.88-.8.95-1.45.38-.4.18-.9.19-1.35a.3.3 0 0 1 0-.08 1.38 1.38 0 0 1 .48-1.2v.05c.46-.51.15-1.12.24-1.68v.07a1.17 1.17 0 0 1 0-.11v-.68a1.41 1.41 0 0 0 0-1.72 7.9 7.9 0 0 0-3.36-4h-.36a7.82 7.82 0 0 0-3.6 0h-.36a4.74 4.74 0 0 0-2.16 1.92c-.51.66-1.2 1.05-1.51 1.92-.74 2.09-1.66 4.1-2.52 6.19s-1.6 4.22-2.6 6.27c-.53 1.15-.44 2.49-1.11 3.58a1.15 1.15 0 0 0-.24.25c-1.71 2.7-1.72 5.94-2.84 8.84-.79 2-.75 4.43-3.08 5.64a6.54 6.54 0 0 0-1.28 1.24 21.07 21.07 0 0 1-3.26 3 36.29 36.29 0 0 0-5.32 3.81 4.7 4.7 0 0 1-3 1.22 6.3 6.3 0 0 0-3 1 5.12 5.12 0 0 0-.87.08 19 19 0 0 1-9.88.12 6.63 6.63 0 0 0-1.72-.19l-.48-.26c-.07-.78-.66-.71-1.2-.71h-.39l-.09-.07v-.18a14.74 14.74 0 0 0-3.6-.72c-1.25-.1-2.24-1.09-3.53-1l-.19-.1c-.74-1-2-1-3-1.32a18.27 18.27 0 0 0-5.39-1.42v-.07c0-.07-.15-.2-.22-.31-.79-2-2.73-2.23-4.55-2.38-1.29-.18-2.89-.68-3.73 1.46a5.86 5.86 0 0 1 0-1.45 11.43 11.43 0 0 0 .7-4.21 1.82 1.82 0 0 1 .27-.78c.94-1.92 1.94-3.75 3.94-4.75a6 6 0 0 0 1.66-.89c2.22-2.12 5-3.53 7.31-5.53a32.53 32.53 0 0 0 4.09-3.6l-.12-.09h.18a5 5 0 0 0 1.83-1.59c.54-.6.79-1.59 1.29-2 1.59-1.27 2.68-3.13 4.45-4.27.64-.44 1.51-.63 1.85-1.44.83-2 2.5-3.43 3.73-5.17a35.33 35.33 0 0 1 3.28-3.53c1.89-2 3.55-4.18 5.35-6.24 1.58-1.8 3.22-3.54 4.68-5.46q2.87-3.76 5.45-7.74a.92.92 0 0 0 .68-.5c1.21-1.9 2.51-3.75 3.64-5.7.51-.86 1.69-1.31 1.69-2.39a4 4 0 0 1 1.64-2.74 4.36 4.36 0 0 0 1-1.18 16.19 16.19 0 0 1 3.36-5.16c.29-.25.22-.65.22-1l-.13-.07h.08a3 3 0 0 0 1-1.9h-.05a.46.46 0 0 1 .07-.07 27.38 27.38 0 0 0 3.76-5c1.68-3.22 2.85-6.71 5-9.71 1-1.35 1-3.16 2.1-4.45a2.39 2.39 0 0 0 .4-1.47 2.72 2.72 0 0 1 1-2.17 2.42 2.42 0 0 0 1.19-2.5c-.1-.44.25-.78.52-1.14.51-.7 1.56-1.05 1.59-2.09v-.21a2.68 2.68 0 0 0 1.16-2.35 2.25 2.25 0 0 1 .77-1.66 4.68 4.68 0 0 0 1.74-3.64 6.49 6.49 0 0 1 .7-2.86c.69-1.54 2.19-2.57 2.62-4.23A8.85 8.85 0 0 1 342 61c.62 0 .83-.53.9-1a12.16 12.16 0 0 0 .06-1.91V58l.05.05h.08a.78.78 0 0 0 .31-1.06.84.84 0 0 1 0-.89 7.1 7.1 0 0 0 1.48-5.33 1.43 1.43 0 0 1 .59-1.43c.86-.67 1.66-1.49 1.33-2.77v-.33a.36.36 0 0 0 0 .09c.34-.65.88-1.29.68-2a9 9 0 0 1 0-3.9v-.29c1.23-.13 1.25-1 1.18-1.91v-3.68c.09-2.63-.1-5.25-.23-7.87a1.32 1.32 0 0 0-.7-1.24 1.65 1.65 0 0 0-1-1.41c-.23-1.14-.63-2.12-1.93-2.38l-.24-.24a3 3 0 0 0-.74-1.45c-1.09-1.62-2.43-2.95-4.53-3.12l.14.07h-.12l-.09-.05h.07a3 3 0 0 0-2.88-1h.13-.11l-.09-.06a5.24 5.24 0 0 0-3.71-1.8 57.4 57.4 0 0 0-6.94-.08c-.42 0-.8 0-1 .48a4.56 4.56 0 0 1-2.88.48c-.58.09-1.29-.27-1.68.48a.77.77 0 0 0-.44.43 2.18 2.18 0 0 0-2.13 1.67l-.24.23-.21.14a7 7 0 0 0-2.87 1.8h-.08a2.88 2.88 0 0 0-1.44 1.2 1.65 1.65 0 0 0-.71.7c-1-.05-1.48.46-1.36 1.48a.45.45 0 0 1-.22.46l-1.05.84a3.11 3.11 0 0 0-.28.23l.09-.13c-.61.06-.9.51-1.2 1h.15c-.28.33-.54.66-.83.95-1.54 1.61-3.38 2.92-4.65 4.78a1.93 1.93 0 0 0-.36.28 1.31 1.31 0 0 0 .17-.24h-.1a.67.67 0 0 0-.62.72 1.24 1.24 0 0 0 .35-.25c-.05.07-.11.13-.16.21a2.39 2.39 0 0 1-.28.35.94.94 0 0 0 .09-.31 1.83 1.83 0 0 0-1 1.2l.31-.2-.12.16a2.78 2.78 0 0 0-.27.21 1.77 1.77 0 0 0 .12-.17h-.1a.67.67 0 0 0-.62.72 1.7 1.7 0 0 0 .26-.18s-.08.09-.11.14l-1.2 1.92c-.06.08-.13.15-.2.23a.88.88 0 0 0 0-.15 1.55 1.55 0 0 0-1 1.43 6.27 6.27 0 0 0-1.16.89c-.65.68-1.65 1.07-1.65 2.2l.12-.13a.41.41 0 0 1-.05.09l-.48.48a1.88 1.88 0 0 0-.12.18.68.68 0 0 0 0-.14c-.44.18-.5.55-.48 1l.16-.16-.06.12a3.71 3.71 0 0 0-.23.32c0-.1.1-.18.13-.28a1.82 1.82 0 0 0-1 1.68c.09-.1.15-.21.23-.31 0 .09-.09.17-.13.27a.51.51 0 0 0-.24.48l-.09.09v-.09c-1 .47-.68 1.38-.72 2.16l.14-.43a1.93 1.93 0 0 1-.08.43c-.2.61-.95.65-1.2 1.2a.57.57 0 0 0-.13.08.27.27 0 0 1 .07-.08c-1.21.28-.54 1.26-.72 1.92a1 1 0 0 0 .16-.33.91.91 0 0 1-.1.33 1 1 0 0 1 0 .24l-.24.11.14-.11c-.48 0-.89.1-.95.72l.2-.15a.78.78 0 0 0-.1.15c-.49.31-1 .59-1 1.19a.76.76 0 0 1 0 .16s0 .09-.07.13a.85.85 0 0 0-.41.88v.06c-.37.18-.44.52-.43.93-.06.61-.66.94-.88 1.47a.32.32 0 0 0-.19.19l-.06.12a1.13 1.13 0 0 0-.55 1.1.58.58 0 0 0-.24.57 1.1 1.1 0 0 1-.09.14v.23a.85.85 0 0 0-.36.92.51.51 0 0 0-.24.48c-.54.33-1 .69-1 1.41a.61.61 0 0 0-.24.6.67.67 0 0 1-.07.11.82.82 0 0 0-.09.19c-1 1.17-.83 2.83-1.7 4l-.06.06v.08a1.9 1.9 0 0 0-.93 2.12 1.71 1.71 0 0 0-.95 1.86.67.67 0 0 0-.06.12c-1.09.58-.88 1.61-.88 2.57a4.62 4.62 0 0 0-1 2.55 1.73 1.73 0 0 0-.89 1.39 3.74 3.74 0 0 1-.43 1.46 9.14 9.14 0 0 0-1.54 5.18v.33c0 .11 0 0 0 0a.91.91 0 0 0-.82.84A11.35 11.35 0 0 1 272.6 87a9 9 0 0 0-.44 1.48c-.22.6-.43 1.2-.62 1.82a3.55 3.55 0 0 1-.49.7c-.17.18-.07.62-.07.93a2.32 2.32 0 0 1 0 .53l-.15.49a2.52 2.52 0 0 1-.24.42 1.56 1.56 0 0 0-.53 1 2.77 2.77 0 0 1-.11.87c-.13.3-.25.61-.38.91a10.91 10.91 0 0 0-.86 1.75 6.41 6.41 0 0 0-.58 2.4.28.28 0 0 1-.08.11v.24a.36.36 0 0 0 0 .09c-.94.9-.88 2-.88 3.21v.28a1.72 1.72 0 0 0-1 1.9 2 2 0 0 0 .41-.73 2.31 2.31 0 0 1-.21.73 1.54 1.54 0 0 0-.32.3l.12-.3c-1.27.41-.82 1.51-1 2.41l.34-.81c-.05.27-.09.54-.14.81v.46c-.1.17-.19.35-.28.52l.16-.52c-1.16.84-.95 2.15-1 3.36l.17-.59v.83c-.07.08-.13.18-.19.26l.11-.26c-1.07.5-1 1.46-1 2.4l.13-.32v.32a.28.28 0 0 0 0 .13.56.56 0 0 1 0-.13c-.4.34-.16.84-.24 1.2a.65.65 0 0 0 .1-.15.47.47 0 0 1-.06.15c-.06.07-.1.16-.16.23l.12-.23a1.25 1.25 0 0 0-.72 1.44l.13-.26a2.67 2.67 0 0 0-.09.26v.24a1.57 1.57 0 0 1-.09.23 2.56 2.56 0 0 0 .05-.27c-.49.86-1.2 1.6-1 2.64l.08-.13v.17c-.73.1-1 .57-1 1.25v3.08l-.24.47a.76.76 0 0 0-.63.41 6.28 6.28 0 0 0-1 3.93c0 .49-.19 1.16.47 1.33a1.93 1.93 0 0 0 1.83-.19 6 6 0 0 1 .53-.48c.36-.24.58-.08.47.3-.27.9-.14 1.9-.79 2.71a2.21 2.21 0 0 0-.55 1.29 13.74 13.74 0 0 1-1 4c-.11.44-.07 1.11-.67 1s-.24-.72-.34-1.11v-1c0-.55.06-1.17-.75-1.18-.63-.06-1.17.11-1.17.94v.24c-1.07.5-1 1.46-1 2.4v.72l.05.08c0 .51.26.87.77.88s1.08 0 1.14-.72a1.17 1.17 0 0 1-.45.37 4.27 4.27 0 0 0 .41-.37l.1-.09v.16c.69-.44 1-.44 1 .56a3.09 3.09 0 0 1-.79 2.25c-.29-.44-.17-1.13-.91-1.13l-.05-.07-.37-.08c-1.09-.34-1.49-.12-1.72.9 0 .06 0 .11-.07.18l-.48 1.2v.05c-.93.78-.32 1.63-.07 2.52-.9.16-1.6.47-1.13 1.56v-.09.08l-.25.48a4.09 4.09 0 0 0-2.82.72 1.54 1.54 0 0 1-1 .24 4.69 4.69 0 0 0-2.42.44 6.54 6.54 0 0 1-2.9.54h-8.84a.69.69 0 0 0 .05.13 1 1 0 0 1-.13-.09l.06-.06c-1.9-1.2-4.05-.84-6.1-.84a4.18 4.18 0 0 1-2.94-.78 4.23 4.23 0 0 0-3.45-1.28 9 9 0 0 1-1.64 0 3.09 3.09 0 0 0-2-1 4.52 4.52 0 0 0-3.91 2c-.24.31-.38.75-.79.84-3 .67-4.71 3-6.77 4.87h.2a2.63 2.63 0 0 0-1 1 8.83 8.83 0 0 0-.92.69c.23-.23.45-.47.68-.69a6 6 0 0 0-2.29 1.74c-.45.53-1.13 1-1.07 1.86.29-.35.6-.68.9-1a8.9 8.9 0 0 0-.66 1 2.2 2.2 0 0 0-.31.3 1.54 1.54 0 0 0 .11-.3c-.87.2-1.07.88-1 1.68a3.2 3.2 0 0 1 .4-.63 2.72 2.72 0 0 0-.2.63 3.73 3.73 0 0 0-.39.5l.23-.5a1.89 1.89 0 0 0-1 2.16l.29-.62a3.25 3.25 0 0 0-.13.62c-.09.11-.17.23-.26.35 0-.12.1-.23.14-.35a1.89 1.89 0 0 0-1 2.16c.08-.13.14-.27.21-.4 0 .13-.07.27-.09.4s-.14.19-.21.28c0-.1.1-.18.13-.28a1.58 1.58 0 0 0-1 1.68c.08-.09.14-.19.21-.28a2.39 2.39 0 0 0-.13.28l-.07.05v-.05c-1.35.39-.84 1.52-1 2.41 0-.07 0-.14.07-.21v.44a5.2 5.2 0 0 0-1.44 1.44 2.15 2.15 0 0 0 .5-.19c-.07.06-.13.14-.2.21a1.54 1.54 0 0 0-1.44 1.2 5.24 5.24 0 0 0-1 2.64 9.17 9.17 0 0 0-1 2.4.51.51 0 0 0-.24.48 4.08 4.08 0 0 0-.72 1.2 2 2 0 0 0 0 1.44 6.23 6.23 0 0 1 0 2.65v.23a.59.59 0 0 0-.09.51l-.12.19v.07-.79c-1.12 1.2-.87 2.46-.46 3.77.14.4.35.84.05 1.11-1 .83-.43 1.83-.49 2.78-.12 1.32 1.1 2.28.88 3.61a2.18 2.18 0 0 0 .94 2.18 11.36 11.36 0 0 0 2.66 4 1.3 1.3 0 0 0 .46 0c1.41 1.25 2.62 2.86 4.8 2.86h-.09.17-.08c.58.44 1 1.13 1.92 1l-.11-.08h.35c.13.83.69 1 1.44 1 2.22-.14 4.43 0 6.66-.14a6.05 6.05 0 0 0 3.46-1.54.21.21 0 0 0-.1 0h.07l.43-.2a1 1 0 0 0 .87-.28 15.17 15.17 0 0 1 3.65-2.77c.47-.32 1.14-1 1.06-1.32a1.65 1.65 0 0 1 1-1.91c1.3-.69 1.16-2.15 2-3.09a3.25 3.25 0 0 0 1-1.76c.06-1.35 1.5-2.28 1.06-3.75 0-.08.08-.24.17-.3a3.28 3.28 0 0 0 1-2.1h-.08a.26.26 0 0 0 .15 0c.46-.08.62-.39.62-.86v-1.61a2.66 2.66 0 0 1 .07-.39.46.46 0 0 0 .07-.07c.68-.13.82-.66.82-1.35v-1.76a3.07 3.07 0 0 1 .07-.42c.05-.41-.16-.86.24-1.2l.06-.1a1.48 1.48 0 0 0 .63-1.31v-6.92a1.09 1.09 0 0 0-.89-1.23V168c0-.1 0-.19-.06-.29a1.67 1.67 0 0 0-.83-1.51l-.11-.12v-.43c0-.84 0-1.72-1-2.23v-.22a1.59 1.59 0 0 0-1-1.68v-.24a1.52 1.52 0 0 0-.06-.2 2 2 0 0 1 .11.2 1.59 1.59 0 0 0-1-1.68.84.84 0 0 0 .06.14 1.34 1.34 0 0 1-.11-.14 8.24 8.24 0 0 0-1.27-.61c-.54-.17-1.11-.21-1.36-.82h.08c-.12-.26-.52-.37-.48-.73a.94.94 0 0 0-.19.35.49.49 0 0 1 .11-.35 1.33 1.33 0 0 1 1-.48h.09-.05 3.15a1.1 1.1 0 0 0 .92.67c.32.4.8.18 1.2.24h1.44c5 .09 10-.07 15-.24a1.28 1.28 0 0 0 .95-.25 2.14 2.14 0 0 0 .32-.2c1.25-.5 2.56-.12 3.84-.24h1.29-.06l.21.06c.4.62 0 1-.48 1.2s-.32.54-.36 1 .13.94-.12 1.37v.24a3.5 3.5 0 0 0-.33.43l.18-.43c-1 .54-1 1.46-1 2.4l.22-.53a4.51 4.51 0 0 0-.07.53v.72c-.06.19-.13.38-.21.58 0-.2.05-.39.1-.58-.37.77-1.28 1.49-.24 2.4v-.22l.1.22a18.61 18.61 0 0 1-1.68 4.32.85.85 0 0 1-.19.14.64.64 0 0 0 .08-.14 2.39 2.39 0 0 0-1.2.48h.11a2.41 2.41 0 0 1-1.44.24l-.26.11.15-.11c-.51 0-.92.1-1 .72l.21-.15a.78.78 0 0 0-.1.15l-.24.24s-.07 0-.11.06v-.06c-1.13-.06-1 .76-1 1.48l.09-.14a.36.36 0 0 1 0 .1c0 2.56.13 2.7 2.66 3.41a1.38 1.38 0 0 1 1.19 1.53v1.54l-.07.09v-.09c-1.25.86-.88 2.16-1 3.36 0-.12.06-.24.09-.36 0 .12 0 .24-.05.36v1.2c-1.2.67-.92 1.82-1 2.88a5 5 0 0 1-.24 1.92h-.06c-1 .29-.55 1.09-.6 1.71a.85.85 0 0 1-.06.17 5 5 0 0 1-.24 1.92l-.05.05c-.88.49-.57 1.34-.67 2.11v2.2c-1.14 1.48-.92 3.26-1 5 0-.51.12-1 .2-1.51a9.57 9.57 0 0 0 .05 1.31c0 .07-.06.14-.11.2a3.1 3.1 0 0 1-.23 1.44c0 .07-.07.15-.11.22s0-.15.05-.22c-.91 1-.7 2.2-.73 3.36.06-.3.13-.61.2-.91 0 .31-.08.61-.14.91v3.13a.18.18 0 0 0 0 .23h-.07v-.24a7.37 7.37 0 0 0-1 4.08c.08.52-.12 1.09.17 1.56a.53.53 0 0 0 0 .12c-.42.58-.07 1.34-.48 1.92a.25.25 0 0 1 0 .07 1.66 1.66 0 0 0-.64 1.56v21.5a3.3 3.3 0 0 0 .46 2.41.35.35 0 0 1 0 .51c-.86 1-.31 1.59.43 2.18l.05.07v2.01c.08 1.07.16 2.1.27 3.23a1.16 1.16 0 0 0 .6.93v.7a2.46 2.46 0 0 0 1.12 2.43l.06.06v.1a.65.65 0 0 0 .67.61.51.51 0 0 0 .23.6l.06.12a1.1 1.1 0 0 0 .48.82 2.4 2.4 0 0 0 .18.26 1.3 1.3 0 0 0 .08.17 1.43 1.43 0 0 0 .7 1 2 2 0 0 1 .22.29 2.31 2.31 0 0 0 .14.19 2.07 2.07 0 0 0 .83.93 3.71 3.71 0 0 1 .23.32 5.7 5.7 0 0 0 2.88 2.16h.06a1.12 1.12 0 0 0 .74.53l.2.15c.49.39 1.15.22 1.68.48l.17.15a1.87 1.87 0 0 0 1.76.45 3.3 3.3 0 0 1 1 .12 4.85 4.85 0 0 0 .55.17 2.38 2.38 0 0 0 2.87-1.17l.18-.2a.81.81 0 0 1 .48-.48 3.52 3.52 0 0 0 .94-.44c1.29-.6 1.65-1.47 1.67-3.57v-.07c0-.26 0-.55.23-.72l.14-.32a2.4 2.4 0 0 0 .53-1.22l.06-.14a.47.47 0 0 1 .23-.48 2 2 0 0 0 .11-.26 2.53 2.53 0 0 0 .59-2.15 1.81 1.81 0 0 0 0-.23.47.47 0 0 1 .23-.48c.11-.13.19-.27.29-.41a4.48 4.48 0 0 0 1.37-3.3v-.13a1.4 1.4 0 0 1 .47-1.2 1.84 1.84 0 0 0 .17-.25.9.9 0 0 0 .28-.67v-.08l.11-.21a3.19 3.19 0 0 0 .85-2.68v-.71a.94.94 0 0 0 .12-.22.7.7 0 0 0 .26-.63.78.78 0 0 1 .1-.15s.05-.1.08-.14c.43-.33.34-.8.32-1.25a1.38 1.38 0 0 1 .08-.29c.08-.13.15-.27.22-.41a6.63 6.63 0 0 0 .85-3.68c0-.24.08-.48.13-.71l.09-.23a3 3 0 0 0 .57-2.09c0-.19.05-.37.06-.56v-.24a.37.37 0 0 0 .07-.2 2.79 2.79 0 0 0 .65-3 .3.3 0 0 0 0-.23c.07-.23.13-.47.19-.7h.23v-.18a1 1 0 0 0 .07.15c.15-.23.43-.45.43-.7.37-2 .71-4 1.14-6a24.68 24.68 0 0 0 .3-6.42c-.1-1.8-.17-3.59-.17-5.38a14.66 14.66 0 0 0-.26-3.56 9.57 9.57 0 0 1-.48-5 2 2 0 0 0-.56-1.78 3.84 3.84 0 0 1-.62-2.85c0-.74.54-.86.94-.46a7.5 7.5 0 0 0 5.07 2.08c1.53.12 2.9 1.13 4.5.85a.84.84 0 0 0 .68.21c.38.84 1.09.73 1.79.72h.32a12.81 12.81 0 0 0 7.31.82c1.42-.15 3 .22 4.3-.64.4-.06.87.16 1.2-.24a1.25 1.25 0 0 0 1.36-.72l-1.44.72h-.28a3.25 3.25 0 0 0 1.41-.71 3 3 0 0 1 .65-.26 1.42 1.42 0 0 0-.3.25 1.36 1.36 0 0 0 1.2-.48 1.36 1.36 0 0 0-.35 0 17.34 17.34 0 0 1 2.64-1.68 6.19 6.19 0 0 1 .62-.25 1.55 1.55 0 0 0-.27.24.92.92 0 0 0 1-.48 1.29 1.29 0 0 0-.48.1 1 1 0 0 0 .13-.09l.72-.48c.6-.18 1-.7 1.44-1s.95-.69 1.44-1 .89-.88 1.44-1.2a1.41 1.41 0 0 1 .72-.72c.41-.17.82-.3 1-.72l1-.72c.75.43.33 1.14.33 1.71a2.75 2.75 0 0 0 .2 1 .73.73 0 0 0 .69.66 6.36 6.36 0 0 0 .21.71 2.94 2.94 0 0 0 .59 1.49c.06.13.11.26.18.39v.24a3.2 3.2 0 0 0 .2.81 1.13 1.13 0 0 0 .47.81l.05.06a.51.51 0 0 0 .24.48.93.93 0 0 0 .25.3c.11.37.41.48.83.49a3.32 3.32 0 0 1 1.12 1.37 1.54 1.54 0 0 0 .19.63c.11.63.55.93 1.34.88l.13.1a1.89 1.89 0 0 0 1 .85.52.52 0 0 0 .24.46 1.8 1.8 0 0 0 .16.56.94.94 0 0 0 .85.88l.13.08a1.09 1.09 0 0 0 .88.65 4.65 4.65 0 0 0 1.42.47l.09.05c.45.7 1.18.7 1.9.7h-.09a1.6 1.6 0 0 0 1 .24h.12-.09a2.52 2.52 0 0 0 3.12 0h-.15.12a.47.47 0 0 0 .48-.24 1.39 1.39 0 0 1 .19-.06l-.12.09h1.68c.47-.06 1 .19 1.4-.24l.48-.47.24-.24h.09-.06c.72-.12 1.49.23 2.16-.25.63.06 1-.36 1.44-.72a2.87 2.87 0 0 0 1.27 0c1.69-.9 3.39-1.78 5.08-2.66a2.41 2.41 0 0 0 .51-.25 1.34 1.34 0 0 0 1.06-1.15l-.11.09c.05-.28.28-.44.48-.64.88-.89 2.29-.89 3.1-1.89a2.39 2.39 0 0 0 .43-.2 1 1 0 0 0 .9-1l-.1.08c.12-.54.32-.94 1-.88a1.3 1.3 0 0 0 .29-.14 1.53 1.53 0 0 0 1.17-.88 8.56 8.56 0 0 0 1.9-1.9c.05 0 .08-.06.13-.08h.18a1 1 0 0 0 .78-1.18l-.11.14a.14.14 0 0 1 0-.06 6.13 6.13 0 0 1 2.13-2.62c.79-.57.92-1.18.18-1.84-.32-.28-.5-.51-.19-.88.55-.6 1-1.22 1.55-1.79a1.69 1.69 0 0 1 1.8-.23c.5.17.32.77.32 1.25a12.18 12.18 0 0 0 0 1.48 1.82 1.82 0 0 0-1 1.67l.05-.07-.07.15-.24 1.92a1.25 1.25 0 0 0-.58 1.3h-.05v1.44c-.12 2.27.41 4.52.24 6.8a.82.82 0 0 0 .48.88v-.07a.25.25 0 0 0 0 .07l.26.57a5.5 5.5 0 0 0 .36.57l-.42-.46a3.41 3.41 0 0 0 2.16 2.4l-.47-.52c.17.14.34.28.53.41l.27.22a1.28 1.28 0 0 0-.33-.11c.34.53.7 1 1.44 1-.09-.07-.17-.16-.26-.24a1.53 1.53 0 0 0 .32.13 8.68 8.68 0 0 0 3.6 1.2 5.67 5.67 0 0 0 .91.43 3.78 3.78 0 0 1-1-.36l.31.25a3 3 0 0 0 4.25-.73 4 4 0 0 1-.75.49 8 8 0 0 0 .81-.56l.42-.42a1.48 1.48 0 0 0 .72-.72l.09-.07c.85-1.15 2.33-1.4 3.33-2.38v.05h.1a.68.68 0 0 0 .62-.71l.06-.08a58.51 58.51 0 0 0 5-5c.9-.12 1-.72 1-1.44l-.16.19a.77.77 0 0 0 0-.15v-.37l.24-.28a1.28 1.28 0 0 0-.14.37 1.58 1.58 0 0 0 1-1.68 1.92 1.92 0 0 1-.18.31 1.29 1.29 0 0 0 .08-.4 12.93 12.93 0 0 1 2.39-2.4 1.93 1.93 0 0 0 .28-.22 2.18 2.18 0 0 0-.22.31h.11a.67.67 0 0 0 .62-.72 1.19 1.19 0 0 0-.29.21 2.17 2.17 0 0 0 .23-.3c.24-.45.48-1 .73-1.45.11-.2.24-.44.51-.35s.2.38.2.6v.2a1.31 1.31 0 0 0-.29 1c0 1.53-.58 3.1.32 4.56.23.33-.07.73.23 1v.21a1.87 1.87 0 0 0 1 2c.13.75.86 1.07 1.2 1.67l.06.08c.32 1 1.2 1.52 1.92 2.16v.1a.67.67 0 0 0 .69.62c0 .24 0 .51.24.67l.09.11-.1-.06a1.44 1.44 0 0 0 1.66 1.18v-.17a.46.46 0 0 0 .09.15l.24.24v.1a.65.65 0 0 0 .59.6h.05l.24.24a.67.67 0 0 0 .63.61h.05l.24.24v.11a.67.67 0 0 0 .72.62l.48.48a.78.78 0 0 0 .83.44h.39a1.66 1.66 0 0 0 1.5.9h3.57a1.48 1.48 0 0 0 1.4-.73h-.05v-.19l.18-.06a4.58 4.58 0 0 0 1.81-.12l.17-.06 1-.72a.48.48 0 0 1 .44-.12c1.39.41 2.48-.73 3.81-.73.26 0 .46-.28.57-.55a1.18 1.18 0 0 1 .22-.28.78.78 0 0 1 .72-.25c.85-.15 1.36-1.08 2.3-1l.32-.1c.43-.21.92 0 1.35-.21 1.28-.83 2.91-.6 4.21-1.39.36-.28.79-.17 1.19-.23.67-.09 1.09-.66 1.67-.93a4.93 4.93 0 0 0 2-.85c1.09 0 1.82-1 2.82-1.07a4.38 4.38 0 0 0 1.52-.85 5.41 5.41 0 0 0 1.34-.18h.29a5.51 5.51 0 0 0 1.13-.36l.48-.28v-.09l.21-.06a27.54 27.54 0 0 0 4.57-1.69 16.17 16.17 0 0 1 2.94-1 8.82 8.82 0 0 0 3.43-1.44.35.35 0 0 0-.06-.26c1-.54 2.05-1.14 3.12-1.59 1.27-.55 2.67-.83 3.88-1.47 1.56-.82 3.29-.71 4.89-1.21.4-.62 1.19-.71 1.69-1.19h.1c.58 0 1.19.07 1.63-.48a1.4 1.4 0 0 1 1-.45v-.06l1.89-.92a39.48 39.48 0 0 1 7.78-3 1.62 1.62 0 0 0 1.27-.78h.07v-.05l.92-.23.48-.72.13-.06a4.22 4.22 0 0 0 2.26-1.07c1.91-1.23 4.21-1.5 6.21-2.5h.06c1.46-.19 2.68-1.32 4.26-1.09.08 0 .18-.15.28-.21 2.74-1.51 5-3.81 8.21-4.58a2.3 2.3 0 0 0 1.65-1.56l.22-.23h.09a.67.67 0 0 0 .61-.7l.22-.23h.09a.67.67 0 0 0 .61-.7l.22-.23c.44-.57.9-1.12 1.3-1.71a1 1 0 0 0 .23-.8zM402 176v-.08a.75.75 0 0 1 0 .15v-.06zm-70.83-14.5v.22a.43.43 0 0 0-.06-.18zm-1 .57zm-6.75-9.88zm23.89-126.45l-.08.18v-.17zm-2 22.65a.47.47 0 0 0 .06.09h-.08s.04-.05.05-.09zM310.24 119v-.1a1.46 1.46 0 0 1 .54-.75c-.17.3-.36.58-.54.85zm15.41-40.54l.12-.17a.26.26 0 0 1-.12.19zm-1-62.82l-.12.08a.25.25 0 0 0 0-.08zm-18.9 25.85zm-7.92-4.3L298 37a.84.84 0 0 0-.06.14l-.12.15v-.11zm-13.68 24h.11l-.11.06zm-24.51 79v.05zm-.7 24.62a28.79 28.79 0 0 1 1.09-5.36.8.8 0 0 1 .2-.21c.06-.06.11-.13.17-.2.86-.46.85-1.41 1-2.23.44-1.76.7-3.59 2.12-4.94a1.74 1.74 0 0 0 .5-1.66c-.44-1.76.22-3.39.47-5.06.09-.18.15-.38.24-.56a1.55 1.55 0 0 0 .35-.7 1.6 1.6 0 0 1 .05-.21c.07-.24.14-.49.2-.73s.19-.62.26-.93a11.62 11.62 0 0 0 .39-1.57c.1-.27.19-.55.31-.81l.15-.33c0-.06 0-.13.05-.19a1.51 1.51 0 0 0 .34-1.14v-2.06a4.84 4.84 0 0 1 .14-.51 2.07 2.07 0 0 0 .1-.33 3.18 3.18 0 0 1 .14-.53 16.65 16.65 0 0 0 .56-1.47 4.33 4.33 0 0 0 .21-.7 1.81 1.81 0 0 0 .09-.31c.15-.4.29-.8.41-1.22a5.26 5.26 0 0 0 .25-1c.05-.28.09-.56.13-.83l.09-.43.06-.22a5.24 5.24 0 0 1 .24-.7 6 6 0 0 1 .51-.89 8.31 8.31 0 0 0 .78-2.38 13 13 0 0 0 .3-1.85l.06-.32a5.08 5.08 0 0 1 .25-.75 2.88 2.88 0 0 0 .52-1.14 1.57 1.57 0 0 0 0-.57 9 9 0 0 1 .41-1.54l.09-.24.06-.15a6.89 6.89 0 0 1 .34-.73.72.72 0 0 0 .12-.23c.25-.31.14-.68.17-1l.27-.88.34-.86c.25-.6.51-1.18.77-1.78a3.41 3.41 0 0 0 .37-.93c.06-.16.13-.32.19-.49a2 2 0 0 0 .07-.26c.25-.31.12-.69.15-1a5 5 0 0 1 .95-1.69.92.92 0 0 0 .48-1 6.55 6.55 0 0 1 .88-2.57 7.68 7.68 0 0 0 .73-2.13 61.76 61.76 0 0 1 2.11-6.51l.11-.26c.43-.53.19-1.14.22-1.73v-.09a38 38 0 0 0 1.74-3.89c.06-.13.12-.26.17-.4a14.68 14.68 0 0 0 1.19-3.31c0-.09.07-.18.1-.26a4.27 4.27 0 0 1 .64-1.11 3 3 0 0 0 .64-1.26 19.15 19.15 0 0 1 1.85-5.47 2.33 2.33 0 0 0 .39-.86v-.09c.2-.46.39-.93.56-1.41.31-.89 1.11-1.57 1.17-2.55l.14-.24c.42-.9.78-1.84 1.2-2.73s.61-1.73.92-2.57c.08-.18.15-.37.23-.55a5.06 5.06 0 0 1 .49-.88c1.25-1.76 1.83-3.93 3-5.68s1.69-4 2.89-5.75a29.38 29.38 0 0 0 2.08-3.61 6.84 6.84 0 0 1 .55-1.12 28.63 28.63 0 0 0 3.55-5.91 1.48 1.48 0 0 0 .12-.29c.14-.34.31-.68.44-1h-.05l.25-.24a1 1 0 0 0 1-1 1.1 1.1 0 0 0 .65-.86.43.43 0 0 0 0-.07 1.1 1.1 0 0 0 .67-.92l5.27-6 .23-.24a5 5 0 0 0 1.2-1.14c.78-.85 1.11-2.08 2.11-2.71 2.82-1.82 4.71-4.67 7.56-6.49 2.23-1.43 4.36-2.84 7.15-2.63a3.1 3.1 0 0 0 1.16-.25c1.71-.59 3.23 0 4.71.65a3.69 3.69 0 0 1 1.78 1.53 33 33 0 0 0 2.03 3.61v-.06a9.57 9.57 0 0 0 .41 2.82c.19.82.35 1.65.48 2.47v.55a1.45 1.45 0 0 0 .16.9 11.47 11.47 0 0 1-.83 5.5 1.61 1.61 0 0 0-.19.68 30.81 30.81 0 0 1-.58 4.49 14.76 14.76 0 0 1-1.67 5 14.49 14.49 0 0 0-1.52 4.28 56.38 56.38 0 0 1-1.78 6.37c-.46 1.6-1.82 2.78-2.4 4.36a1.76 1.76 0 0 0-.82 1.1c-.58 1.57-.83 3.29-1.83 4.69a4.06 4.06 0 0 0-1 2.94c.07.59-.36 1-.69 1.46a14.47 14.47 0 0 0-1.93 3.23 2.38 2.38 0 0 0-.47 1.71 23.67 23.67 0 0 1-2.53 4 1.17 1.17 0 0 0-.09.58c-.94 2-1.94 3.89-2.94 5.89-.63 1.25-1.3 2.46-2 3.69l-.21.31a4.46 4.46 0 0 0-1.34 1.87 3.52 3.52 0 0 0-1.12 2.17 3.49 3.49 0 0 0-.15.34c-.1.23-.21.46-.33.68l-.22.33a1 1 0 0 0-.46.68 1 1 0 0 0-.08.11c-.06.09-.17.17-.17.26l-.14.25a1.86 1.86 0 0 0-.68 1.21l-.23.27a.85.85 0 0 0-.49.77s-.05.08-.07.13c-.1.29-.12.51-.26.89a2.8 2.8 0 0 1-.15.3 1.14 1.14 0 0 0-.48.8 1.65 1.65 0 0 0-.7.71 3 3 0 0 0-1.1 1.8l-.13.21a3.4 3.4 0 0 1-.31.52c-.06.07-.13.13-.2.2a.68.68 0 0 0-.37.39c0 .05-.1.12-.16.17a3.29 3.29 0 0 0-.84 1.15 2.91 2.91 0 0 1-.17.3 1.54 1.54 0 0 0-.78 1.24l-.12.23c-.32.73-.76 1.34-1.12 2-.08.11-.19.21-.28.32a.61.61 0 0 0-.38.42l-.05.06-.32.32a.6.6 0 0 0-.08.08.62.62 0 0 0-.51.6.76.76 0 0 0-.11.14 1.76 1.76 0 0 0-.15.44l-.07.15a2.86 2.86 0 0 0-1.3 1.6l-.1.08a8.82 8.82 0 0 0-1 1.49l-.09.22a1.29 1.29 0 0 0-.34.77 1.55 1.55 0 0 0-.71.72 2 2 0 0 0-.88 1l-.15.17a15.17 15.17 0 0 0-1 1.42l-.09.15a1 1 0 0 0-.47.63c-.06.07-.12.15-.19.22-.45.61-.9 1.22-1.38 1.81a2.39 2.39 0 0 1-.23.22 1.06 1.06 0 0 0-.52.42c-.08 0-.16.12-.25.17a9.87 9.87 0 0 0-2.33 3.41 1.78 1.78 0 0 0-1.14 1 1.47 1.47 0 0 1-.13.42 1.41 1.41 0 0 0-.53.63l-.21.13a4.46 4.46 0 0 0-.89 1l-.46.56a6.53 6.53 0 0 0-.54.64l-1.16 1.44c-1.22 1.48-2.45 3-3.7 4.42a7.41 7.41 0 0 0-2 2.52 14.87 14.87 0 0 1-2.15 2.4h-.05c-.55.07-.63.49-.71.91v.05a18.62 18.62 0 0 0-2.08 2.18 5.7 5.7 0 0 0-.66.89 17.51 17.51 0 0 0-1.11 1.73l.11-.08-.11.12c-2 2-4.16 3.78-6.07 5.88a81.36 81.36 0 0 1-8.94 8.77 2.5 2.5 0 0 0-.22.24l-.2.16a.41.41 0 0 1-.33-.05c-.5-.35-.31-.79-.31-1.12zm-62.63 36.33zm22.1-24.14a46.18 46.18 0 0 0-.52 4.84.71.71 0 0 0 .21.3c-.58.24-.66.83-.88 1.46a22.56 22.56 0 0 1-1.45 3.65 50.94 50.94 0 0 1-4.2 7.08.77.77 0 0 0-.24.63 1.9 1.9 0 0 0-1.1 1c-.07.15-.14.31-.22.46s-.31.41-.46.61a1.16 1.16 0 0 1-.75.24 1.46 1.46 0 0 0-.5.2 2.67 2.67 0 0 0-.84.49.8.8 0 0 1-.21.15 1.1 1.1 0 0 1-.35.11h-.07a1.07 1.07 0 0 1-.25 0 1.77 1.77 0 0 1-.79-.66 7.1 7.1 0 0 1-1.28-3.69v-9.11a7.21 7.21 0 0 1 .6-2.51 40 40 0 0 0 1.3-4.71 3.57 3.57 0 0 1 .47-1.3 16.18 16.18 0 0 0 2.42-4 12.14 12.14 0 0 1 2.42-4.84 4.88 4.88 0 0 0 .73-1.22c.71-1.49 1.14-3.15 2.27-4.42.93-1 1.12-1 1.79.22a11.25 11.25 0 0 0 .82 1.53 9.41 9.41 0 0 1 .39 1 1.26 1.26 0 0 0 .16.33l.06.14a9.75 9.75 0 0 0 .57 4A4.9 4.9 0 0 1 219 171a50.28 50.28 0 0 1-.59 6zm2.12-28.59h-.11a.39.39 0 0 0 .11-.06zm0 49.37h.05zm6.2-11.08a.29.29 0 0 0 .14.08h-.14l-.06.06zm22.06-36.21h.07zm-5.48 24.93a2.26 2.26 0 0 1 0-.26 2.33 2.33 0 0 0 .11.28zm-1.46 79.68l.08.07h-.08zm2.09 3.09zm1.51 1.93zm1.24 1.26zm.18.17v-.05zm15-72.66zm-1.09-.92c.1.08.21.15.31.24l.46.41a7.26 7.26 0 0 0-1.69-1 3.31 3.31 0 0 1 .96.38zm-9-30.55a6.47 6.47 0 0 0 0-.88 1.15 1.15 0 0 0 0-.26.58.58 0 0 0-.08-.18v-.05c.19.26.2.68.13 1.4zm-.09.81v.07zm-.13.32a7.49 7.49 0 0 0-.6 2 5.64 5.64 0 0 1 .65-1.97zm-1.3 4.4a2.23 2.23 0 0 0 .18-.57c.07-.2.14-.4.22-.59a8.92 8.92 0 0 1-.42 1.23s.06-.02.07-.02zm16.31 56.12l-.09.16a1.4 1.4 0 0 0-.13.34v.33a.17.17 0 0 1 0 .07c-.31 1.67-.3 3.4-.62 5.06-.48 2.48-1.29 5-1.87 7.48a43 43 0 0 1-2.27 7.09 16 16 0 0 0-1.26 3.2c-.22.63-.43 1.27-.59 1.92a2.29 2.29 0 0 0-.21.72c-.08.21-.16.41-.25.61a2.38 2.38 0 0 0-.37.66c-.88 1.57-1.16 3.41-2.1 5S255 255.26 254 257c-.28.39-.55.58-.85.57h-.05a5 5 0 0 1-1.17-.94 2.4 2.4 0 0 1-.39-1.18v-.44a5.06 5.06 0 0 0 0-1.29c-.54-2.34-1.37-4.62-1.18-7.08 0-.12-.1-.24-.18-.36v-.15a6.06 6.06 0 0 0-.21-1.19 14.71 14.71 0 0 0-.12-1.63 15.5 15.5 0 0 0-.16-3.85v-.9a2.09 2.09 0 0 0-.08-.5 2 2 0 0 0-.16-1.33v-.13c-.06-.5 0-1-.57-1.33a.25.25 0 0 1 0-.07.89.89 0 0 0 0-.23v-2.59l.47-.2c.34-.28.22-.73.22-1.1v-3.89a14.82 14.82 0 0 0-.24-3.12.22.22 0 0 1 0-.08v-3.08l.22-.91c0-.05 0-.1.07-.15a2 2 0 0 0 .7-1.7c0-1.14.09-2.3.09-3.43 0-2 1-3.94.9-5.85s.5-3.91.36-5.75.89-3.25 1-4.92a1 1 0 0 0 .49-1 33.16 33.16 0 0 1 1.39-6.13c.39.22.42.75.86.8a1 1 0 0 0 0 .1c.09.11.19.21.29.31a2.42 2.42 0 0 0 .57.58 1.88 1.88 0 0 1 .14.24 3.08 3.08 0 0 0 .84 1.05l.2.17c.67.88 1.42 1.68 2.69 1.3a2 2 0 0 1 1.87.33 2.07 2.07 0 0 1 .15.25l.27.55a.61.61 0 0 1 .07.14 3.69 3.69 0 0 0 .78 1.69s.05.11.07.17c.15.33.32.66.48 1a2 2 0 0 1 .09.22 1.33 1.33 0 0 0 .36.84v.08a3.68 3.68 0 0 0 .26.57 2.4 2.4 0 0 1 .11.23 4.15 4.15 0 0 0 .53 1.41v.08a1.58 1.58 0 0 0 .09.31v.09a1.54 1.54 0 0 0 .31 1 2.46 2.46 0 0 1 .09.29c.15.53.28 1.07.46 1.6.06.18.11.36.16.55a74.69 74.69 0 0 1 .33 12.08zm1.86 14zm.06.06zm3.2-13.68v-.28c0 .4 0 .8-.06 1.21.09-.32.09-.63.11-.94zm8.77-19.27zm14.42 1.17zm.24-.46s-.05 0-.08-.07h.13s.01.03 0 .06zm18.9-24.07c0-.15.07-.31.1-.46a.88.88 0 0 1-.05.45zm1.82-7l-.06-.1a.71.71 0 0 0 .26 0 .72.72 0 0 1-.15.07zm8.29 32.31zm.05.09a1.07 1.07 0 0 0 .13.21.46.46 0 0 1-.08-.24zm2.14 1.62v-.08a.73.73 0 0 0 .09.08zm26.38-13zm0-6.06a.56.56 0 0 1-.24.22l.26-.25zm4.86-2.63zm1.61 7.53l-.05.07s0-.07.05-.11zm3.64-10.39a.19.19 0 0 1 0-.08h.07zm25.46-32.43h.14-.14zm-12.12 10.56c0-.1.07-.18.11-.28 0 .1 0 .2-.05.3h-.06zm-1.7 1.61a2.87 2.87 0 0 1-.49.37zm17.34 45.87zm1.73 1.77a.59.59 0 0 0 .17 0v.05a.47.47 0 0 1-.11-.04zm.19-.19v-.12a.41.41 0 0 0 .06.13zm3.9-47.13a3 3 0 0 1-.12.32l-.19.43c-.19.25-.3.59-.59.72s-.37.33-.33.58l-.07.07v.05a.64.64 0 0 0-.59.43c-.91 1.86-2.19 3.53-2.79 5.53-.8 2.57-2.51 4.58-3.9 6.77s-3 4.28-4.39 6.53a1.21 1.21 0 0 0-.27 1.11c-.34 0-.35.19-.23.44a5 5 0 0 0-2.94 3.15.43.43 0 0 1 0 .05h-.06a13.31 13.31 0 0 0-1.82 2 32.3 32.3 0 0 1-8.93 8.31c-1.05.62-1.33.57-1.44-.44a.6.6 0 0 0 .17-.3 13.29 13.29 0 0 0 .8-3.11 38.89 38.89 0 0 1 .53-3.88c.33-1.78 1.65-3.27 1.74-5.17 0-.31.29-.55.49-.81a4.38 4.38 0 0 0 .85-2.2 11 11 0 0 1 2.63-6.12 4 4 0 0 0 1.12-3.64.87.87 0 0 0 .27-.14l.15-.16a2.57 2.57 0 0 0 .67-.72c.29-.3.57-.6.85-.91h.05a2.67 2.67 0 0 0 1.27-1.78l.09-.31a5 5 0 0 0 .33-1.14v-.08c0-.03.09-.36.14-.54a1.35 1.35 0 0 1 .44-.51 8.75 8.75 0 0 0 3.22-3c.79-1.09 1.62-2.28 3-2.61a8.38 8.38 0 0 0 3.35-1.76 5.5 5.5 0 0 1 6.07-.59 1 1 0 0 1 .3.14 1.4 1.4 0 0 1 .47 1.92 4 4 0 0 0-.32.77 1.19 1.19 0 0 0 .04.61zm47.65 32.22zm1.53 3.11h-.08a.34.34 0 0 0 .08-.09s.07.07.06.1zm48.8-21.68a.33.33 0 0 0 .21.07h-.31.07zm-7.48.52zm-2.87 4.12l-.24.08.15-.06zm-8.6 1.14zm0 .18v.07a.11.11 0 0 0 0-.06h-.07zm-6.41 3.5l-.09.08-.8.28c.26-.11.56-.23.86-.34zm26-9.46h.06zm1.84-2.93h.05zm-268.66-12.14zm-101.04 85.44z"/><path d="M259.44 133.94c.56-.08.67-.5.67-1s-.33-.68-.82-.68-.88.21-.85.84a.57.57 0 0 0 0 .13.86.86 0 0 0 1 .71zM99.33 261.61zM29.01 106.57zm177.08 49.44zm91.72-118.8zm-104.72 140.4a6.59 6.59 0 0 0 1-2.4 2.59 2.59 0 0 0-1 2.4zm1-2.4l1-2.64a2.62 2.62 0 0 0-1 2.64zm109 22.08c.73.07 1.1-.43 1.44-1-.64.12-.96.71-1.44 1zm1.44-.96c.74.06 1.1-.43 1.44-1-.64.12-.97.67-1.44 1zm-112.32-15.6v2.65a3.15 3.15 0 0 0 0-2.65zM306 195.37c.72-.11 1-.69 1.44-1.2-.74.12-1.08.69-1.44 1.2zm-56.19-34.8c.55-.72-.06-1.67.48-2.4-1.03.64-.2 1.64-.48 2.4zm-74.4-42.96l1.44 1.68a1.92 1.92 0 0 0-1.44-1.68zm19.68 54.96a3.5 3.5 0 0 1 1.44-1.2c-.92-.12-1.44.18-1.44 1.2zm-2.88 6.72a2.2 2.2 0 0 0 .72-1.2 1.14 1.14 0 0 0-.72 1.2zm116.88 13.44l-1 .72c.56.02 1-.1 1-.72zm-139.44-81.84H168a1.41 1.41 0 0 0 1.65 0zm22.56 68.4a1.07 1.07 0 0 0 0 1.44zm151.87-76.97c-1.95 1.6-2.33 4-2.84 6.15a19.36 19.36 0 0 0-.34 7.84c.17.93.59 1.49 1.39 1.49a3.17 3.17 0 0 0 3-1.15c.9-.75 2.18-1.07 2.6-2.36a2.08 2.08 0 0 0 .85-1c1.34-2.31 2.17-4.84 3.71-7a1.53 1.53 0 0 0 .72-1.2c.36-1.08 1.39-1.76 1.68-2.88h.24l.07-.07a.8.8 0 0 0-.07-1.13H355a.75.75 0 0 0-.48-.69c-.77-2.23-2.24-2.75-4.29-1.47a19.36 19.36 0 0 1-4.13 2.34 6 6 0 0 0-2.02 1.13zm.8 13.39v.05zm11 65.73z"/></g><path d="M511.84 74.09l-.33-.19c-.1.1-.2.2-.29.31-.31.4-.6.8-.92 1.2a1.59 1.59 0 0 1-1.66.67c.07-.12.11-.22.17-.32a27.3 27.3 0 0 0 2.16-4.2 36.28 36.28 0 0 0 2.06-7 29.49 29.49 0 0 0 .52-6 19.91 19.91 0 0 0-1.91-8.27 27.18 27.18 0 0 0-10-11.55 18.07 18.07 0 0 0-6.64-2.66 16.23 16.23 0 0 0-4.87-.12 30 30 0 0 0-4.48.93 33.67 33.67 0 0 0-5.15 1.86c-2 .89-3.92 1.77-5.82 2.79s-3.58 2.11-5.37 3.18l-.26.12c0-.11-.07-.19-.1-.3.24-.15.48-.31.72-.45l3.64-2.09.13-.07a27.62 27.62 0 0 1 3.84-2.13 55.05 55.05 0 0 1 6-2.75 33.78 33.78 0 0 1 6.78-1.82 21.28 21.28 0 0 1 4.22-.18h.5a1 1 0 0 0-.44-.55c-.18-.11-.38-.17-.56-.26l-.51-.26v-.09l1 .12c.49 0 1 .1 1.47.13a2.14 2.14 0 0 0 1-.21l-.25-.07-2.24-.45a6.13 6.13 0 0 0-3.29.09c0-.3-.24-.31-.46-.28a.82.82 0 0 1-.65 0 2.07 2.07 0 0 1 .33-.1 11.25 11.25 0 0 1 2.59-.11l2.37.12a2.53 2.53 0 0 0 1.09-.14 11.9 11.9 0 0 0-4.32-.38c-.1-.18-.08-.28.12-.31h.61a12.63 12.63 0 0 0-4.16.09c-1.35.26-2.7.55-4.09.77a.8.8 0 0 0 .21-.05 43.13 43.13 0 0 1 4.4-1.71 7 7 0 0 1 2.58-.22c1.37.08 2.74.15 4.1.3a20.65 20.65 0 0 1 6.32 1.69 11.81 11.81 0 0 1 1.68 1c.59.4 1.16.84 1.74 1.25a4.79 4.79 0 0 0 1.55.77.56.56 0 0 1 .29.06c0-.21-.19-.27-.31-.36s-.48-.35-.71-.54-.23-.28 0-.46h.11c1 .79 2 1.55 2.93 2.37a15.89 15.89 0 0 1 1.53 1.54 5.4 5.4 0 0 1 1.25 2l.09.21c.22-.1.11-.31.2-.47.47.19.64.71 1 1a.86.86 0 0 0-.12-.5c.07-.1.15-.15.24 0a1.4 1.4 0 0 1 .16.26c.11.24.21.48.5.56-.21.29-.46-.28-.65.1a6.57 6.57 0 0 1 1.07 1.44 3.4 3.4 0 0 0 1 1 .68.68 0 0 0-.21-.59c-.15-.17-.32-.33-.48-.5a.46.46 0 0 1-.06-.6 2.37 2.37 0 0 0 .27.28v-.14a13.45 13.45 0 0 0-2.84-4.37l-.44-.44a1.54 1.54 0 0 0-1-.56 2.6 2.6 0 0 1-1-.42 14.72 14.72 0 0 1-1.35-1c-.44-.37-.85-.77-1.28-1.14-.24-.2-.49-.37-.78-.59v.22a.5.5 0 0 1-.43-.3 1.92 1.92 0 0 1-.13-.28.25.25 0 0 0-.3-.17 1.84 1.84 0 0 0 .09.4c0 .16-.21.08-.27.05A1 1 0 0 1 505 34c-.06-.1 0-.25-.07-.38a3.57 3.57 0 0 0-.16-.46l-.2.23a.44.44 0 0 1-.62.12h-.06s-.09-.14-.06-.19a.21.21 0 0 1 .18-.07l.34.08a.23.23 0 0 0 .16-.12.11.11 0 0 0-.07-.15c-.19-.09-.38-.18-.57-.25-1.18-.42-2.37-.82-3.54-1.27a25.28 25.28 0 0 0-4.53-1.23 1.14 1.14 0 0 0-.45 0l2.79.72-.29.07a7.66 7.66 0 0 1-2.74-.18l-2.36-.53 1.65-.21V30c-.6 0-1.2-.11-1.8-.11-1.19 0-2.38 0-3.57.09-.18 0-.39 0-.49.19l-.18.08c-.67.23-1.34.47-2 .68-1.33.41-2.64.84-3.95 1.28a20.54 20.54 0 0 1-2 .83 15.62 15.62 0 0 0-2.1.69c-.49.19-1 .35-1.49.52s-.74.3-1.11.46a7.71 7.71 0 0 1-1.62.54 7.84 7.84 0 0 0-2 .72c-1.16.59-2.34 1.16-3.5 1.75-.49.25-1 .56-1.45.82-.2.11-.45.14-.65.24a8.76 8.76 0 0 1-.95.52 5 5 0 0 0-1.25.9 1 1 0 0 1 .13-.39 2.62 2.62 0 0 0-.83.76c.08.12.16.23.25.34l1 1.16a3 3 0 0 1 .74 1.72c0 .13.1.3-.08.38s-.24-.08-.34-.18l-.28-.27a2 2 0 0 0 .3 1.44c.2.43.43.85.67 1.31h-.41v.7a.71.71 0 0 1-.69-.27c-.23-.23-.43-.48-.65-.71a.94.94 0 0 0-.73-.36c.11.24.19.46.3.65.2.35.43.69.63 1a.9.9 0 0 1 .19.65l-1.43.43a.32.32 0 0 1-.21-.08 1.1 1.1 0 0 1-.2-.23q-2.06-2.5-4.14-5c-.37-.46-.71-1-1.06-1.43h.27a1.18 1.18 0 0 0-.07-.2c-.8-1.41-1.58-2.83-2.4-4.22a38 38 0 0 0-8.17-9.6 42.57 42.57 0 0 0-6.61-4.62 13.23 13.23 0 0 0-4-1.4c-1.35-.26-2.7-.48-4-.77a19.92 19.92 0 0 1-2-.59c-.4-.13-.48-.13-.68.25a.63.63 0 0 1-.68.38 9.9 9.9 0 0 0-5.75 1.73 18.21 18.21 0 0 0-3.87 3.46c-.35.4-.68.81-1 1.23a1.15 1.15 0 0 1-.66.5 3 3 0 0 0-.49.2 3.16 3.16 0 0 1-.64 1.11 5.41 5.41 0 0 0-.45.72c-.06.1-.09.21-.23.22a.87.87 0 0 0-.62.43c-.16.22-.3.46-.45.68a1.24 1.24 0 0 1-.69.62v.47a7.78 7.78 0 0 1-.36 3.52.65.65 0 0 1-.34.4 1.92 1.92 0 0 0-.38.25 1.22 1.22 0 0 0-.38 1.68.71.71 0 0 0 .1.14c-.4.14-.57.5-.82.78 0 .33.37.37.54.57-.07.27-.14.56-.22.84a23.38 23.38 0 0 0-1 3.78c-.08.52-.13 1-.19 1.54a2 2 0 0 0 0 .35c-.33-.14-.3.38-.65.3a2 2 0 0 1 .09-.33.56.56 0 0 0-.15-.61 1.34 1.34 0 0 1-.51-1.08h.01c-.13.19-.13.19 0 .54h-.54c-.24 0-.3 0-.31.28 0 1.87-.1 3.73-.11 5.59a15.3 15.3 0 0 0 .42 3.5l.13.44a1.38 1.38 0 0 0 .31-.91 12.18 12.18 0 0 0 0-1.48c-.06-1-.15-2-.19-2.94a3.58 3.58 0 0 1 .4-1.76 2.33 2.33 0 0 1 .17-.26.34.34 0 0 1 .12-.09c.2.74 0 1.49.15 2.23a.45.45 0 0 0 .28-.43v-1.21a.51.51 0 0 1 .49.43 4.55 4.55 0 0 1 .09.73.84.84 0 0 0 .59.79c-.13.49-.25 1-.39 1.46-.05.19-.07.33.15.4s.17.13.15.27a16.19 16.19 0 0 0 .09 3.41c0 .46.09.93.09 1.39a6.86 6.86 0 0 1-.09 1.34 3.73 3.73 0 0 1 1 2.2c.08.29.15.58.24.86a1.69 1.69 0 0 0 1 1.2 2.4 2.4 0 0 0-.08 1.38c.14.43.34.84.53 1.29l-.45.45c.07.07.13.15.2.21.33.33.67.65 1 1a7.25 7.25 0 0 1 1.78 3.48v.11c-.2 0-.4.07-.42.33a.72.72 0 0 0 .28.68 1.23 1.23 0 0 0 1.11.22l.27-.09a3.64 3.64 0 0 1 .37.89c.21.54.41 1.07.63 1.59.11.26.24.52.36.77l-1.29.77c.07.21.13.48.24.74a6.91 6.91 0 0 0 1.05 1.67c.47.55.93 1.11 1.39 1.68a5.46 5.46 0 0 1 .92 1.65.94.94 0 0 1 .05.44c-.09-.1-.19-.2-.27-.3-1.22-1.45-2.3-3-3.37-4.56l-2.86-4.16a2.49 2.49 0 0 0-.72-.69 4 4 0 0 1-1.16-1.19 12.18 12.18 0 0 1-1.16-2.24l-1-2.49c-.09-.23-.2-.44-.33-.72a.66.66 0 0 0-.12.56 6.92 6.92 0 0 0 .28.88c.13.34.32.65.46 1a1.75 1.75 0 0 1 .14.6 6.17 6.17 0 0 1-1.56-2.67H410c.08.12.13.19.18.28-.14.13-.27.13-.34 0a5.38 5.38 0 0 1-.45-1.11 15.62 15.62 0 0 1-.24-1.65 9.81 9.81 0 0 0-.12-1.32 1.15 1.15 0 0 0-.63-1 .71.71 0 0 1-.23-.34 19.18 19.18 0 0 1-1.34-4.82c-.12-.8-.18-1.62-.27-2.43v-.31c.33.62.64 1.21 1 1.83a2 2 0 0 0-.31 1.53 6.67 6.67 0 0 0 .84 2.45l.06.09h.1c.21-.31-.12-.57-.08-.9a3 3 0 0 1 .7 1.38 2 2 0 0 0 .2-.87 5.54 5.54 0 0 0-.11-1.15 8.92 8.92 0 0 0-.42-1.33 10.36 10.36 0 0 1-.72-3.6 42 42 0 0 1 .31-5.93 61.9 61.9 0 0 0 .64-7.07v-1.47a.37.37 0 0 0-.09-.28 1.66 1.66 0 0 0-.49-.3s-.18.06-.21.12a5.75 5.75 0 0 0-.41.87 8.82 8.82 0 0 0-.29 2.5v1.72l-.21-.24-.45.29c.09-.37.17-.67.22-1 .07-.55.11-1.1.18-1.65.1-.71.23-1.4.35-2.14-.13-.09-.27 0-.37.12a4.73 4.73 0 0 0-.37.59.81.81 0 0 0 0 .22l-.18 1.39a.85.85 0 0 1-.09.22c-.11-.27-.1-.48 0-1.32-.08.12-.18.23-.25.35a6.09 6.09 0 0 0-.76 2.1 15.77 15.77 0 0 0-.2 2.91.7.7 0 0 1-.15.46 7.91 7.91 0 0 0-.37.84c.13-2 .52-4 .67-6.11a.47.47 0 0 0-.41.36 8.49 8.49 0 0 0-.22 1c-.06.37-.08.74-.14 1.11a1 1 0 0 1-.65.91c.06.31.13.62.18.92a10.36 10.36 0 0 1 .11 1.12 1.22 1.22 0 0 1-.44 1 .4.4 0 0 0-.16.41 7.36 7.36 0 0 0 .14 1.23 3.64 3.64 0 0 1 0 1.47 2.37 2.37 0 0 0 0 .84c.13.77.22 1.54.32 2.31a12.94 12.94 0 0 0 .89 3.73c.13.29.11.34-.14.51s-.27.2-.14.51l.48 1.11c.31.68.62 1.37.92 2 0 .1.09.19.14.29.2-.09.2-.23.14-.39s-.11-.23-.15-.36a.23.23 0 0 1 .19-.31c.33.3.14.74.32 1.09l-.41.26c.2.12.36.23.53.31a.54.54 0 0 1 .29.42c.22.85.44 1.7.69 2.55a2.5 2.5 0 0 0 .71 1.19c0 .16-.33.22-.15.46l.2-.08v.06a1 1 0 0 0 .19.8 7 7 0 0 1 .48.84c.06.12.14.25 0 .4s0 .17.1.21a1.68 1.68 0 0 0 .32.09 3 3 0 0 0 .59 1.49c.81 1.36 1.6 2.73 2.41 4.09 1.23 2.07 2.62 4 4 6 .29.43.62.82.92 1.24a1.94 1.94 0 0 1 .15.36h.26l1.29 1.3a2.65 2.65 0 0 1-.79-.22l-.1.08a.84.84 0 0 1 .18.15l.56.88c.64 1 1.28 2 1.94 2.91a8.51 8.51 0 0 0 .73.86l6.44 6.95a.52.52 0 0 1 .14.52c-.1.53-.14 1.08-.21 1.61a3.13 3.13 0 0 1-.12.68c-.05.22-.12.29-.14.45a1.9 1.9 0 0 1-.75 1.14c-1-1-1.94-2.16-3-3.18l-.07.05c.31.55.62 1.1.94 1.65l-.12-.07-1.64-1.49a5.81 5.81 0 0 1-1.84-3.06c.22.27.44.55.66.81s.5.53.74.8l.71.8c.13-.15 0-.22 0-.3l-.61-.7-3.23-3.74-.27-.33c-.42-.54-.85-1.08-1.26-1.63-.25-.34-.48-.7-.72-1.06l-.23-.33c-.17 0-.2.13-.14.25a2.26 2.26 0 0 1 .16.26 1 1 0 0 1 0 .24H417a.48.48 0 0 1-.12-.65v-.06l.16-.17c-.12-.2-.28-.19-.45-.18a1.55 1.55 0 0 1-.43 0 .41.41 0 0 1-.37-.43.43.43 0 0 1 .05-.16h.38c.05-.26-.1-.33-.29-.38-.41-.13-.4-.14-.6-.46l.15-.1a.17.17 0 0 0 0-.1c-.37-.41-.75-.82-1.11-1.24a17 17 0 0 1-1.37-1.77 3.38 3.38 0 0 1-.73-2 .6.6 0 0 0-.12-.32c-.65-1-1.29-2.07-2-3.07L408 73.36h-.09c.13.3.27.58.41.91a.46.46 0 0 1-.5-.34c-.09-.21-.15-.44-.22-.66a1 1 0 0 0-.43-.64v.29a4.58 4.58 0 0 0 .6 1.59c.26.45.49.9.76 1.4.11 0 .18-.07.15-.24s-.1-.25.1-.36a1.59 1.59 0 0 0 .52.9c.1.12.2.26 0 .36-.12-.14-.24-.27-.35-.41h-.07v.19c.12.23.26.46.38.69s.18.41.29.65l-.59-.11v.16a15.59 15.59 0 0 1 2.86 3.26 40.39 40.39 0 0 0 3 3.9.31.31 0 0 1 .05.1c-.19.18-.26.2-.44 0l-.59-.67-.4-.5h-.07V84a4.31 4.31 0 0 0 .77 1.43 11.36 11.36 0 0 0 1 1.2 42.07 42.07 0 0 1 5.46 6.45c1.15 1.55 2.3 3.1 3.6 4.53.53.58 1.09 1.14 1.64 1.71l.38.4c-.11.38-.23.74-.37 1.18-.82-.83-1.59-1.66-2.35-2.52-.13.12-.06.21 0 .28s.24.24.34.37.09.26-.15.34c-1.09-1.44-2.26-2.85-3.45-4.24h-.07a1.43 1.43 0 0 0 .09.27 9 9 0 0 0 1.41 2.23c.6.71 1.23 1.4 1.84 2.11.44.51.87 1 1.3 1.54a2 2 0 0 1 .25.33.27.27 0 0 1-.35-.11c-.12-.15-.23-.31-.36-.45a.4.4 0 0 0-.53-.12.06.06 0 0 1-.06 0 14.76 14.76 0 0 0-2.28-3c-.67-.7-1.31-1.43-2-2.16a5.81 5.81 0 0 0-.56-.65.64.64 0 0 0 .09.4 4.21 4.21 0 0 0 .73 1.41c.45.56.92 1.11 1.39 1.67l.3.35a.49.49 0 0 1-.4-.13l-.79-.56a1.91 1.91 0 0 0-1-.37.72.72 0 0 0 .24.43c1.24 1.68 2.53 3.32 3.9 4.89l2 2.26a.38.38 0 0 1 .11.48c-.07.16-.11.34-.18.55-.13-.13-.24-.21-.34-.32-1.23-1.34-2.51-2.65-3.69-4-3.84-4.56-7.65-9.16-11.47-13.75a74.07 74.07 0 0 1-4.93-6.64 60.13 60.13 0 0 1-3.5-6.15 71 71 0 0 1-5-12.65 52.16 52.16 0 0 1-2-14 50.86 50.86 0 0 1 .37-5.92c.21-1.87.55-3.72.89-5.56a3.53 3.53 0 0 0 0-.46c.28-1 .55-2.11.82-3.16a2.69 2.69 0 0 0 .19-.38c.23-.66.44-1.32.68-2 .17-.5.36-1 .54-1.48h.13a.89.89 0 0 0 0 .23 2.68 2.68 0 0 1 .21 1.67c-.13.67-.3 1.34-.43 2a11.44 11.44 0 0 0-.17 1.31c0 .07.08.2.12.2a.29.29 0 0 0 .24-.13 1.56 1.56 0 0 0 .1-.37l.11-.41a.62.62 0 0 1-.05.79c-.13.14-.29.27-.42.41a.63.63 0 0 0-.26.47h.37a4.09 4.09 0 0 1 0 .7 8.33 8.33 0 0 1-.16 1c-.13.66-.28 1.32-.42 2a6.65 6.65 0 0 0 0 2.18 1.9 1.9 0 0 0 .14-.4c.24-1.27.5-2.54.72-3.82a21.29 21.29 0 0 1 1-4 2.42 2.42 0 0 1 .42-.85 1.77 1.77 0 0 1-.06.34c-.27 1.67-.57 3.34-.8 5-.28 1.94-.51 3.9-.74 5.85a41.18 41.18 0 0 0-.27 5.66 33.05 33.05 0 0 0 1 7.41l.06.22.07.18a12.49 12.49 0 0 0-.27-2.86 6.11 6.11 0 0 1-.17-1.54 18.62 18.62 0 0 1 .18-2.09 4.29 4.29 0 0 0-.33-2.57.65.65 0 0 1 0-.34c0-.79.12-1.57.17-2.36.11-1.86.14-3.73.41-5.57a13.49 13.49 0 0 1 1-3.59c.11-.23.24-.46.35-.68h.09c-.44 2.17-.7 4.37-.93 6.56s-.47 4.39-.57 6.63a.65.65 0 0 0 .47-.6 6.74 6.74 0 0 0 .08-1v-1.9a2.93 2.93 0 0 1 .24-1c.07.2.1.32.14.44.12-1.33.27-2.65.37-4a15.89 15.89 0 0 1 .45-2.83.52.52 0 0 1 0-.27c.14-.81.26-1.64.43-2.44a43.88 43.88 0 0 1 2.15-7l.63-1.51a1.52 1.52 0 0 1-.06.73c-.27.84-.53 1.68-.84 2.5a25.33 25.33 0 0 0-1.23 4 6.73 6.73 0 0 0-.17 1.34 2.68 2.68 0 0 1 .35-.48 2.92 2.92 0 0 0 .7-1c.12-.22.34-.44.13-.73v-.19a3 3 0 0 1 .15-.49c.32-1 .64-2 1-2.94.13-.38.25-.77.4-1.14.35-.85.71-1.69 1.07-2.55l-.18-.14c.15-.29.3-.57.46-.85.05-.07.17-.16.24-.14.24 0 .31-.11.41-.33V25l.94-1.71-.27.21c0-.39.44-.64.31-1l-.35.05A2 2 0 0 1 407 22c.06-.19.18-.43.26-.65a.82.82 0 0 0 0-.65 10.22 10.22 0 0 0-1.39 2 1.48 1.48 0 0 0 .42 0c.28-.06.3-.05.31.31h-.45a1.19 1.19 0 0 0-.46.06c-.15.06-.26.13-.21.32s.42-.09.57.14a1 1 0 0 1-.41.63 1.3 1.3 0 0 1-1 .17c-.37.68-.7 1.36-1.07 2a11.82 11.82 0 0 1-1.26 1.82 14.14 14.14 0 0 1 1.3-3.2 41.26 41.26 0 0 1 3-4.68c.7-1 1.37-1.95 2-2.93.05-.09.1-.18.14-.27a35.28 35.28 0 0 0-8.58 14.78 7.63 7.63 0 0 1 .14-1.35 14.06 14.06 0 0 1 1.69-4.33c.65-1.15 1.33-2.29 2-3.43.09-.15.21-.29.15-.5h-.63a14.77 14.77 0 0 0 1.25-2.44 3.79 3.79 0 0 1 .43-.69.79.79 0 0 1 .43-.31.58.58 0 0 0 .36-.31c.43-.61.85-1.24 1.32-1.82a26.56 26.56 0 0 1 4.37-4.24c1.29-1 2.63-2 3.95-3l.23-.19a1.38 1.38 0 0 0-.63.14 6.25 6.25 0 0 0-1 .59c-.65.49-1.26 1-1.9 1.54-.47.38-1 .73-1.46 1.09a1.17 1.17 0 0 1-.26.1 1.27 1.27 0 0 1 .25-.49c.4-.41.78-.83 1.21-1.2a12.33 12.33 0 0 1 2.23-1.41l3.33-1.76a27.53 27.53 0 0 1 10.47-3.18 31.65 31.65 0 0 1 9.66.5 43.09 43.09 0 0 0 4.35.78L443 6l1.36.35.07.09a2.94 2.94 0 0 1 1.27.93c.06.07.2.08.31.1a2.41 2.41 0 0 1 .92.12 6.67 6.67 0 0 1 1.86.85l3 1.83.28.15-.55.19v.09h.54a.91.91 0 0 1 .88.6l-.83-.45c0 .37.05.5.34.56s.57.07.85.09.31 0 .39.19a7.48 7.48 0 0 0 1.67 1.92c.56.51 1.15 1 1.69 1.5a14.18 14.18 0 0 1 1.45 1.56 1.87 1.87 0 0 1 .17.31 3.48 3.48 0 0 1-1.07-.76c-.22-.23-.44-.47-.67-.7a1.13 1.13 0 0 0-1.38-.27.48.48 0 0 0-.32.1c.14-.35.6-.3.6-.69a1.51 1.51 0 0 0-.72-.47.41.41 0 0 0-.54.21v.05a1.6 1.6 0 0 0-.1.23c-.89-.73-.89-.73-1.21-.57a1.52 1.52 0 0 0 .66.57 1.3 1.3 0 0 0 1.07.14.81.81 0 0 0 .11.9.41.41 0 0 1 0 .51c0 .06 0 .14-.06.15a9 9 0 0 1 .79.59 3.89 3.89 0 0 1 .46.53 1.42 1.42 0 0 0 .25.24c.16.11.28 0 .28-.15v-.52a3.39 3.39 0 0 1 .5.34c.28.26.24.42-.12.58l-.08.09.36.43c.1.12.22.22.31.35a.27.27 0 0 1 0 .38l-.29-.19a9 9 0 0 1-1.58-1.38c-.09-.1-.16-.23-.34-.23 0 .27.4.53 0 .79-.26-.06-.36-.39-.68-.34.06.12.1.22.15.3-.12.24-.48.18-.49.54a2.38 2.38 0 0 1 .44.27 4.48 4.48 0 0 1 .36.4l.18-.24-.36-.37c.19-.16.31-.09.4 0a1.85 1.85 0 0 1 .19.37c.08.19.14.4.23.58a.58.58 0 0 0 .65.38.24.24 0 0 1 .12 0 .67.67 0 0 0 .07.39c.07.09.2.1.32.15 0 .27.21.41.46.53a1.88 1.88 0 0 1 .44.24c.14.09.06.2 0 .29.3.34.59.65.86 1l3.23 4 .12.15 1.26 2a13.77 13.77 0 0 1 1.59 2.79c.15.34.32.68.5 1v.06l-.2-.2c.05.44.35.73.44 1.18a6.14 6.14 0 0 1-.52-.5c-.13-.16-.19-.38-.39-.49l.49 1.15a44.09 44.09 0 0 0-2.4-4c.11.28.24.54.37.8s.23.55.36.82.29.52.43.78l.43.78a3.12 3.12 0 0 1 .34.77c-.51-.8-1-1.62-1.45-2.44.08.15.15.3.22.46h-.12a32.7 32.7 0 0 0 2.47 4.82l2.41-2c.8-.66 1.36-1.16 2.1-1.66 1.15-.76 2.32-1.51 3.54-2.16 1.43-.77 2.92-1.41 4.38-2.1a18.84 18.84 0 0 1 3.16-1.28c1-.28 2-.58 3.07-.87.08 0 .21 0 .24-.1s.3-.2.46-.24c.42-.1.84-.18 1.25-.26h.3a2.27 2.27 0 0 0 .59 0c.66 0 1.32-.15 2-.16s1.6.06 2.4.08a28 28 0 0 1 5 .51 20.08 20.08 0 0 1 3.94 1.18c1.6.7 3.24 1.31 4.86 2a17.09 17.09 0 0 1 2.52 1.2h.11v-.37l.67.52a12.84 12.84 0 0 0 1.21 1 26.09 26.09 0 0 1 5.37 4.74 24.21 24.21 0 0 1 4.28 6.82 6.39 6.39 0 0 0 .79 1.33l.19.24c0 .1-.11.18-.11.26s0 .25.08.26.27.24.33.39a9 9 0 0 1 .33 1 1 1 0 0 0 .45.69.45.45 0 0 1 .23.42 4.55 4.55 0 0 0 .32 1.67c.3.87.6 1.74.89 2.61a.86.86 0 0 1-.39 1l-.12-.57h-.07v.65l.68.1c0 .42.4.78.19 1.24-.21 0-.28-.09-.29-.25a3.53 3.53 0 0 0 0-.46c0-.18-.09-.32-.34-.28a9.59 9.59 0 0 1-.05 2.83 10.35 10.35 0 0 1-.16 1.23.33.33 0 0 0 .21.4c.33.13.33.18.28.52-.17 1.14-.35 2.28-.5 3.42a18.05 18.05 0 0 1-.61 3.08 2.48 2.48 0 0 0-.06.54 3.76 3.76 0 0 1-.32 1.58c-.18.42-.34.84-.51 1.26a.41.41 0 0 0 0 .4 1.25 1.25 0 0 1 .1 1 4.2 4.2 0 0 1-.62 1.21l-.53.76a1 1 0 0 1 .15 1.13c-.13.35-.31.69-.46 1a9.32 9.32 0 0 0-.38 1 .54.54 0 0 0 .11.58 27.22 27.22 0 0 0 2.32-5.9c0 .34.07.63.08.92a.57.57 0 0 1 0 .26l-.77 1.82a15.1 15.1 0 0 0-1 3 2.8 2.8 0 0 0-.07 1 3.41 3.41 0 0 1 .79-1.25 5.06 5.06 0 0 1-.8 1.61.86.86 0 0 0-.15.22c-.06.26-.1.52-.15.79a.28.28 0 0 0 .19.36l.14-.23c.3-.56.59-1.12.88-1.69s.7-1.38 1-2.09a8.94 8.94 0 0 0 .32-1l.25.5.21-.06a16.64 16.64 0 0 1-.79 1.51c-.55 1-1.11 2-1.64 3a2.94 2.94 0 0 0-.32 1.13c.53.22.72.2 1-.18s.69-.81 1-1.24a20.49 20.49 0 0 0 2.92-6.31 38.14 38.14 0 0 0 1.34-9.32 34.74 34.74 0 0 1 .23-4 18.64 18.64 0 0 0 .1-2.48 4.1 4.1 0 0 0-.68-2.2 1.51 1.51 0 0 0-.21-.23 3.5 3.5 0 0 1-.07 1.87 3.08 3.08 0 0 1-.08-.53.47.47 0 0 0-.24-.5.89.89 0 0 1-.06.4c0 .59-.08 1.19-.06 1.78a18.16 18.16 0 0 0 .16 1.81 2.06 2.06 0 0 0 .44 1c.14-.52-.17-1 .11-1.52 0 .06.06.09.06.13a5 5 0 0 1-.29 2.06c-.19.5-.36 1-.53 1.54a.86.86 0 0 1-.07.21 1.69 1.69 0 0 1 0-.55 75 75 0 0 0-.44-8.61A1.21 1.21 0 0 1 525 52a1 1 0 0 0 0-.8 6.14 6.14 0 0 0-.4-1c-.22-.44-.5-.85-.74-1.28s-.54-.94-.78-1.43a7.27 7.27 0 0 1-.4-1.1c-.08-.2 0-.27.22-.29a.65.65 0 0 0 .09.39c.12-.17.21-.3.32-.44A14.3 14.3 0 0 1 522 42.6a1.63 1.63 0 0 1 .56.71c.24.49.45 1 .7 1.48a4.76 4.76 0 0 0 .47.7.42.42 0 0 0 .41.2c-.24-.5-.42-1-.67-1.43-.49-.88-1-1.73-1.51-2.59s-1.08-1.77-1.56-2.67a16.78 16.78 0 0 1-.65-1.66 4.3 4.3 0 0 0-.29-.7 19.75 19.75 0 0 0-3.91-4.45 43.16 43.16 0 0 0-6.82-4.72l-.32-.2a3.62 3.62 0 0 1 .93.15 6.82 6.82 0 0 1 2 1c.83.59 1.62 1.22 2.43 1.82.6.44 1.22.87 1.84 1.29.23.15.5.26.71.37a5.54 5.54 0 0 1 .3-.53c.09-.13.23-.21.33-.33a2.5 2.5 0 0 0 .23-.39l2.1 1.68 1.3 1.06c.23.2.44.43.64.62v.12a1.68 1.68 0 0 0 .37 2.17.81.81 0 0 0 .44.2c.11 0 .22-.16.33-.25a9.76 9.76 0 0 1 3 5c.12.53.21 1.07.32 1.6a.41.41 0 0 0 .07.28h.73a6.56 6.56 0 0 0 2 3.32 3.39 3.39 0 0 0 .1 2.18c.08.3.2.59.28.89.17.56.34 1.11.48 1.68a4.87 4.87 0 0 1 0 2.34.78.78 0 0 0 .08.4c.18.57.43 1.12.56 1.69a14.3 14.3 0 0 1 .32 2.15c.12 1.7.19 3.41.29 5.12a.32.32 0 0 1-.17.35.37.37 0 0 0-.19.49 7.31 7.31 0 0 1 .17 1.81V66l-.06.22a.51.51 0 0 0-.49.36c-.09.2-.19.53-.28.8s-.17.68-.28 1a.78.78 0 0 1-.61.59 1.52 1.52 0 0 1 .07-.57c.07-.41.16-.82.22-1.22a.88.88 0 0 0-.18-.78 17.74 17.74 0 0 1-.84 3.2 1.57 1.57 0 0 0-.08-.31 8.18 8.18 0 0 1 0-2.21c.17-1.27.36-2.53.51-3.81a10.84 10.84 0 0 0 0-2.67 3.87 3.87 0 0 0-.21-.94.65.65 0 0 0-.26-.35l-.12 1.5c-.18 1.86-.33 3.74-.55 5.6a23.48 23.48 0 0 1-1.3 5.35c-.13.36-.11.4.26.54.21.08.21.07.35.29-.16.16-.35.33-.2.65a2.23 2.23 0 0 1 .24-.49 1.9 1.9 0 0 1 .55-.58 1.23 1.23 0 0 0 .68-1.17v-.17c.18 0 .24 0 .24.22s0 .37.27.38a87.9 87.9 0 0 1-2.93 9.07h-.4c-.36 0-.47.14-.53.49a4.42 4.42 0 0 1-.1.5 6.87 6.87 0 0 1-.07.87 2.18 2.18 0 0 0-1.38 1.32 3.91 3.91 0 0 0-.38 1.5 1.24 1.24 0 0 1-.27.74 10.68 10.68 0 0 1-4.61 3.69l-.22.1a2.33 2.33 0 0 1-.64 1.09c-.33.36-.67.71-1 1.08a1.51 1.51 0 0 0-.45.84.51.51 0 0 1-.16.25c-.48.41-1 .83-1.45 1.22a10.11 10.11 0 0 1-1.11.78.83.83 0 0 0-.21.16c-.17.29-.31.6-.49.88a1.62 1.62 0 0 1-.32.32 61.44 61.44 0 0 1-6.57 4.14c-2.63 1.44-5.36 2.66-8.09 3.87-1.9.85-3.8 1.66-5.7 2.5a.87.87 0 0 1-.88 0 .84.84 0 0 0-1 .09 14 14 0 0 1-3.69 2c-1.38.5-2.77.94-4.16 1.39-.73.24-1.46.46-2.2.66a39 39 0 0 0-5.33 2.14c-6.17 2.73-12.33 5.48-18.58 8-2.44 1-5 1.81-7.48 2.6l-1.94.61.27.14a2.39 2.39 0 0 1-.37.15c-1.8.32-3.59.64-5.39.93s-3.56.54-5.34.8h-.23a1.09 1.09 0 0 1 .3-1.39 2.55 2.55 0 0 1 .82-.42c.44-.15.9-.24 1.35-.36l1-.26a3 3 0 0 0 .41-.18.61.61 0 0 0-.54-.19l-1 .06h-.78a4 4 0 0 1-.49-.17l.73-.58-.28-.26 2.68-.74c.45.46 1 .94 1.44 1.48a4.88 4.88 0 0 0 1.78 1.2 1.06 1.06 0 0 0 .8.09l-.2-.17-1.53-.92a.93.93 0 0 1-.23-.21l-2.19-2.24-.15-.15-.35.26-2-2 .34-.29 1.94 2a5.71 5.71 0 0 1 .85-.44 7 7 0 0 1 1.28-.31 13.27 13.27 0 0 0 3.24-.75h.13c.09.18 0 .29-.15.37s-.34.12-.5.2-.25.14-.18.32c.67-.2 1.34-.39 2-.61a1.3 1.3 0 0 0 .83-.62.4.4 0 0 0-.42 0c-.22.1-.43.23-.65.35a.64.64 0 0 1-.24.1.29.29 0 0 1-.23-.08v-.2a2.19 2.19 0 0 1 .5-.41c.45-.21.91-.39 1.36-.57l.6-.21c-.26-.29-.45-.57-.69-.79s-.76-.55-1.12-.84a7.69 7.69 0 0 1-.69-.65l-.8.21.62-.27c-.21-.26-.21-.26-.61-.24a6.42 6.42 0 0 0 1.34-2.67c.15.19.27.33.41.49l.72-.28s.13-.08.12-.09a.19.19 0 0 1 .13-.2c1.11-.49 2.23-.94 3.38-1.33a21.23 21.23 0 0 0 2-.92c.1 0 .19-.09.29-.12a37.08 37.08 0 0 0 4.4-2l.87-.43a.51.51 0 0 0 .3-.26c.08-.21.32-.19.51-.18a.68.68 0 0 0 .66-.33 1.17 1.17 0 0 0 .36-.08c.08 0 .11-.19.17-.29a.77.77 0 0 0 1-.28c.14-.17.27-.35.42-.51a.28.28 0 0 1 .39-.08.3.3 0 0 1 .08.08l-.43.25a.6.6 0 0 0 .06.29c.35-.1.52-.54.93-.35.11-.35-.26-.4-.3-.64l.25-.24c-.29-.12-.49.14-.74.12-.25-.33.16-.45.24-.7a.35.35 0 0 0-.39.1 6.88 6.88 0 0 1-1.89.81H459c-.13-.16 0-.28.07-.36a3.26 3.26 0 0 1 .4-.24l.45-.29c-.36-.37-.3-.58.16-.73h.19a.33.33 0 0 1 .14 0c-.06.19-.1.38-.18.65a2.5 2.5 0 0 0 .45-.12 3.46 3.46 0 0 0 .45-.29 1.53 1.53 0 0 1 1-.35v-.27a.48.48 0 0 1 .17-.45.71.71 0 0 0 .28-.75 1.59 1.59 0 0 0 1.75-.29c-.56-.32-.86.15-1.24.26 0 0-.05-.05-.05-.07-.06-.47-.23-.61-.69-.5a1.46 1.46 0 0 0-.34.1l-.17.06c0 .39.28.5.36.78a.81.81 0 0 1-.21-.1 1.12 1.12 0 0 0-1.42-.1 9.48 9.48 0 0 1-1 .52 6 6 0 0 1-.72.23v-.09a3 3 0 0 1 .35-.27c.52-.31 1-.62 1.58-.91l2-1a4.26 4.26 0 0 0 1.43-1.17c.11-.16.25-.15.41-.13a5.4 5.4 0 0 0 .69.08c.28 0 .38-.12.42-.46l-.75.24v-.08a.77.77 0 0 1 .61-.31 4.41 4.41 0 0 1 .72.08v-.08l-.41-.22a.7.7 0 0 1 .19-.15l2.31-1c.44-.2.88-.44 1.33-.64a3.4 3.4 0 0 1 1.93-.34 3 3 0 0 1 2-1.17c.58-.12 1.17-.21 1.76-.31a10.86 10.86 0 0 0 2.17-.58c2.67-1 5.35-2 8-2.94 2.2-.81 4.38-1.64 6.58-2.46a13.82 13.82 0 0 0 3.13-1.72 8.94 8.94 0 0 1 1.17-.75 8.14 8.14 0 0 1 1.19-.46.81.81 0 0 1 .31 0 1.76 1.76 0 0 1-.63.61c-.4.22-.81.41-1.21.61s-.79.34-1.17.53a1.83 1.83 0 0 0-.79.64h.28a12.15 12.15 0 0 0 2.43-1.12c.83-.49 1.65-1 2.47-1.54l3.55-2.32a.74.74 0 0 1 .47-.65c.28-.15.44-.23.67-.33a4.22 4.22 0 0 0 1.31-.85c.07.23.13.4.21.63a1.7 1.7 0 0 0 .39-.27c.6-.6 1.21-1.2 1.79-1.83s1.34-1.51 2-2.23a14.43 14.43 0 0 1 1.13-.94.27.27 0 0 1 .17-.06 34.59 34.59 0 0 1-4.33 4.8c-1.56 1.49-3.21 2.87-4.9 4.22v.07a.72.72 0 0 0 .27-.09 9.92 9.92 0 0 0 2-1.2 33.35 33.35 0 0 0 3-2.56c.76-.73 1.54-1.44 2.3-2.15l.38-.31a6 6 0 0 1-2.16 2.75c.27.84.21 1.09-.38 1.4-.07-.18-.13-.36-.19-.54-.21 0-.25.09-.24.25s.07.53.11.81l1.36-.72-.1.28.46-.32c-.16-.29 0-.48.19-.66a1.16 1.16 0 0 1 .65-.43c.36-.36.72-.71 1.06-1.08s.4-.5.62-.74l.47-.51a25.46 25.46 0 0 0 2.64-3.3c.08-.13.11-.34.35-.3 0 0 .06 0 .08-.08a3.07 3.07 0 0 0 .31-1.11c-.29 0-.35.23-.45.38a4.35 4.35 0 0 1-.33.42c-.12.14-.26.28-.38.43-.68.92-1.34 1.84-2 2.75a5.84 5.84 0 0 1-1.77 1.66l-.28.15h-.1l.22-.23a29.83 29.83 0 0 0 5-6.76 15.66 15.66 0 0 0 .74-1.74c.12-.32.16-.66.27-1l1-2.61a3 3 0 0 0 .19-.94 3.55 3.55 0 0 1 .16-.91c.1-.43.23-.85.34-1.28a3.5 3.5 0 0 0 .07-.65.57.57 0 0 0-.39-.56 23.83 23.83 0 0 1-3.5 10.21h-.09a.79.79 0 0 1 .07-.4A19.92 19.92 0 0 1 515 71a23 23 0 0 0 1.46-4.21 10.64 10.64 0 0 0 .17-1.11.71.71 0 0 1 .17-.42 1.91 1.91 0 0 0 .52-1.38 15.46 15.46 0 0 0-.13-1.66 6.31 6.31 0 0 1 .06-1.94 2.49 2.49 0 0 0 0-.77 5.67 5.67 0 0 0-.22-1.23 1.5 1.5 0 0 0 0 .3c-.11 1.83-.3 3.66-.59 5.48a33.61 33.61 0 0 1-1.57 6.4 17.26 17.26 0 0 1-3 5.36 1.07 1.07 0 0 1-.39.34c.1-.23.19-.48.31-.71.48-1 1-1.93 1.47-2.9a8.18 8.18 0 0 0 .89-2.77 6.13 6.13 0 0 0-.83 1.45c-.17.47-.34 1-.53 1.42a3.55 3.55 0 0 1-.32.61c-.24.36-.35.39-.74.21a1 1 0 0 0 .07.63zm-5.3 10c-1 .65-1.37 1-1.5 1.31a.73.73 0 0 0 .63-.05l1-.33a1 1 0 0 0 .2-.15c-.26-.18-.25-.18-.27-.45a2.38 2.38 0 0 0-.06-.37zm-44.33-54.28c.39.62.73 1.26 1.16 1.85a5.41 5.41 0 0 0-1.16-1.85z" fill="url(#a)"/><path d="M414.09 74.08c.39.34 4.6 6.19 5 7a3.07 3.07 0 0 1-.26-.25c-.5-.58-1-1.13-1.48-1.75-1.06-1.5-2.07-3-3.1-4.56-.08-.11-.13-.24-.2-.36z" fill="url(#b)"/><path d="M404.48 46.81a6.78 6.78 0 0 0 .77 2.75c-.47.21-.44.58-.33 1 .06.23.11.45.15.68a.92.92 0 0 1-.15.7c-.44-.59-.65-4.24-.44-5.13z" fill="url(#c)"/><path d="M410.93 70a4.05 4.05 0 0 1-.64-1c-.15-.34-.28-.69-.43-1s-.35-.78-.55-1.22a1.71 1.71 0 0 1 .23.13 2.31 2.31 0 0 1 .31.39c.32.59.66 1.17.94 1.78a4 4 0 0 1 .22.9z" fill="url(#d)"/><path d="M474.54 37.9c-1.13.71-2.12 1.61-3.33 2.27a8.29 8.29 0 0 1 3.33-2.27z" fill="url(#e)"/><path d="M406.3 44.47l-.36.12c-.12-.28 0-.51.06-.84.07.22.12.36.16.5h.09c.25-.42 0-1 .33-1.42a.48.48 0 0 1 .13.43 8.26 8.26 0 0 1-.1 1c0 .33-.08.76-.13 1.15a.18.18 0 0 1-.12.13c0-.33 0-.68-.06-1.07z" fill="url(#f)"/><path d="M422.09 84.81a1.6 1.6 0 0 1-1-.66 16.52 16.52 0 0 1-.87-1.46 1.91 1.91 0 0 1 .66.57 12 12 0 0 1 1.21 1.55z" fill="url(#g)"/><path d="M427.39 87.3a2.34 2.34 0 0 1-1.68-2c.38.88 1.17 1.24 1.68 2z" fill="url(#h)"/><path d="M405.4 52.15a.68.68 0 0 0 .09.94c-.33 0-.31-.25-.44-.39h-.27c-.06.25.15.25.27.34l-.3.48c-.26-.43-.1-.89-.2-1.34z" fill="url(#i)"/><path d="M512.23 76.74a1 1 0 0 1-.47 1.33 1 1 0 0 1-.38.1c.08-.59.54-.92.85-1.43z" fill="url(#j)"/><path d="M506.69 79.64c.16-.84.83-1.24 1.48-1.74a6 6 0 0 1-1.48 1.74z" fill="url(#k)"/><path d="M423.19 86.24c.4-.06.61.2.81.43a1 1 0 0 1 .34 1c-.34-.46-.75-.93-1.15-1.43z" fill="url(#l)"/><path d="M413.57 73.18a9.42 9.42 0 0 1-1.29-2.4 10.48 10.48 0 0 1 1.29 2.4z" fill="url(#m)"/><path d="M499.79 84.81a.3.3 0 0 1-.05.42 1.86 1.86 0 0 1-1.15.57c.41-.29.65-.8 1.2-.99z" fill="url(#n)"/><path d="M510.7 76.2a1.59 1.59 0 0 1-.91 1.24 1.84 1.84 0 0 1 .91-1.24z" fill="url(#o)"/><path d="M453.65 106.81a4.09 4.09 0 0 1-1.94.79 4.3 4.3 0 0 1 1.94-.79z" fill="url(#p)"/><path d="M405.84 58a1.27 1.27 0 0 1 .28.94c0 .12-.07.23-.28.2a10.69 10.69 0 0 0-.11-1.11z" fill="url(#q)"/><path d="M411.23 68.45a1.12 1.12 0 0 1 .19.24c.21.44.4.89.61 1.37-.32-.18-.39-.32-.8-1.61z" fill="url(#r)"/><path d="M424.09 81l.83 1a1.11 1.11 0 0 1-.81-.6.32.32 0 0 1-.02-.4z" fill="url(#s)"/><path d="M446.22 109.52c-.52-.26-.58-.79-1-1.11a1.4 1.4 0 0 1 1 1.11z" fill="url(#t)"/><path d="M422.24 78.81c-.49-.14-.43-.72-.75-1 .26 0 .3.26.42.42l.38.51z" fill="url(#u)"/><path d="M406.29 50.5a2 2 0 0 1-.12-1.22 2 2 0 0 1 .12 1.22z" fill="url(#v)"/><path d="M424.29 89a1.65 1.65 0 0 1-.87-.57c.35-.01.58.14.87.57z" fill="url(#w)"/><path d="M509 76.89c.09.35-.11.61-.65.73z" fill="url(#x)"/><path d="M407.58 55a1.74 1.74 0 0 1 .21 1c-.22-.19-.27-.44-.21-1z" fill="url(#y)"/><path d="M428.81 93.22l-.41-.6c.41.19.46.19.41.6z" fill="url(#z)"/><path d="M511.83 74.09c.08.41.06.44-.36.57.14-.22.25-.4.37-.57z" fill="url(#A)"/><path d="M457.39 41.75a1.22 1.22 0 0 1-.3-.53.46.46 0 0 1 .29.53z" fill="url(#B)"/><path d="M446.31 124.53c.34-.2.34-.2.61-.14a.76.76 0 0 1-.62.13z" fill="url(#C)"/><path d="M440.22 117.43l.13.2-.17-.17z" fill="url(#D)"/><path d="M506.54 84.05a1.82 1.82 0 0 1 0 .33c0 .27 0 .27.27.45a1 1 0 0 1-.2.15l-1 .33a.73.73 0 0 1-.63 0 4.86 4.86 0 0 1 1.56-1.26z" fill="url(#E)"/><path d="M462.21 29.81a5.41 5.41 0 0 1 1.16 1.85c-.43-.66-.77-1.26-1.16-1.85z" fill="url(#F)"/><path d="M510.09 30.51a21.3 21.3 0 0 1 7.25 6.81 3.07 3.07 0 0 1-.26-.25 12.3 12.3 0 0 1-.84-1 24.85 24.85 0 0 0-3.49-3.31l-2.44-2-.31-.26z" fill="url(#G)"/><path d="M522.43 68.51c.38-1.77.72-3.56 1.24-5.39a.91.91 0 0 1 .18.73 7 7 0 0 1-.2.79l-.12.37a.67.67 0 0 0 .29.79 12.39 12.39 0 0 0-1.39 2.71z" fill="url(#H)"/><path d="M521.71 46.17a19.31 19.31 0 0 0-1.25-2.49c-.18-.35-.33-.72-.51-1.15a5.16 5.16 0 0 1 1.76 3.64z" fill="url(#I)"/><path d="M523.79 70.5a6.26 6.26 0 0 1-1.06 3 1.46 1.46 0 0 1 .16-.82 1.26 1.26 0 0 0 .14-.83l-.35.4c.08-.32.15-.56.23-.86l.29.24c.32-.27.28-.77.59-1.08z" fill="url(#J)"/><path d="M497.6 22.15a5.71 5.71 0 0 0-2.17-.27 1.2 1.2 0 0 1-.93-.26 4 4 0 0 1 3.1.53z" fill="url(#K)"/><path d="M507.89 29.38c-.63-.27-1.28-.52-1.91-.8a2.14 2.14 0 0 1-.89-.77h.06l1.83.91a2.06 2.06 0 0 1 .91.66z" fill="url(#L)"/><path d="M486.64 22.62c-.66.29-1.06.26-1.32-.06a3.7 3.7 0 0 1 2.6-.66 6.23 6.23 0 0 0-1.79.52z" fill="url(#M)"/><path d="M503 24.6a3.45 3.45 0 0 1-2.73-.86c.92.13 1.73.75 2.73.86z" fill="url(#N)"/><path d="M523.55 61.4l.31.46-.38.38.4.07c.12-.18.1-.42.39-.48a1 1 0 0 0-.06 1.08l-.82-.07a4.37 4.37 0 0 1 .16-1.44z" fill="url(#O)"/><path d="M501.35 26.42a1.17 1.17 0 0 1 1 0 1.32 1.32 0 0 1 .92.67l-1.89-.61a.06.06 0 0 1 0-.06z" fill="url(#P)"/><path d="M518.09 38.26a6.92 6.92 0 0 1 1.74 2.5 25.36 25.36 0 0 1-1.74-2.5z" fill="url(#Q)"/><path d="M473.37 27.81a3 3 0 0 1 1.87-1 8.42 8.42 0 0 1-1.87 1z" fill="url(#R)"/><path d="M477.65 28.74a1.27 1.27 0 0 1-.21.25c-.53.29-1.08.56-1.64.8a6.37 6.37 0 0 1 1.78-1.12z" fill="url(#S)"/><path d="M464.2 24.62a13.67 13.67 0 0 1-1.57-1.83c.46.12.94.73 1.57 1.83z" fill="url(#T)"/><path d="M489.5 21.7a.7.7 0 0 1 .64-.46.72.72 0 0 1 .74.32z" fill="url(#U)"/><path d="M500.32 22.43c.66-.25 1.1-.15 1.25.29a1.79 1.79 0 0 1-1.25-.29z" fill="url(#V)"/><path d="M492.32 25.12a6.54 6.54 0 0 1 1.82.11c-.45.06-.9.13-1.35.17a.44.44 0 0 1-.47-.28z" fill="url(#W)"/><path d="M508.57 25.32c-.08.13-.2.11-.33.08a2.57 2.57 0 0 1-1.23-.72.35.35 0 0 0 .05-.08z" fill="url(#X)"/><path d="M523.73 56.48l-.18-.7a3.21 3.21 0 0 0-.11-.52h.06a.31.31 0 0 1 .25.16 1.45 1.45 0 0 1 .09 1.1z" fill="url(#Y)"/><path d="M521.42 43.36a12.91 12.91 0 0 1-1.06-1.84 3.65 3.65 0 0 1 1.06 1.84z" fill="url(#Z)"/><path d="M513.09 28.15l-1.24-.67a.26.26 0 0 1-.12-.35c.43.42 1.01.56 1.36 1.02z" fill="url(#aa)"/><path d="M525 64.81a2.4 2.4 0 0 1-.29 1.36 2.58 2.58 0 0 1 .29-1.36z" fill="url(#ab)"/><path d="M468.82 32a2 2 0 0 1 1.15-.86c-.4.27-.65.73-1.15.86z" fill="url(#ac)"/><path d="M500 27c.59.17.76.27.93.55-.28 0-.55-.15-.93-.55z" fill="url(#ad)"/><path d="M401.09 24.9l-1.45 3a4.39 4.39 0 0 1 1.45-3z" fill="url(#ae)"/><path d="M401.17 31.28a1.55 1.55 0 0 1-.76 2 5.13 5.13 0 0 1 .76-2z" fill="url(#af)"/><path d="M399.09 32.35a3.57 3.57 0 0 1 .69-2.16 3.87 3.87 0 0 1-.69 2.16z" fill="url(#ag)"/><path d="M407.83 14.7c.42-.67 1.14-.93 1.69-1.41a3.91 3.91 0 0 1-1.22 1.37c-.16.15-.21.15-.47 0z" fill="url(#ah)"/><path d="M399.41 28.48a1.64 1.64 0 0 1-.56 1.37l.25-.69c.07-.24.05-.52.31-.68z" fill="url(#ai)"/><path d="M401.94 34.56l.15-.59-.15.58z" fill="url(#aj)"/></g></svg>